<?xml version="1.0" standalone="no"?>
<!DOCTYPE svg PUBLIC "-//W3C//DTD SVG 1.1//EN" "http://www.w3.org/Graphics/SVG/1.1/DTD/svg11.dtd" >
<svg xmlns="http://www.w3.org/2000/svg">
<metadata></metadata>
<defs>
<font id="solidogsbook" horiz-adv-x="578" >
<font-face units-per-em="1000" ascent="750" descent="-250" />
<missing-glyph horiz-adv-x="200" />
<glyph unicode="&#xd;" horiz-adv-x="333" />
<glyph unicode=" "  horiz-adv-x="200" />
<glyph unicode="&#x09;" horiz-adv-x="200" />
<glyph unicode="&#xa0;" horiz-adv-x="200" />
<glyph unicode="!" horiz-adv-x="229" d="M151 700v-300l-10 -222h-53l-10 222v300h73zM78 98v-98h73v98h-73z" />
<glyph unicode="&#x22;" horiz-adv-x="402" d="M125 700v-98l-11 -137h-41l-11 137v98h63zM340 700v-98l-11 -137h-42l-10 137v98h63z" />
<glyph unicode="#" horiz-adv-x="622" d="M448 0h-39v227h-194v-227h-40v227h-130v40h130v176h-130v40h130v217h40v-217h194v217h39v-217h129v-40h-129v-176h129v-40h-129v-227zM215 443v-176h194v176h-194z" />
<glyph unicode="$" horiz-adv-x="546" d="M286 661v-177q34 -13 51.5 -21t41.5 -24t35 -38t11 -51v-6q0 -56 -39 -87.5t-100 -34.5v-61h-26v61q-60 3 -99.5 36.5t-39.5 91.5v44h47v-44q0 -40 26 -63t66 -26v184q-30 12 -49 21t-40.5 25t-32 37.5t-10.5 49.5v7q0 52 37 82t95 33v61h26v-61q58 -3 95 -37t37 -91v-44 h-46v44q0 39 -24 62t-62 27zM177 585v-5q0 -31 21 -49.5t62 -35.5v166q-37 -3 -60 -23.5t-23 -52.5zM376 342v5q0 31 -23 50t-67 37v-173q40 2 65 23t25 58z" />
<glyph unicode="%" horiz-adv-x="787" d="M323 592v-198q0 -54 -39.5 -85.5t-97.5 -31.5t-98 31.5t-40 85.5v198q0 55 40 86.5t98 31.5t97.5 -31.5t39.5 -86.5zM562 700l-380 -700h40l380 700h-40zM95 592v-198q0 -37 26 -57.5t65 -20.5q38 0 64.5 20.5t26.5 57.5v198q0 37 -26.5 58.5t-64.5 21.5q-39 0 -65 -21.5 t-26 -58.5zM739 309v-198q0 -55 -39.5 -86t-97.5 -31q-59 0 -98.5 31t-39.5 86v198q0 55 39.5 86t98.5 31q58 0 97.5 -31t39.5 -86zM510 309v-198q0 -37 26.5 -58t65.5 -21q38 0 64 21t26 58v198q0 37 -26 58t-64 21q-39 0 -65.5 -21t-26.5 -58z" />
<glyph unicode="&#x26;" horiz-adv-x="644" d="M503 299v-125q0 -12 -2 -32l101 -89v-53h-45l-83 74q-57 -84 -197 -84q-96 0 -161 51.5t-65 142.5v36q0 94 87 155q-67 70 -67 151v10q0 82 60.5 128t155.5 46q94 0 154 -51t60 -143v-66h-68v66q0 64 -41 99.5t-105 35.5q-63 0 -104 -31t-41 -84v-8q0 -67 67 -128 l224 -198v156h169v-59h-99zM121 220v-36q0 -65 45 -100t111 -35q50 0 89 18t56 53l-241 216q-60 -44 -60 -116z" />
<glyph unicode="'" horiz-adv-x="187" d="M125 700v-98l-11 -137h-41l-11 137v98h63z" />
<glyph unicode="(" horiz-adv-x="281" d="M261 850h-46q-78 -104 -123.5 -239.5t-45.5 -260.5t45.5 -260.5t123.5 -239.5h46q-149 242 -149 500t149 500z" />
<glyph unicode=")" horiz-adv-x="280" d="M20 850h46q78 -104 123.5 -239.5t45.5 -260.5t-45.5 -260.5t-123.5 -239.5h-46q149 240 149 500t-149 500z" />
<glyph unicode="*" horiz-adv-x="339" d="M199 580l92 -47l-20 -34l-87 56l5 -103h-40l5 103l-86 -56l-20 34l91 47l-91 47l20 34l86 -54l-5 102h40l-5 -102l87 54l20 -34z" />
<glyph unicode="+" horiz-adv-x="445" d="M45 327v56h149v149h56v-149h149v-56h-149v-149h-56v149h-149z" />
<glyph unicode="," horiz-adv-x="193" d="M128 0v98h-63v-98l-37 -137h52z" />
<glyph unicode="-" horiz-adv-x="444" d="M52 278h340v-56h-340v56z" />
<glyph unicode="." horiz-adv-x="193" d="M65 98v-98h63v98h-63z" />
<glyph unicode="/" horiz-adv-x="465" d="M403 700l-380 -700h40l380 700h-40z" />
<glyph unicode="0" horiz-adv-x="582" d="M519 516v-332q0 -91 -66 -142.5t-162 -51.5t-162 51.5t-66 142.5v332q0 91 66 142.5t162 51.5t162 -51.5t66 -142.5zM136 516v-332q0 -63 44.5 -99t110.5 -36q65 0 109.5 36t44.5 99v332q0 63 -44.5 99t-109.5 36q-66 0 -110.5 -36t-44.5 -99z" />
<glyph unicode="1" horiz-adv-x="442" d="M194 641h-153v59h227v-641h153v-59h-380v59h153v582z" />
<glyph unicode="2" horiz-adv-x="552" d="M502 516v-10q0 -63 -39.5 -115.5t-96 -89t-112.5 -70.5t-95.5 -75.5t-39.5 -87.5v-9h383v-59h-456v66q0 63 39.5 115.5t95.5 89.5t112 71t95.5 76.5t39.5 89.5v8q0 63 -44.5 99t-109.5 36t-106.5 -35.5t-41.5 -99.5v-34h-70v34q0 91 61.5 142.5t156.5 51.5 q96 0 162 -51.5t66 -142.5z" />
<glyph unicode="3" horiz-adv-x="553" d="M58 482v34q0 91 61.5 142.5t155.5 51.5q95 0 155.5 -47t61.5 -132q-1 -58 -32 -99.5t-84 -62.5q58 -20 92.5 -63t34.5 -104v-25q0 -90 -65.5 -138.5t-162.5 -48.5q-96 0 -161.5 51.5t-65.5 142.5v34h73v-34q0 -63 44.5 -99t109.5 -36q66 0 110.5 35t44.5 98v23 q0 60 -45 96.5t-110 36.5h-50v60h50q62 0 104.5 36t43.5 90q-1 61 -42.5 94t-105.5 33t-105.5 -35.5t-41.5 -99.5v-34h-70z" />
<glyph unicode="4" horiz-adv-x="573" d="M25 190v60l339 451v-1h74v-450h106v-60h-106v-190h-74v190h-339zM106 250h258v344z" />
<glyph unicode="5" horiz-adv-x="549" d="M139 448h138q96 0 162 -51t66 -142v-71q0 -91 -66 -142.5t-162 -51.5q-95 0 -159.5 51.5t-64.5 142.5v34h70v-34q0 -63 44.5 -99t109.5 -36q66 0 110.5 36t44.5 99v71q0 63 -44.5 98t-110.5 35h-208v312h402v-59h-332v-193z" />
<glyph unicode="6" horiz-adv-x="568" d="M136 398h155q96 0 162 -51.5t66 -141.5v-21q0 -91 -66 -142.5t-162 -51.5t-162 51.5t-66 142.5v332q0 91 66 142.5t162 51.5q95 0 156.5 -51.5t61.5 -142.5v-34h-70v34q0 64 -42 99.5t-106 35.5q-66 0 -110.5 -36t-44.5 -99v-118zM445 184v21q0 63 -44.5 98t-109.5 35 h-155v-154q0 -63 44.5 -99t110.5 -36q65 0 109.5 36t44.5 99z" />
<glyph unicode="7" horiz-adv-x="484" d="M462 700v-59q-261 -310 -261 -641h-77q0 165 70.5 334.5t194.5 306.5h-362v59h435z" />
<glyph unicode="8" horiz-adv-x="556" d="M494 528v-7q0 -58 -31.5 -100.5t-85.5 -63.5q59 -20 94 -63t35 -104v-13q0 -90 -65.5 -138.5t-162.5 -48.5t-162.5 48.5t-65.5 138.5v13q0 62 35 105t95 63q-54 21 -86 64.5t-32 98.5v7q0 87 60.5 134.5t155.5 47.5t155.5 -47.5t60.5 -134.5zM130 521v-5q0 -56 43 -93 t105 -37t105 37t43 93v5q0 62 -42 96t-106 34t-106 -34t-42 -96zM432 182v12q0 60 -45 96.5t-109 36.5t-109.5 -36.5t-45.5 -96.5v-12q0 -63 45 -98t110 -35t109.5 35t44.5 98z" />
<glyph unicode="9" horiz-adv-x="568" d="M49 495v21q0 91 66 142.5t162 51.5t162 -51.5t66 -142.5v-332q0 -91 -66 -142.5t-162 -51.5q-95 0 -156.5 51.5t-61.5 142.5v34h70v-34q0 -64 41.5 -99.5t106.5 -35.5t109.5 36t44.5 99v118h-154q-96 0 -162 51t-66 142zM431 362v154q0 63 -44.5 99t-109.5 36 q-66 0 -110.5 -36t-44.5 -99v-21q0 -63 44.5 -98t110.5 -35h154z" />
<glyph unicode=":" horiz-adv-x="197" d="M67 404v-98h63v98h-63zM67 164v-98h63v98h-63z" />
<glyph unicode=";" horiz-adv-x="231" d="M90 404v-98h63v98h-63zM153 0v98h-63v-98l-37 -137h52z" />
<glyph unicode="&#x3c;" horiz-adv-x="400" d="M126 352v-2l205 -73v-57l-286 105v52l286 106v-56z" />
<glyph unicode="=" horiz-adv-x="474" d="M67 457h340v-56h-340v56zM67 309h340v-56h-340v56z" />
<glyph unicode="&#x3e;" horiz-adv-x="400" d="M274 352v-2l-205 -73v-57l286 105v52l-286 106v-56z" />
<glyph unicode="?" horiz-adv-x="523" d="M36 482v34q0 91 61.5 142.5t155.5 51.5q96 0 162 -51.5t66 -142.5v-42q0 -82 -53.5 -132.5t-136.5 -60.5l-10 -110h-55v168h27q66 0 110.5 35.5t44.5 99.5v42q0 63 -44.5 99t-110.5 36q-64 0 -105.5 -35.5t-41.5 -99.5v-34h-70zM290 98v-98h-73v98h73z" />
<glyph unicode="@" horiz-adv-x="657" d="M61 115v270q0 100 70 162.5t201 62.5q132 0 202 -62.5t70 -162.5v-299h-197l-7 46q-27 -51 -88 -51q-47 0 -71 28t-24 66v124q0 38 24 66t71 28q62 0 90 -53l5 47h37v-266h111v264q0 82 -58 131t-165 49t-164.5 -49t-57.5 -131v-270q0 -82 57.5 -131t164.5 -49v-45 q-131 0 -201 62.5t-70 162.5zM400 190v94q0 31 -20.5 53t-51.5 22q-32 0 -49.5 -19t-17.5 -47v-112q0 -28 17.5 -47t49.5 -19q31 0 51.5 22t20.5 53z" />
<glyph unicode="A" horiz-adv-x="567" d="M321 705l230 -705h-78l-60 192h-261l-60 -192h-78l234 705h73zM171 251h223l-112 355z" />
<glyph unicode="B" horiz-adv-x="582" d="M513 525v-10q0 -111 -106 -153q62 -16 99 -57t37 -108v-16q0 -90 -62 -135.5t-159 -45.5h-245v700h222q93 0 153.5 -43t60.5 -132zM150 385h145q62 0 103 29.5t41 91.5v13q0 62 -41 92t-103 30h-145v-256zM469 184v17q0 62 -42.5 93t-104.5 31h-172v-266h172 q64 0 105.5 30t41.5 95z" />
<glyph unicode="C" horiz-adv-x="568" d="M447 250v-66q0 -65 -46 -100t-112 -35q-67 0 -111 34.5t-44 100.5v332q0 63 44.5 99t110.5 36q65 0 111.5 -36t46.5 -99v-66h70v66q0 91 -66 142.5t-162 51.5t-162 -51.5t-66 -142.5v-332q0 -91 66 -142.5t162 -51.5t162 51.5t66 142.5v66h-70z" />
<glyph unicode="D" horiz-adv-x="593" d="M77 700h231q96 0 160.5 -51.5t64.5 -142.5v-312q0 -91 -64.5 -142.5t-160.5 -51.5h-231v700zM459 194v312q0 63 -43.5 99t-107.5 36h-158v-582h158q65 0 108 34.5t43 100.5z" />
<glyph unicode="E" horiz-adv-x="527" d="M150 59h342v-59h-415v700h415v-59h-342v-256h272v-60h-272v-266z" />
<glyph unicode="F" horiz-adv-x="518" d="M150 0h-73v700h415v-59h-342v-280h272v-59h-272v-302z" />
<glyph unicode="G" horiz-adv-x="572" d="M447 450v66q0 63 -46.5 99t-111.5 36q-66 0 -110.5 -36t-44.5 -99v-332q0 -66 44 -100.5t111 -34.5q66 0 112 35t46 100v104h-163v60h233v-164q0 -91 -66 -142.5t-162 -51.5t-162 51.5t-66 142.5v332q0 91 66 142.5t162 51.5t162 -51.5t66 -142.5v-66h-70z" />
<glyph unicode="H" horiz-adv-x="619" d="M150 0h-73v700h73v-315h319v315h74v-700h-74v325h-319v-325z" />
<glyph unicode="I" horiz-adv-x="227" d="M150 700v-700h-73v700h73z" />
<glyph unicode="J" horiz-adv-x="310" d="M23 59v-59q109 0 161 33t52 130v537h-73v-532q0 -65 -32 -87t-108 -22z" />
<glyph unicode="K" horiz-adv-x="521" d="M150 700v-333l281 333h86l-294 -341l301 -359h-90l-284 343v-343h-73v700h73z" />
<glyph unicode="L" horiz-adv-x="508" d="M152 59h332v-59h-405v700h73v-641z" />
<glyph unicode="M" horiz-adv-x="690" d="M540 0v394q0 60 5 190l-172 -307h-60l-172 312q6 -124 6 -195v-394h-70v700h77l194 -340l191 340h74v-700h-73z" />
<glyph unicode="N" horiz-adv-x="639" d="M489 0l-348 576q6 -112 6 -182v-394h-70v700h77l344 -576q-5 91 -5 182v394h70v-700h-74z" />
<glyph unicode="O" horiz-adv-x="577" d="M61 516v-332q0 -91 66 -142.5t162 -51.5t162 51.5t66 142.5v332q0 91 -66 142.5t-162 51.5t-162 -51.5t-66 -142.5zM443 516v-332q0 -63 -44.5 -99t-109.5 -36q-66 0 -110.5 36t-44.5 99v332q0 63 44.5 99t110.5 36q65 0 109.5 -36t44.5 -99z" />
<glyph unicode="P" horiz-adv-x="554" d="M77 700h221q96 0 160.5 -51.5t64.5 -142.5v-50q0 -91 -64.5 -142.5t-160.5 -51.5h-148v-262h-73v700zM449 456v50q0 63 -43.5 99t-107.5 36h-148v-319h148q65 0 108 34t43 100z" />
<glyph unicode="Q" horiz-adv-x="577" d="M61 184v332q0 91 66 142.5t162 51.5t162 -51.5t66 -142.5v-332q0 -81 -54.5 -132t-137.5 -60v-31q0 -62 32 -82t108 -20v-59q-109 0 -161 33t-52 123v36q-84 10 -137.5 60.5t-53.5 131.5zM443 184v332q0 63 -44.5 99t-109.5 36q-66 0 -110.5 -36t-44.5 -99v-332 q0 -63 44.5 -99t110.5 -36q65 0 109.5 36t44.5 99z" />
<glyph unicode="R" d="M461 0l-28 185q-12 78 -47.5 100.5t-105.5 22.5h-130v-308h-73v700h245q93 0 147 -46.5t54 -134.5v-16q0 -133 -124 -164q85 -26 105 -149l30 -190h-73zM150 368h165q134 0 134 124v24q0 60 -35 92.5t-99 32.5h-165v-273z" />
<glyph unicode="S" horiz-adv-x="548" d="M502 174v10q0 63 -38.5 105.5t-93 65t-109 42.5t-93 52t-38.5 79v8q0 53 40.5 84t103.5 31q65 0 106.5 -35.5t41.5 -99.5v-66h70v66q0 91 -61.5 142.5t-156.5 51.5t-156.5 -46t-61.5 -128v-10q0 -63 38.5 -106t93 -66.5t109.5 -44t93.5 -52.5t38.5 -78v-8q0 -60 -44 -91 t-111 -31q-66 0 -112 35t-46 100v66h-70v-66q0 -91 65.5 -142.5t161.5 -51.5q98 0 163.5 47t65.5 137z" />
<glyph unicode="T" horiz-adv-x="457" d="M23 641v59h411v-59h-165v-641h-74v641h-172z" />
<glyph unicode="U" horiz-adv-x="602" d="M529 700v-516q0 -91 -66 -142.5t-162 -51.5t-162 51.5t-66 142.5v516h74v-516q0 -66 44 -100.5t110 -34.5t110 34.5t44 100.5v516h74z" />
<glyph unicode="V" horiz-adv-x="567" d="M285 89l190 611h78l-234 -705h-73l-230 705h78z" />
<glyph unicode="W" horiz-adv-x="853" d="M205 -5l-186 705h77l146 -594l149 594h76l147 -594l146 594h74l-185 -705h-74l-148 588l-148 -588h-74z" />
<glyph unicode="X" horiz-adv-x="541" d="M7 700h80l184 -285l183 285h80l-224 -345l229 -355h-80l-189 295l-188 -295h-80l229 355z" />
<glyph unicode="Y" horiz-adv-x="551" d="M8 700h78l189 -363l191 363h78l-233 -432v-268h-73v268z" />
<glyph unicode="Z" horiz-adv-x="495" d="M37 641v59h424v-59l-348 -582h353v-59h-439v59l349 582h-339z" />
<glyph unicode="[" horiz-adv-x="301" d="M76 850h195v-45h-143v-910h143v-45h-195v1000z" />
<glyph unicode="\" horiz-adv-x="465" d="M62 700l380 -700h-40l-380 700h40z" />
<glyph unicode="]" horiz-adv-x="301" d="M173 805h-143v45h195v-1000h-195v45h143v910z" />
<glyph unicode="^" horiz-adv-x="484" d="M316 290l-74 102l-74 -102h-55l102 140h54l102 -140h-55z" />
<glyph unicode="_" horiz-adv-x="436" d="M48 -20h340v-56h-340v56z" />
<glyph unicode="`" horiz-adv-x="381" d="M172 690l96 -140h-50l-105 140h59z" />
<glyph unicode="a" horiz-adv-x="472" d="M68 419l-14 50q87 41 175 41q181 0 181 -159v-351h-59l-7 89q-44 -99 -160 -99q-76 0 -113 40.5t-37 92.5v12q0 35 14 62t47 50t95 36t150 14v50q0 107 -118 107q-72 0 -154 -35zM340 190v67q-134 -2 -185 -32t-51 -81v-9q0 -39 26.5 -65t80.5 -26q56 0 92.5 36t36.5 110 z" />
<glyph unicode="b" horiz-adv-x="492" d="M124 0l7 85q24 -49 66.5 -72t84.5 -23q78 0 118 46t40 110v208q0 64 -40 110t-118 46q-41 0 -82.5 -22.5t-65.5 -68.5v301h-70v-720h60zM134 171v158q0 53 35 90t88 37q54 0 83.5 -32t29.5 -81v-186q0 -49 -29.5 -81t-83.5 -32q-53 0 -88 37t-35 90z" />
<glyph unicode="c" horiz-adv-x="425" d="M51 344v-188q0 -166 181 -166q79 0 164 30l-10 54q-74 -30 -140 -30q-125 0 -125 119v174q0 119 125 119q66 0 140 -30l10 54q-85 30 -164 30q-181 0 -181 -166z" />
<glyph unicode="d" horiz-adv-x="492" d="M368 0l-7 85q-24 -49 -67 -72t-84 -23q-78 0 -118.5 46t-40.5 110v208q0 64 40.5 110t118.5 46q40 0 81.5 -22.5t65.5 -68.5v301h70v-720h-59zM357 171v158q0 53 -34.5 90t-88.5 37t-83.5 -32.5t-29.5 -80.5v-186q0 -48 29.5 -80.5t83.5 -32.5t88.5 37t34.5 90z" />
<glyph unicode="e" horiz-adv-x="466" d="M120 237v-73q0 -120 132 -120q84 0 158 30l11 -54q-87 -30 -180 -30q-35 0 -66 8t-60.5 26t-47 53.5t-17.5 84.5v177q0 88 54 129.5t134 41.5q77 0 129 -40.5t52 -128.5v-104h-299zM356 284v61q0 57 -33.5 85t-84.5 28t-84.5 -29t-33.5 -86v-59h236z" />
<glyph unicode="f" horiz-adv-x="302" d="M160 500v105q0 36 15 53.5t52 17.5q25 0 57 -8l5 52q-44 10 -84 10q-56 0 -85.5 -26t-29.5 -92v-112h-67v-49h67v-451h70v451h121v49h-121z" />
<glyph unicode="g" horiz-adv-x="491" d="M368 500l-7 -85q-25 49 -67.5 72t-84.5 23q-78 0 -118 -46.5t-40 -109.5v-188q0 -63 40 -109.5t118 -46.5q41 0 82.5 22.5t65.5 68.5v-142q0 -115 -134 -115q-78 0 -152 30l-10 -54q85 -30 171 -30q28 0 53.5 4t52 15t45.5 29t31.5 49t12.5 72v541h-59zM357 329v-138 q0 -53 -35 -90t-88 -37q-54 0 -83.5 32.5t-29.5 80.5v166q0 48 29.5 80.5t83.5 32.5q53 0 88 -37t35 -90z" />
<glyph unicode="h" horiz-adv-x="502" d="M440 0v354q0 64 -40 110t-118 46q-41 0 -82.5 -22.5t-65.5 -68.5v301h-70v-720h70v329q0 53 35 90t88 37q54 0 83.5 -32t29.5 -81v-343h70z" />
<glyph unicode="i" horiz-adv-x="199" d="M64 704v-131h70v131h-70zM64 500v-500h70v500h-70z" />
<glyph unicode="j" horiz-adv-x="199" d="M64 704v-131h70v131h-70zM64 500v-585q0 -37 -14.5 -54t-52.5 -17q-24 0 -56 8l-5 -52q44 -10 84 -10q56 0 85 26t29 92v592h-70z" />
<glyph unicode="k" horiz-adv-x="469" d="M134 720v-455l243 235h82l-254 -241l261 -259h-86l-246 245v-245h-70v720h70z" />
<glyph unicode="l" horiz-adv-x="199" d="M64 720v-720h70v720h-70z" />
<glyph unicode="m" horiz-adv-x="808" d="M124 500l7 -85q24 49 66.5 72t84.5 23q61 0 98.5 -28.5t51.5 -74.5q24 54 68.5 78.5t87.5 24.5q78 0 118 -46t40 -110v-354h-70v343q0 49 -29.5 81t-83.5 32q-53 0 -88 -37t-35 -90v-329h-70v343q0 49 -29.5 81t-83.5 32q-53 0 -88 -37t-35 -90v-329h-70v500h60z" />
<glyph unicode="n" horiz-adv-x="502" d="M440 0v354q0 64 -40 110t-118 46q-42 0 -84.5 -23t-66.5 -72l-7 85h-60v-500h70v329q0 53 35 90t88 37q54 0 83.5 -32t29.5 -81v-343h70z" />
<glyph unicode="o" horiz-adv-x="476" d="M426 339v-178q0 -88 -54 -129.5t-134 -41.5t-134 41.5t-54 129.5v178q0 88 54 129.5t134 41.5t134 -41.5t54 -129.5zM120 343v-186q0 -57 33.5 -86t84.5 -29t84.5 29t33.5 86v186q0 57 -33.5 86t-84.5 29t-84.5 -29t-33.5 -86z" />
<glyph unicode="p" horiz-adv-x="492" d="M124 500l7 -85q24 49 66.5 72t84.5 23q78 0 118 -46t40 -110v-208q0 -64 -40 -110t-118 -46q-41 0 -82.5 22.5t-65.5 68.5v-281h-70v700h60zM134 329v-158q0 -53 35 -90t88 -37q54 0 83.5 32t29.5 81v186q0 49 -29.5 81t-83.5 32q-53 0 -88 -37t-35 -90z" />
<glyph unicode="q" horiz-adv-x="492" d="M368 500l-7 -85q-24 49 -67 72t-84 23q-78 0 -118.5 -46t-40.5 -110v-208q0 -64 40.5 -110t118.5 -46q40 0 81.5 22.5t65.5 68.5v-281h70v700h-59zM357 329v-158q0 -53 -34.5 -90t-88.5 -37t-83.5 32.5t-29.5 80.5v186q0 48 29.5 80.5t83.5 32.5t88.5 -37t34.5 -90z" />
<glyph unicode="r" horiz-adv-x="306" d="M282 442v68q-43 0 -87.5 -27t-63.5 -82l-7 99h-60v-500h70v319q0 53 41 88t107 35z" />
<glyph unicode="s" horiz-adv-x="440" d="M333 136v-7q0 -38 -30.5 -62.5t-86.5 -24.5q-88 0 -167 32l-12 -54q87 -30 183 -30q80 0 132.5 37t52.5 102v12q0 49 -30 79.5t-72.5 44t-85.5 24.5t-73 31t-30 54v8q0 36 30.5 56t80.5 20q75 0 154 -32l11 54q-87 30 -168 30q-88 0 -134 -36t-46 -91v-12q0 -49 30 -80 t73 -44.5t85.5 -24.5t72.5 -31.5t30 -54.5z" />
<glyph unicode="t" horiz-adv-x="306" d="M162 451v-336q0 -36 15 -53.5t52 -17.5q25 0 57 8l5 -52q-44 -10 -84 -10q-56 0 -85.5 26t-29.5 92v343h-67v49h67v100h70v-100h119v-49h-119z" />
<glyph unicode="u" horiz-adv-x="502" d="M62 500v-354q0 -64 40 -110t118 -46q42 0 84.5 23t66.5 72l7 -85h60v500h-70v-329q0 -53 -35 -90t-88 -37q-54 0 -83.5 32t-29.5 81v343h-70z" />
<glyph unicode="v" horiz-adv-x="450" d="M226 79l138 421h69l-175 -505h-68l-173 505h71z" />
<glyph unicode="w" horiz-adv-x="670" d="M156 -5l-136 505h69l106 -426l104 426h70l106 -424l105 424h69l-136 -505h-75l-103 423l-103 -423h-76z" />
<glyph unicode="x" horiz-adv-x="437" d="M11 0l172 250l-172 250h71l138 -197l138 197h68l-173 -250l173 -250h-68l-138 197l-138 -197h-71z" />
<glyph unicode="y" horiz-adv-x="448" d="M432 500l-199 -573q-27 -81 -62 -109t-92 -28q-30 0 -76 10l6 54q31 -10 65 -10q40 0 59.5 17t35.5 61l27 73h-8l-172 505h71l140 -423l136 423h69z" />
<glyph unicode="z" horiz-adv-x="422" d="M38 451v49h347v-49l-282 -402h292v-49h-368v49l282 402h-271z" />
<glyph unicode="{" horiz-adv-x="289" d="M73 349v2q42 11 62.5 36.5t20.5 81.5q0 31 -5 115.5t-5 114.5q0 35 9 58t27 32.5t34.5 12.5t41.5 3v45q-81 0 -123 -29t-42 -117q0 -31 5 -105.5t5 -103.5q0 -31 -1 -45.5t-7.5 -33t-21.5 -27.5t-40 -13v-52q25 -4 40 -13t21.5 -27.5t7.5 -33t1 -45.5q0 -29 -5 -103.5 t-5 -105.5q0 -88 42 -117t123 -29v45q-25 0 -41.5 3t-34.5 12.5t-27 32.5t-9 58q0 30 5 114.5t5 115.5q0 56 -20.5 81.5t-62.5 36.5z" />
<glyph unicode="|" horiz-adv-x="191" d="M115 850v-1000h-39v1000h39z" />
<glyph unicode="}" horiz-adv-x="289" d="M216 349v2q-42 11 -62.5 36.5t-20.5 81.5q0 31 5 115.5t5 114.5q0 35 -9 58t-27 32.5t-34.5 12.5t-41.5 3v45q81 0 123 -29t42 -117q0 -31 -5 -105.5t-5 -103.5q0 -31 1 -45.5t7.5 -33t21.5 -27.5t40 -13v-52q-25 -4 -40 -13t-21.5 -27.5t-7.5 -33t-1 -45.5 q0 -29 5 -103.5t5 -105.5q0 -88 -42 -117t-123 -29v45q25 0 41.5 3t34.5 12.5t27 32.5t9 58q0 30 -5 114.5t-5 115.5q0 56 20.5 81.5t62.5 36.5z" />
<glyph unicode="~" horiz-adv-x="422" d="M320 406h42q0 -50 -21 -73.5t-53 -23.5q-27 0 -75.5 25.5t-65.5 25.5t-29 -12.5t-12 -38.5h-42q0 50 21 73.5t53 23.5q27 0 75.5 -25.5t65.5 -25.5t29 12.5t12 38.5z" />
<glyph unicode="&#xa1;" horiz-adv-x="212" d="M69 402v98h74v-98h-74zM143 -200v127l-11 395h-52l-11 -395v-127h74z" />
<glyph unicode="&#xa2;" horiz-adv-x="448" d="M388 74l11 -54q-78 -27 -145 -30v-90h-39v90q-162 10 -162 166v188q0 156 162 166v90h39v-90q67 -3 145 -30l-11 -54q-74 30 -139 30q-126 0 -126 -119v-174q0 -119 126 -119q65 0 139 30z" />
<glyph unicode="&#xa3;" horiz-adv-x="583" d="M90 272h-40v59h40v205q0 82 61.5 128t156.5 46t156.5 -51.5t61.5 -142.5v-66h-70v66q0 64 -41.5 99.5t-106.5 35.5q-63 0 -103.5 -31t-40.5 -84v-205h156v-59h-156v-213h366v-59h-480v59h40v213z" />
<glyph unicode="&#xa4;" horiz-adv-x="441" d="M386 260v-20q0 -97 -71 -137l36 -58h-10l-33 54q-39 -19 -87 -19t-87 19l-33 -54h-10l35 58q-70 41 -70 137v20q0 96 70 137l-35 58h10l33 -54q39 19 87 19t87 -19l33 54h10l-36 -58q71 -42 71 -137zM66 260v-20q0 -79 45 -114.5t110 -35.5t110 35.5t45 114.5v20 q0 79 -45 114.5t-110 35.5t-110 -35.5t-45 -114.5z" />
<glyph unicode="&#xa5;" horiz-adv-x="585" d="M254 0v236h-142v55h130l-218 409h79l188 -362l191 362h79l-221 -409h130v-55h-142v-236h-74z" />
<glyph unicode="&#xa6;" horiz-adv-x="193" d="M116 850v-450h-39v450h39zM116 300v-450h-39v450h39z" />
<glyph unicode="&#xa7;" horiz-adv-x="561" d="M62 373v163q0 82 61.5 128t156.5 46t156.5 -51.5t61.5 -142.5v-55h-70v55q0 64 -42 99.5t-106 35.5q-63 0 -103.5 -31t-40.5 -84v-125h363v-38h-437zM499 334v-167q0 -82 -61.5 -128t-156.5 -46t-156.5 51.5t-61.5 142.5v52h70v-52q0 -64 41.5 -99t106.5 -35 q63 0 103.5 30.5t40.5 83.5v128h-363v39h437z" />
<glyph unicode="&#xa8;" horiz-adv-x="509" d="M113 704v-131h70v131h-70zM326 704v-131h70v131h-70z" />
<glyph unicode="&#xa9;" horiz-adv-x="787" d="M43 350q0 152 100.5 256t249.5 104t249.5 -104t100.5 -256q0 -153 -100 -256.5t-250 -103.5t-250 103.5t-100 256.5zM62 350q0 -152 96 -247t235 -95t235.5 95t96.5 247q0 151 -96.5 246t-235.5 95t-235 -95t-96 -246zM486 290v-39q0 -38 -26.5 -58.5t-66.5 -20.5 q-39 0 -65 20.5t-26 58.5v198q0 37 26.5 58t64.5 21q39 0 66 -21t27 -58v-39h45v39q0 55 -40 86t-98 31t-98 -31t-40 -86v-198q0 -55 40 -86t98 -31t98 31t40 86v39h-45z" />
<glyph unicode="&#xaa;" horiz-adv-x="365" d="M86 653l-9 32q50 25 106 25q109 0 109 -96v-210h-37l-5 53q-26 -59 -95 -59q-45 0 -67.5 24.5t-22.5 55.5v7q0 96 183 97v30q0 63 -70 63q-39 0 -92 -22zM248 518v39q-139 -1 -139 -66v-5q0 -23 16 -38.5t47 -15.5q33 0 54.5 21t21.5 65zM65 352h227v-35h-227v35z" />
<glyph unicode="&#xab;" horiz-adv-x="593" d="M97 250v-2l184 -158v-61l-250 194v53l250 195v-61zM355 250v-2l184 -158v-61l-251 194v53l251 195v-61z" />
<glyph unicode="&#xac;" horiz-adv-x="495" d="M72 383h356v-138h-74v82h-282v56z" />
<glyph unicode="&#xad;" horiz-adv-x="444" d="M52 278h340v-56h-340v56z" />
<glyph unicode="&#xae;" horiz-adv-x="787" d="M393 710q149 0 249.5 -104t100.5 -256q0 -153 -100 -256.5t-250 -103.5t-250 103.5t-100 256.5q0 152 100.5 256t249.5 104zM393 8q139 0 235.5 95t96.5 247q0 151 -96.5 246t-235.5 95t-235 -95t-96 -246q0 -152 96 -247t235 -95zM540 451v-10q0 -79 -73 -98 q50 -16 62 -89l18 -114h-47l-17 110q-7 47 -27.5 60t-62.5 13h-76v-183h-47v420h148q57 0 89.5 -28t32.5 -81zM317 361h97q79 0 79 73v15q0 35 -21 54t-58 19h-97v-161z" />
<glyph unicode="&#xaf;" horiz-adv-x="531" d="M113 625h305v-46h-305v46z" />
<glyph unicode="&#xb0;" horiz-adv-x="270" d="M48 623q0 36 25 61.5t62 25.5q36 0 61.5 -25.5t25.5 -61.5q0 -37 -25.5 -62t-61.5 -25q-37 0 -62 25t-25 62zM75 623q0 -26 17 -43t43 -17t43 17t17 43q0 25 -17.5 42.5t-42.5 17.5q-26 0 -43 -17t-17 -43z" />
<glyph unicode="&#xb1;" horiz-adv-x="444" d="M194 401h-146v56h146v146h56v-146h145v-56h-145v-145h-56v145zM395 223v-56h-347v56h347z" />
<glyph unicode="&#xb2;" horiz-adv-x="340" d="M306 716v-6q0 -38 -23.5 -69t-57 -52.5t-67.5 -41.5t-57.5 -44.5t-23.5 -52.5v-5h229v-38h-275v41q0 38 23.5 69.5t57 53.5t67 42.5t57 45t23.5 52.5v5q0 37 -26 58t-64 21t-63 -20.5t-25 -58.5v-20h-44v20q0 55 37 86t95 31t97.5 -31t39.5 -86z" />
<glyph unicode="&#xb3;" horiz-adv-x="343" d="M300 727v-5q0 -69 -68 -94q75 -27 75 -100v-15q0 -54 -39.5 -83t-97.5 -29q-59 0 -99 31t-40 86v20h47v-20q0 -37 26.5 -58t65.5 -21q38 0 64 20.5t26 57.5v13q0 36 -26.5 57.5t-63.5 21.5h-30v37h30q37 0 61.5 20t24.5 53v3q0 36 -24 54.5t-62 18.5t-63 -20.5t-25 -58.5 v-20h-45v20q0 55 37.5 86t95.5 31t94 -27t36 -79z" />
<glyph unicode="&#xb4;" horiz-adv-x="381" d="M209 690l-96 -140h50l105 140h-59z" />
<glyph unicode="&#xb6;" horiz-adv-x="606" d="M63 194v312q0 91 64.5 142.5t160.5 51.5h82v-700h-82q-96 0 -160.5 51.5t-64.5 142.5zM413 700h153v-45h-100v-610h100v-45h-153v700z" />
<glyph unicode="&#xb7;" horiz-adv-x="197" d="M67 311v-99h63v99h-63z" />
<glyph unicode="&#xb8;" horiz-adv-x="433" d="M210 -48h10q100 0 100 -82v-8q0 -44 -28 -68t-72 -24q-64 0 -107 20l9 31q45 -18 91 -18q30 0 46 15.5t16 43.5v5q0 52 -69 52h-27v83h31v-50z" />
<glyph unicode="&#xb9;" horiz-adv-x="271" d="M120 789h-92v38h139v-382h91v-38h-230v38h92v344z" />
<glyph unicode="&#xba;" horiz-adv-x="368" d="M298 607v-106q0 -53 -32.5 -78t-81.5 -25t-81.5 25t-32.5 78v106q0 53 32.5 78t81.5 25t81.5 -25t32.5 -78zM115 610v-112q0 -33 19.5 -50t49.5 -17t49.5 17t19.5 50v112q0 33 -19.5 50t-49.5 17t-49.5 -17t-19.5 -50zM70 352h228v-35h-228v35z" />
<glyph unicode="&#xbb;" horiz-adv-x="593" d="M238 250v-2l-184 -158v-61l251 194v53l-251 195v-61zM496 250v-2l-184 -158v-61l250 194v53l-250 195v-61z" />
<glyph unicode="&#xbc;" horiz-adv-x="761" d="M28 700h139v-382h91v-38h-230v38h92v344h-92v38zM192 0h-40l380 700h40zM429 113v38l203 269h47v-269h64v-38h-64v-113h-47v113h-203zM480 151h152v202z" />
<glyph unicode="&#xbd;" horiz-adv-x="792" d="M28 700h139v-382h91v-38h-230v38h92v344h-92v38zM192 0h-40l380 700h40zM758 309v-6q0 -38 -23.5 -69t-57 -52.5t-67.5 -41.5t-57.5 -44.5t-23.5 -52.5v-5h229v-38h-275v41q0 38 23.5 69.5t57 53.5t67 42.5t57 45t23.5 52.5v5q0 37 -26 58t-64 21t-63 -20.5t-25 -58.5 v-20h-44v20q0 55 37 86t95 31t97.5 -31t39.5 -86z" />
<glyph unicode="&#xbe;" horiz-adv-x="833" d="M307 401v-15q0 -54 -39.5 -83t-97.5 -29q-59 0 -99 31t-40 86v20h47v-20q0 -37 26.5 -58t65.5 -21q38 0 64 20.5t26 57.5v13q0 36 -26.5 57.5t-63.5 21.5h-30v37h30q37 0 61.5 20t24.5 53v3q0 36 -24 54.5t-62 18.5t-63 -20.5t-25 -58.5v-20h-45v20q0 55 37.5 86t95.5 31 t94 -27t36 -79v-5q0 -69 -68 -94q75 -27 75 -100zM264 0h-40l380 700h40zM500 113v38l203 269h47v-269h64v-38h-64v-113h-47v113h-203zM551 151h152v202z" />
<glyph unicode="&#xbf;" horiz-adv-x="518" d="M231 402v98h73v-98h-73zM485 18v-34q0 -91 -61.5 -142.5t-156.5 -51.5q-96 0 -162 51.5t-66 142.5v42q0 82 54 132.5t137 60.5l9 110h56v-168h-28q-65 0 -109.5 -35.5t-44.5 -99.5v-42q0 -63 44.5 -99t109.5 -36t106.5 35.5t41.5 99.5v34h70z" />
<glyph unicode="&#xc0;" horiz-adv-x="567" d="M214 890l96 -140h-50l-105 140h59zM321 705l230 -705h-78l-60 192h-261l-60 -192h-78l234 705h73zM171 251h223l-112 355z" />
<glyph unicode="&#xc1;" horiz-adv-x="567" d="M354 890l-96 -140h50l105 140h-59zM321 705l230 -705h-78l-60 192h-261l-60 -192h-78l234 705h73zM171 251h223l-112 355z" />
<glyph unicode="&#xc2;" horiz-adv-x="567" d="M358 750l-74 102l-74 -102h-55l102 140h54l102 -140h-55zM321 705l230 -705h-78l-60 192h-261l-60 -192h-78l234 705h73zM171 251h223l-112 355z" />
<glyph unicode="&#xc3;" horiz-adv-x="567" d="M390 853h42q0 -50 -21 -73.5t-53 -23.5q-27 0 -75.5 25.5t-65.5 25.5t-29 -12.5t-12 -38.5h-42q0 50 21.5 73.5t53.5 23.5q27 0 75 -25.5t65 -25.5t29 12.5t12 38.5zM321 705l230 -705h-78l-60 192h-261l-60 -192h-78l234 705h73zM171 251h223l-112 355z" />
<glyph unicode="&#xc4;" horiz-adv-x="567" d="M142 904v-131h70v131h-70zM355 904v-131h70v131h-70zM321 705l230 -705h-78l-60 192h-261l-60 -192h-78l234 705h73zM171 251h223l-112 355z" />
<glyph unicode="&#xc5;" horiz-adv-x="567" d="M283 740q-53 0 -83 23t-30 67t30 67t83 23q54 0 84 -23t30 -67t-30 -67t-84 -23zM283 892q-35 0 -53.5 -17t-18.5 -45t18.5 -45t53.5 -17q36 0 54.5 17t18.5 45t-18.5 45t-54.5 17zM321 705l230 -705h-78l-60 192h-261l-60 -192h-78l234 705h73zM171 251h223l-112 355z " />
<glyph unicode="&#xc6;" horiz-adv-x="815" d="M438 59h341v-59h-415v192h-190l-86 -192h-78l316 700h453v-59h-341v-256h272v-60h-272v-266zM200 251h164v365z" />
<glyph unicode="&#xc7;" horiz-adv-x="568" d="M447 450v66q0 63 -46.5 99t-111.5 36q-66 0 -110.5 -36t-44.5 -99v-332q0 -66 44 -100.5t111 -34.5q66 0 112 35t46 100v66h70v-66q0 -87 -61 -138t-152 -56v-40h10q100 0 100 -82v-8q0 -44 -28 -68t-72 -24q-64 0 -107 20l9 31q45 -18 91 -18q30 0 46 15.5t16 43.5v5 q0 52 -69 52h-27v73q-91 5 -151.5 56.5t-60.5 137.5v332q0 91 66 142.5t162 51.5t162 -51.5t66 -142.5v-66h-70z" />
<glyph unicode="&#xc8;" horiz-adv-x="527" d="M204 890l96 -140h-50l-105 140h59zM150 59h342v-59h-415v700h415v-59h-342v-256h272v-60h-272v-266z" />
<glyph unicode="&#xc9;" horiz-adv-x="527" d="M344 890l-96 -140h50l105 140h-59zM150 59h342v-59h-415v700h415v-59h-342v-256h272v-60h-272v-266z" />
<glyph unicode="&#xca;" horiz-adv-x="527" d="M348 750l-74 102l-74 -102h-55l102 140h54l102 -140h-55zM150 59h342v-59h-415v700h415v-59h-342v-256h272v-60h-272v-266z" />
<glyph unicode="&#xcb;" horiz-adv-x="527" d="M133 904v-131h70v131h-70zM346 904v-131h70v131h-70zM150 59h342v-59h-415v700h415v-59h-342v-256h272v-60h-272v-266z" />
<glyph unicode="&#xcc;" horiz-adv-x="227" d="M43 890l96 -140h-50l-105 140h59zM150 700v-700h-73v700h73z" />
<glyph unicode="&#xcd;" horiz-adv-x="227" d="M184 890l-96 -140h50l105 140h-59zM150 700v-700h-73v700h73z" />
<glyph unicode="&#xce;" horiz-adv-x="227" d="M187 750l-74 102l-74 -102h-55l102 140h54l102 -140h-55zM150 700v-700h-73v700h73z" />
<glyph unicode="&#xcf;" horiz-adv-x="227" d="M-28 904v-131h70v131h-70zM185 904v-131h70v131h-70zM150 700v-700h-73v700h73z" />
<glyph unicode="&#xd0;" horiz-adv-x="601" d="M85 700h231q96 0 160.5 -51.5t64.5 -142.5v-312q0 -91 -64.5 -142.5t-160.5 -51.5h-231v325h-79v60h79v315zM467 194v312q0 63 -43.5 99t-107.5 36h-158v-256h100v-60h-100v-266h158q65 0 108 34.5t43 100.5z" />
<glyph unicode="&#xd1;" horiz-adv-x="639" d="M426 853h42q0 -50 -21 -73.5t-53 -23.5q-27 0 -75.5 25.5t-65.5 25.5t-29 -12.5t-12 -38.5h-42q0 50 21.5 73.5t53.5 23.5q27 0 75 -25.5t65 -25.5t29 12.5t12 38.5zM489 0l-348 576q6 -112 6 -182v-394h-70v700h77l344 -576q-5 91 -5 182v394h70v-700h-74z" />
<glyph unicode="&#xd2;" horiz-adv-x="577" d="M219 890l96 -140h-50l-105 140h59zM61 516v-332q0 -91 66 -142.5t162 -51.5t162 51.5t66 142.5v332q0 91 -66 142.5t-162 51.5t-162 -51.5t-66 -142.5zM443 516v-332q0 -63 -44.5 -99t-109.5 -36q-66 0 -110.5 36t-44.5 99v332q0 63 44.5 99t110.5 36q65 0 109.5 -36 t44.5 -99z" />
<glyph unicode="&#xd3;" horiz-adv-x="577" d="M359 890l-96 -140h50l105 140h-59zM61 516v-332q0 -91 66 -142.5t162 -51.5t162 51.5t66 142.5v332q0 91 -66 142.5t-162 51.5t-162 -51.5t-66 -142.5zM443 516v-332q0 -63 -44.5 -99t-109.5 -36q-66 0 -110.5 36t-44.5 99v332q0 63 44.5 99t110.5 36q65 0 109.5 -36 t44.5 -99z" />
<glyph unicode="&#xd4;" horiz-adv-x="577" d="M363 750l-74 102l-74 -102h-55l102 140h54l102 -140h-55zM61 516v-332q0 -91 66 -142.5t162 -51.5t162 51.5t66 142.5v332q0 91 -66 142.5t-162 51.5t-162 -51.5t-66 -142.5zM443 516v-332q0 -63 -44.5 -99t-109.5 -36q-66 0 -110.5 36t-44.5 99v332q0 63 44.5 99 t110.5 36q65 0 109.5 -36t44.5 -99z" />
<glyph unicode="&#xd5;" horiz-adv-x="577" d="M395 853h42q0 -50 -21 -73.5t-53 -23.5q-27 0 -75.5 25.5t-65.5 25.5t-29 -12.5t-12 -38.5h-42q0 50 21.5 73.5t53.5 23.5q27 0 75 -25.5t65 -25.5t29 12.5t12 38.5zM61 516v-332q0 -91 66 -142.5t162 -51.5t162 51.5t66 142.5v332q0 91 -66 142.5t-162 51.5t-162 -51.5 t-66 -142.5zM443 516v-332q0 -63 -44.5 -99t-109.5 -36q-66 0 -110.5 36t-44.5 99v332q0 63 44.5 99t110.5 36q65 0 109.5 -36t44.5 -99z" />
<glyph unicode="&#xd6;" horiz-adv-x="577" d="M147 904v-131h70v131h-70zM360 904v-131h70v131h-70zM61 516v-332q0 -91 66 -142.5t162 -51.5t162 51.5t66 142.5v332q0 91 -66 142.5t-162 51.5t-162 -51.5t-66 -142.5zM443 516v-332q0 -63 -44.5 -99t-109.5 -36q-66 0 -110.5 36t-44.5 99v332q0 63 44.5 99t110.5 36 q65 0 109.5 -36t44.5 -99z" />
<glyph unicode="&#xd7;" horiz-adv-x="446" d="M47 219l313 312l39 -40l-313 -312z" />
<glyph unicode="&#xd8;" horiz-adv-x="577" d="M517 720l-45 -81q45 -51 45 -123v-332q0 -91 -66 -142.5t-162 -51.5q-90 0 -154 45l-31 -55h-40l44 79q-47 52 -47 125v332q0 91 66 142.5t162 51.5q94 0 156 -47l32 57h40zM134 516v-332q0 -33 12 -57l265 476q-43 48 -122 48q-66 0 -110.5 -36t-44.5 -99zM443 184v332 q0 28 -10 53l-265 -474q44 -46 121 -46q65 0 109.5 36t44.5 99z" />
<glyph unicode="&#xd9;" horiz-adv-x="602" d="M231 890l96 -140h-50l-105 140h59zM529 700v-516q0 -91 -66 -142.5t-162 -51.5t-162 51.5t-66 142.5v516h74v-516q0 -66 44 -100.5t110 -34.5t110 34.5t44 100.5v516h74z" />
<glyph unicode="&#xda;" horiz-adv-x="602" d="M371 890l-96 -140h50l105 140h-59zM529 700v-516q0 -91 -66 -142.5t-162 -51.5t-162 51.5t-66 142.5v516h74v-516q0 -66 44 -100.5t110 -34.5t110 34.5t44 100.5v516h74z" />
<glyph unicode="&#xdb;" horiz-adv-x="602" d="M375 750l-74 102l-74 -102h-55l102 140h54l102 -140h-55zM529 700v-516q0 -91 -66 -142.5t-162 -51.5t-162 51.5t-66 142.5v516h74v-516q0 -66 44 -100.5t110 -34.5t110 34.5t44 100.5v516h74z" />
<glyph unicode="&#xdc;" horiz-adv-x="602" d="M160 904v-131h70v131h-70zM373 904v-131h70v131h-70zM529 700v-516q0 -91 -66 -142.5t-162 -51.5t-162 51.5t-66 142.5v516h74v-516q0 -66 44 -100.5t110 -34.5t110 34.5t44 100.5v516h74z" />
<glyph unicode="&#xdd;" horiz-adv-x="551" d="M346 890l-96 -140h50l105 140h-59zM8 700h78l189 -363l191 363h78l-233 -432v-268h-73v268z" />
<glyph unicode="&#xde;" horiz-adv-x="554" d="M150 574h148q96 0 160.5 -51t64.5 -143v-49q0 -92 -64.5 -143t-160.5 -51h-148v-137h-73v700h73v-126zM449 331v49q0 64 -43.5 99.5t-107.5 35.5h-148v-319h148q65 0 108 34.5t43 100.5z" />
<glyph unicode="&#xdf;" horiz-adv-x="557" d="M470 559v-35q0 -106 -92 -146q64 -14 103 -56t39 -112v-29q0 -90 -60.5 -135.5t-150.5 -45.5h-99v59h96q64 0 105.5 30t41.5 95v30q0 62 -42 93t-105 31h-96v60h46q61 0 102.5 29.5t41.5 91.5v44q0 57 -34 86t-86 29t-86 -29t-34 -86v-563h-70v451h-67v49h67v59 q0 89 54 130t136 41t136 -41t54 -130z" />
<glyph unicode="&#xe0;" horiz-adv-x="472" d="M159 690l96 -140h-50l-105 140h59zM68 419l-14 50q87 41 175 41q181 0 181 -159v-351h-59l-7 89q-44 -99 -160 -99q-76 0 -113 40.5t-37 92.5v12q0 35 14 62t47 50t95 36t150 14v50q0 107 -118 107q-72 0 -154 -35zM340 190v67q-134 -2 -185 -32t-51 -81v-9 q0 -39 26.5 -65t80.5 -26q56 0 92.5 36t36.5 110z" />
<glyph unicode="&#xe1;" horiz-adv-x="472" d="M299 690l-96 -140h50l105 140h-59zM68 419l-14 50q87 41 175 41q181 0 181 -159v-351h-59l-7 89q-44 -99 -160 -99q-76 0 -113 40.5t-37 92.5v12q0 35 14 62t47 50t95 36t150 14v50q0 107 -118 107q-72 0 -154 -35zM340 190v67q-134 -2 -185 -32t-51 -81v-9 q0 -39 26.5 -65t80.5 -26q56 0 92.5 36t36.5 110z" />
<glyph unicode="&#xe2;" horiz-adv-x="472" d="M303 550l-74 102l-74 -102h-55l102 140h54l102 -140h-55zM68 419l-14 50q87 41 175 41q181 0 181 -159v-351h-59l-7 89q-44 -99 -160 -99q-76 0 -113 40.5t-37 92.5v12q0 35 14 62t47 50t95 36t150 14v50q0 107 -118 107q-72 0 -154 -35zM340 190v67q-134 -2 -185 -32 t-51 -81v-9q0 -39 26.5 -65t80.5 -26q56 0 92.5 36t36.5 110z" />
<glyph unicode="&#xe3;" horiz-adv-x="472" d="M336 653h42q0 -50 -21 -73.5t-53 -23.5q-27 0 -75.5 25.5t-65.5 25.5t-29 -12.5t-12 -38.5h-42q0 50 21.5 73.5t53.5 23.5q27 0 75 -25.5t65 -25.5t29 12.5t12 38.5zM68 419l-14 50q87 41 175 41q181 0 181 -159v-351h-59l-7 89q-44 -99 -160 -99q-76 0 -113 40.5 t-37 92.5v12q0 35 14 62t47 50t95 36t150 14v50q0 107 -118 107q-72 0 -154 -35zM340 190v67q-134 -2 -185 -32t-51 -81v-9q0 -39 26.5 -65t80.5 -26q56 0 92.5 36t36.5 110z" />
<glyph unicode="&#xe4;" horiz-adv-x="472" d="M87 704v-131h70v131h-70zM300 704v-131h70v131h-70zM68 419l-14 50q87 41 175 41q181 0 181 -159v-351h-59l-7 89q-44 -99 -160 -99q-76 0 -113 40.5t-37 92.5v12q0 35 14 62t47 50t95 36t150 14v50q0 107 -118 107q-72 0 -154 -35zM340 190v67q-134 -2 -185 -32t-51 -81 v-9q0 -39 26.5 -65t80.5 -26q56 0 92.5 36t36.5 110z" />
<glyph unicode="&#xe5;" horiz-adv-x="472" d="M228 540q-54 0 -83.5 23t-29.5 67t29.5 67t83.5 23t84 -23t30 -67t-30 -67t-84 -23zM228 692q-35 0 -53.5 -17t-18.5 -45t18.5 -45t53.5 -17q36 0 54.5 17t18.5 45t-18.5 45t-54.5 17zM68 419l-14 50q87 41 175 41q181 0 181 -159v-351h-59l-7 89q-44 -99 -160 -99 q-76 0 -113 40.5t-37 92.5v12q0 35 14 62t47 50t95 36t150 14v50q0 107 -118 107q-72 0 -154 -35zM340 190v67q-134 -2 -185 -32t-51 -81v-9q0 -39 26.5 -65t80.5 -26q56 0 92.5 36t36.5 110z" />
<glyph unicode="&#xe6;" horiz-adv-x="755" d="M700 74l11 -54q-87 -30 -180 -30q-62 0 -113 25t-69 82q-13 -32 -34.5 -54.5t-45.5 -33.5t-44.5 -15t-40.5 -4q-76 0 -113 40.5t-37 92.5v9q0 35 14 62t47 50t95 36t150 14v53q0 107 -118 107q-72 0 -154 -35l-14 50q87 41 175 41q107 0 151 -55q51 55 148 55 q77 0 129 -40.5t52 -128.5v-87h-299v-90q0 -120 132 -120q84 0 158 30zM646 294v51q0 57 -33.5 85t-84.5 28t-84.5 -29t-33.5 -86v-49h236zM340 190v64q-134 -2 -185 -32t-51 -81v-6q0 -39 26.5 -65t80.5 -26q56 0 92.5 36t36.5 110z" />
<glyph unicode="&#xe7;" horiz-adv-x="425" d="M386 74l10 -54q-81 -28 -149 -30v-40h10q100 0 100 -82v-8q0 -44 -28 -68t-72 -24q-65 0 -107 20l9 31q45 -18 91 -18q30 0 46 15.5t16 43.5v5q0 52 -69 52h-27v73q-165 8 -165 166v188q0 166 181 166q79 0 164 -30l-10 -54q-74 30 -140 30q-125 0 -125 -119v-174 q0 -119 125 -119q66 0 140 30z" />
<glyph unicode="&#xe8;" horiz-adv-x="466" d="M168 690l96 -140h-50l-105 140h59zM120 237v-73q0 -120 132 -120q84 0 158 30l11 -54q-87 -30 -180 -30q-35 0 -66 8t-60.5 26t-47 53.5t-17.5 84.5v177q0 88 54 129.5t134 41.5q77 0 129 -40.5t52 -128.5v-104h-299zM356 284v61q0 57 -33.5 85t-84.5 28t-84.5 -29 t-33.5 -86v-59h236z" />
<glyph unicode="&#xe9;" horiz-adv-x="466" d="M308 690l-96 -140h50l105 140h-59zM120 237v-73q0 -120 132 -120q84 0 158 30l11 -54q-87 -30 -180 -30q-35 0 -66 8t-60.5 26t-47 53.5t-17.5 84.5v177q0 88 54 129.5t134 41.5q77 0 129 -40.5t52 -128.5v-104h-299zM356 284v61q0 57 -33.5 85t-84.5 28t-84.5 -29 t-33.5 -86v-59h236z" />
<glyph unicode="&#xea;" horiz-adv-x="466" d="M312 550l-74 102l-74 -102h-55l102 140h54l102 -140h-55zM120 237v-73q0 -120 132 -120q84 0 158 30l11 -54q-87 -30 -180 -30q-35 0 -66 8t-60.5 26t-47 53.5t-17.5 84.5v177q0 88 54 129.5t134 41.5q77 0 129 -40.5t52 -128.5v-104h-299zM356 284v61q0 57 -33.5 85 t-84.5 28t-84.5 -29t-33.5 -86v-59h236z" />
<glyph unicode="&#xeb;" horiz-adv-x="466" d="M97 704v-131h70v131h-70zM310 704v-131h70v131h-70zM120 237v-73q0 -120 132 -120q84 0 158 30l11 -54q-87 -30 -180 -30q-35 0 -66 8t-60.5 26t-47 53.5t-17.5 84.5v177q0 88 54 129.5t134 41.5q77 0 129 -40.5t52 -128.5v-104h-299zM356 284v61q0 57 -33.5 85t-84.5 28 t-84.5 -29t-33.5 -86v-59h236z" />
<glyph unicode="&#xec;" horiz-adv-x="199" d="M29 690l96 -140h-50l-105 140h59zM64 500v-500h70v500h-70z" />
<glyph unicode="&#xed;" horiz-adv-x="199" d="M170 690l-96 -140h50l105 140h-59zM64 500v-500h70v500h-70z" />
<glyph unicode="&#xee;" horiz-adv-x="199" d="M173 550l-74 102l-74 -102h-55l102 140h54l102 -140h-55zM64 500v-500h70v500h-70z" />
<glyph unicode="&#xef;" horiz-adv-x="199" d="M-42 704v-131h70v131h-70zM171 704v-131h70v131h-70zM64 500v-500h70v500h-70z" />
<glyph unicode="&#xf0;" horiz-adv-x="544" d="M275 800v-90q91 -5 151.5 -56.5t60.5 -137.5v-332q0 -91 -66 -142.5t-162 -51.5t-162 51.5t-66 142.5v21q0 90 66 141.5t162 51.5h155v118q0 59 -39.5 94.5t-99.5 39.5v-89h-40v90h-160v59h160v90h40zM105 205v-21q0 -63 44.5 -99t109.5 -36q66 0 110.5 36t44.5 99v154 h-155q-65 0 -109.5 -35t-44.5 -98z" />
<glyph unicode="&#xf1;" horiz-adv-x="502" d="M362 653h42q0 -50 -21 -73.5t-53 -23.5q-27 0 -75.5 25.5t-65.5 25.5t-29 -12.5t-12 -38.5h-42q0 50 21.5 73.5t53.5 23.5q27 0 75 -25.5t65 -25.5t29 12.5t12 38.5zM440 0v354q0 64 -40 110t-118 46q-42 0 -84.5 -23t-66.5 -72l-7 85h-60v-500h70v329q0 53 35 90t88 37 q54 0 83.5 -32t29.5 -81v-343h70z" />
<glyph unicode="&#xf2;" horiz-adv-x="476" d="M168 690l96 -140h-50l-105 140h59zM426 339v-178q0 -88 -54 -129.5t-134 -41.5t-134 41.5t-54 129.5v178q0 88 54 129.5t134 41.5t134 -41.5t54 -129.5zM120 343v-186q0 -57 33.5 -86t84.5 -29t84.5 29t33.5 86v186q0 57 -33.5 86t-84.5 29t-84.5 -29t-33.5 -86z" />
<glyph unicode="&#xf3;" horiz-adv-x="476" d="M308 690l-96 -140h50l105 140h-59zM426 339v-178q0 -88 -54 -129.5t-134 -41.5t-134 41.5t-54 129.5v178q0 88 54 129.5t134 41.5t134 -41.5t54 -129.5zM120 343v-186q0 -57 33.5 -86t84.5 -29t84.5 29t33.5 86v186q0 57 -33.5 86t-84.5 29t-84.5 -29t-33.5 -86z" />
<glyph unicode="&#xf4;" horiz-adv-x="476" d="M312 550l-74 102l-74 -102h-55l102 140h54l102 -140h-55zM426 339v-178q0 -88 -54 -129.5t-134 -41.5t-134 41.5t-54 129.5v178q0 88 54 129.5t134 41.5t134 -41.5t54 -129.5zM120 343v-186q0 -57 33.5 -86t84.5 -29t84.5 29t33.5 86v186q0 57 -33.5 86t-84.5 29 t-84.5 -29t-33.5 -86z" />
<glyph unicode="&#xf5;" horiz-adv-x="476" d="M345 653h42q0 -50 -21 -73.5t-53 -23.5q-27 0 -75.5 25.5t-65.5 25.5t-29 -12.5t-12 -38.5h-42q0 50 21.5 73.5t53.5 23.5q27 0 75 -25.5t65 -25.5t29 12.5t12 38.5zM426 339v-178q0 -88 -54 -129.5t-134 -41.5t-134 41.5t-54 129.5v178q0 88 54 129.5t134 41.5 t134 -41.5t54 -129.5zM120 343v-186q0 -57 33.5 -86t84.5 -29t84.5 29t33.5 86v186q0 57 -33.5 86t-84.5 29t-84.5 -29t-33.5 -86z" />
<glyph unicode="&#xf6;" horiz-adv-x="476" d="M97 704v-131h70v131h-70zM310 704v-131h70v131h-70zM426 339v-178q0 -88 -54 -129.5t-134 -41.5t-134 41.5t-54 129.5v178q0 88 54 129.5t134 41.5t134 -41.5t54 -129.5zM120 343v-186q0 -57 33.5 -86t84.5 -29t84.5 29t33.5 86v186q0 57 -33.5 86t-84.5 29t-84.5 -29 t-33.5 -86z" />
<glyph unicode="&#xf7;" horiz-adv-x="477" d="M207 537v-98h63v98h-63zM61 383h354v-56h-354v56zM207 271v-98h63v98h-63z" />
<glyph unicode="&#xf8;" horiz-adv-x="476" d="M426 520l-40 -64q40 -43 40 -117v-178q0 -88 -54 -129.5t-134 -41.5q-75 0 -122 32l-26 -42h-40l40 64q-40 43 -40 117v178q0 88 54 129.5t134 41.5q75 0 122 -32l26 42h40zM120 343v-186q0 -29 9 -50l198 318q-32 33 -89 33q-51 0 -84.5 -29t-33.5 -86zM356 157v186 q0 29 -9 50l-198 -318q32 -33 89 -33q51 0 84.5 29t33.5 86z" />
<glyph unicode="&#xf9;" horiz-adv-x="502" d="M181 690l96 -140h-50l-105 140h59zM62 500v-354q0 -64 40 -110t118 -46q42 0 84.5 23t66.5 72l7 -85h60v500h-70v-329q0 -53 -35 -90t-88 -37q-54 0 -83.5 32t-29.5 81v343h-70z" />
<glyph unicode="&#xfa;" horiz-adv-x="502" d="M322 690l-96 -140h50l105 140h-59zM62 500v-354q0 -64 40 -110t118 -46q42 0 84.5 23t66.5 72l7 -85h60v500h-70v-329q0 -53 -35 -90t-88 -37q-54 0 -83.5 32t-29.5 81v343h-70z" />
<glyph unicode="&#xfb;" horiz-adv-x="502" d="M325 550l-74 102l-74 -102h-55l102 140h54l102 -140h-55zM62 500v-354q0 -64 40 -110t118 -46q42 0 84.5 23t66.5 72l7 -85h60v500h-70v-329q0 -53 -35 -90t-88 -37q-54 0 -83.5 32t-29.5 81v343h-70z" />
<glyph unicode="&#xfc;" horiz-adv-x="502" d="M110 704v-131h70v131h-70zM323 704v-131h70v131h-70zM62 500v-354q0 -64 40 -110t118 -46q42 0 84.5 23t66.5 72l7 -85h60v500h-70v-329q0 -53 -35 -90t-88 -37q-54 0 -83.5 32t-29.5 81v343h-70z" />
<glyph unicode="&#xfd;" horiz-adv-x="448" d="M294 690l-96 -140h50l105 140h-59zM432 500l-199 -573q-27 -81 -62 -109t-92 -28q-30 0 -76 10l6 54q31 -10 65 -10q40 0 59.5 17t35.5 61l27 73h-8l-172 505h71l140 -423l136 423h69z" />
<glyph unicode="&#xfe;" horiz-adv-x="492" d="M134 720v-301q25 46 66 68.5t82 22.5q78 0 118 -46t40 -110v-208q0 -64 -40 -110t-118 -46q-41 0 -82.5 22.5t-65.5 68.5v-281h-70v920h70zM134 329v-158q0 -53 35 -90t88 -37q54 0 83.5 32t29.5 81v186q0 49 -29.5 81t-83.5 32q-53 0 -88 -37t-35 -90z" />
<glyph unicode="&#xff;" horiz-adv-x="448" d="M83 704v-131h70v131h-70zM296 704v-131h70v131h-70zM432 500l-199 -573q-27 -81 -62 -109t-92 -28q-30 0 -76 10l6 54q31 -10 65 -10q40 0 59.5 17t35.5 61l27 73h-8l-172 505h71l140 -423l136 423h69z" />
<glyph unicode="&#x100;" horiz-adv-x="567" d="M131 825h305v-46h-305v46zM321 705l230 -705h-78l-60 192h-261l-60 -192h-78l234 705h73zM171 251h223l-112 355z" />
<glyph unicode="&#x101;" horiz-adv-x="472" d="M77 625h305v-46h-305v46zM68 419l-14 50q87 41 175 41q181 0 181 -159v-351h-59l-7 89q-44 -99 -160 -99q-76 0 -113 40.5t-37 92.5v12q0 35 14 62t47 50t95 36t150 14v50q0 107 -118 107q-72 0 -154 -35zM340 190v67q-134 -2 -185 -32t-51 -81v-9q0 -39 26.5 -65 t80.5 -26q56 0 92.5 36t36.5 110z" />
<glyph unicode="&#x102;" horiz-adv-x="567" d="M191 890h-34q0 -65 35 -102.5t92 -37.5t92 37.5t35 102.5h-35q0 -40 -22.5 -69.5t-69.5 -29.5q-48 0 -70.5 29.5t-22.5 69.5zM321 705l230 -705h-78l-60 192h-261l-60 -192h-78l234 705h73zM171 251h223l-112 355z" />
<glyph unicode="&#x103;" horiz-adv-x="472" d="M136 690h-34q0 -65 35 -102.5t92 -37.5t92 37.5t35 102.5h-35q0 -40 -22.5 -69.5t-69.5 -29.5q-48 0 -70.5 29.5t-22.5 69.5zM68 419l-14 50q87 41 175 41q181 0 181 -159v-351h-59l-7 89q-44 -99 -160 -99q-76 0 -113 40.5t-37 92.5v12q0 35 14 62t47 50t95 36t150 14 v50q0 107 -118 107q-72 0 -154 -35zM340 190v67q-134 -2 -185 -32t-51 -81v-9q0 -39 26.5 -65t80.5 -26q56 0 92.5 36t36.5 110z" />
<glyph unicode="&#x104;" horiz-adv-x="567" d="M573 -150l8 -26q-37 -29 -87 -29q-34 0 -58 18t-24 51q0 36 24 73t62 63h-25l-60 192h-261l-60 -192h-78l234 705h73l230 -705h-18q-28 -23 -49.5 -58t-21.5 -62q0 -50 50 -50q26 0 61 20zM171 251h223l-112 355z" />
<glyph unicode="&#x105;" horiz-adv-x="472" d="M439 -150l8 -26q-37 -29 -87 -29q-34 0 -58 18t-24 51q0 36 24 73t62 63h-13l-7 89q-44 -99 -160 -99q-76 0 -113 40.5t-37 92.5v12q0 35 14 62t47 50t95 36t150 14v50q0 107 -118 107q-72 0 -154 -35l-14 50q87 41 175 41q181 0 181 -159v-351h-11q-28 -23 -49.5 -58 t-21.5 -62q0 -50 50 -50q26 0 61 20zM340 190v67q-134 -2 -185 -32t-51 -81v-9q0 -39 26.5 -65t80.5 -26q56 0 92.5 36t36.5 110z" />
<glyph unicode="&#x106;" horiz-adv-x="568" d="M359 890l-96 -140h50l105 140h-59zM447 250v-66q0 -65 -46 -100t-112 -35q-67 0 -111 34.5t-44 100.5v332q0 63 44.5 99t110.5 36q65 0 111.5 -36t46.5 -99v-66h70v66q0 91 -66 142.5t-162 51.5t-162 -51.5t-66 -142.5v-332q0 -91 66 -142.5t162 -51.5t162 51.5t66 142.5 v66h-70z" />
<glyph unicode="&#x107;" horiz-adv-x="425" d="M300 690l-96 -140h50l105 140h-59zM51 344v-188q0 -166 181 -166q79 0 164 30l-10 54q-74 -30 -140 -30q-125 0 -125 119v174q0 119 125 119q66 0 140 -30l10 54q-85 30 -164 30q-181 0 -181 -166z" />
<glyph unicode="&#x108;" horiz-adv-x="568" d="M363 750l-74 102l-74 -102h-55l102 140h54l102 -140h-55zM447 250v-66q0 -65 -46 -100t-112 -35q-67 0 -111 34.5t-44 100.5v332q0 63 44.5 99t110.5 36q65 0 111.5 -36t46.5 -99v-66h70v66q0 91 -66 142.5t-162 51.5t-162 -51.5t-66 -142.5v-332q0 -91 66 -142.5 t162 -51.5t162 51.5t66 142.5v66h-70z" />
<glyph unicode="&#x109;" horiz-adv-x="425" d="M304 550l-74 102l-74 -102h-55l102 140h54l102 -140h-55zM51 344v-188q0 -166 181 -166q79 0 164 30l-10 54q-74 -30 -140 -30q-125 0 -125 119v174q0 119 125 119q66 0 140 -30l10 54q-85 30 -164 30q-181 0 -181 -166z" />
<glyph unicode="&#x10a;" horiz-adv-x="568" d="M254 904v-131h70v131h-70zM447 250v-66q0 -65 -46 -100t-112 -35q-67 0 -111 34.5t-44 100.5v332q0 63 44.5 99t110.5 36q65 0 111.5 -36t46.5 -99v-66h70v66q0 91 -66 142.5t-162 51.5t-162 -51.5t-66 -142.5v-332q0 -91 66 -142.5t162 -51.5t162 51.5t66 142.5v66h-70z " />
<glyph unicode="&#x10b;" horiz-adv-x="425" d="M195 704v-131h70v131h-70zM51 344v-188q0 -166 181 -166q79 0 164 30l-10 54q-74 -30 -140 -30q-125 0 -125 119v174q0 119 125 119q66 0 140 -30l10 54q-85 30 -164 30q-181 0 -181 -166z" />
<glyph unicode="&#x10c;" horiz-adv-x="568" d="M363 890l-74 -102l-74 102h-55l102 -140h54l102 140h-55zM447 250v-66q0 -65 -46 -100t-112 -35q-67 0 -111 34.5t-44 100.5v332q0 63 44.5 99t110.5 36q65 0 111.5 -36t46.5 -99v-66h70v66q0 91 -66 142.5t-162 51.5t-162 -51.5t-66 -142.5v-332q0 -91 66 -142.5 t162 -51.5t162 51.5t66 142.5v66h-70z" />
<glyph unicode="&#x10d;" horiz-adv-x="425" d="M304 690l-74 -102l-74 102h-55l102 -140h54l102 140h-55zM51 344v-188q0 -166 181 -166q79 0 164 30l-10 54q-74 -30 -140 -30q-125 0 -125 119v174q0 119 125 119q66 0 140 -30l10 54q-85 30 -164 30q-181 0 -181 -166z" />
<glyph unicode="&#x10e;" horiz-adv-x="593" d="M373 890l-74 -102l-74 102h-55l102 -140h54l102 140h-55zM77 700h231q96 0 160.5 -51.5t64.5 -142.5v-312q0 -91 -64.5 -142.5t-160.5 -51.5h-231v700zM459 194v312q0 63 -43.5 99t-107.5 36h-158v-582h158q65 0 108 34.5t43 100.5z" />
<glyph unicode="&#x10f;" horiz-adv-x="587" d="M368 0l-7 85q-24 -49 -67 -72t-84 -23q-78 0 -118.5 46t-40.5 110v208q0 64 40.5 110t118.5 46q40 0 81.5 -22.5t65.5 -68.5v301h70v-720h-59zM558 512h-35l-21 113v95h56v-208zM357 171v158q0 53 -34.5 90t-88.5 37t-83.5 -32.5t-29.5 -80.5v-186q0 -48 29.5 -80.5 t83.5 -32.5t88.5 37t34.5 90z" />
<glyph unicode="&#x110;" horiz-adv-x="601" d="M85 700h231q96 0 160.5 -51.5t64.5 -142.5v-312q0 -91 -64.5 -142.5t-160.5 -51.5h-231v325h-79v60h79v315zM467 194v312q0 63 -43.5 99t-107.5 36h-158v-256h100v-60h-100v-266h158q65 0 108 34.5t43 100.5z" />
<glyph unicode="&#x111;" horiz-adv-x="492" d="M368 0l-7 85q-24 -49 -67 -72t-84 -23q-78 0 -118.5 46t-40.5 110v208q0 64 40.5 110t118.5 46q40 0 81.5 -22.5t65.5 -68.5v160h-80v46h80v95h70v-95h77v-46h-77v-579h-59zM357 171v158q0 53 -34.5 90t-88.5 37t-83.5 -32.5t-29.5 -80.5v-186q0 -48 29.5 -80.5 t83.5 -32.5t88.5 37t34.5 90z" />
<glyph unicode="&#x112;" horiz-adv-x="527" d="M122 825h305v-46h-305v46zM150 59h342v-59h-415v700h415v-59h-342v-256h272v-60h-272v-266z" />
<glyph unicode="&#x113;" horiz-adv-x="466" d="M86 625h305v-46h-305v46zM120 237v-73q0 -120 132 -120q84 0 158 30l11 -54q-87 -30 -180 -30q-35 0 -66 8t-60.5 26t-47 53.5t-17.5 84.5v177q0 88 54 129.5t134 41.5q77 0 129 -40.5t52 -128.5v-104h-299zM356 284v61q0 57 -33.5 85t-84.5 28t-84.5 -29t-33.5 -86v-59 h236z" />
<glyph unicode="&#x114;" horiz-adv-x="527" d="M175 890h-34q0 -65 35 -102.5t92 -37.5t92 37.5t35 102.5h-35q0 -40 -22.5 -69.5t-69.5 -29.5q-48 0 -70.5 29.5t-22.5 69.5zM150 59h342v-59h-415v700h415v-59h-342v-256h272v-60h-272v-266z" />
<glyph unicode="&#x115;" horiz-adv-x="466" d="M145 690h-34q0 -65 35 -102.5t92 -37.5t92 37.5t35 102.5h-35q0 -40 -22.5 -69.5t-69.5 -29.5q-48 0 -70.5 29.5t-22.5 69.5zM120 237v-73q0 -120 132 -120q84 0 158 30l11 -54q-87 -30 -180 -30q-35 0 -66 8t-60.5 26t-47 53.5t-17.5 84.5v177q0 88 54 129.5t134 41.5 q77 0 129 -40.5t52 -128.5v-104h-299zM356 284v61q0 57 -33.5 85t-84.5 28t-84.5 -29t-33.5 -86v-59h236z" />
<glyph unicode="&#x116;" horiz-adv-x="527" d="M239 904v-131h70v131h-70zM150 59h342v-59h-415v700h415v-59h-342v-256h272v-60h-272v-266z" />
<glyph unicode="&#x117;" horiz-adv-x="466" d="M203 704v-131h70v131h-70zM120 237v-73q0 -120 132 -120q84 0 158 30l11 -54q-87 -30 -180 -30q-35 0 -66 8t-60.5 26t-47 53.5t-17.5 84.5v177q0 88 54 129.5t134 41.5q77 0 129 -40.5t52 -128.5v-104h-299zM356 284v61q0 57 -33.5 85t-84.5 28t-84.5 -29t-33.5 -86v-59 h236z" />
<glyph unicode="&#x118;" horiz-adv-x="527" d="M532 -150l8 -26q-37 -29 -87 -29q-34 0 -58 18t-24 51q0 36 24 73t62 63h-380v700h415v-59h-342v-256h272v-60h-272v-266h342v-59q-28 -23 -49.5 -58t-21.5 -62q0 -50 50 -50q26 0 61 20z" />
<glyph unicode="&#x119;" horiz-adv-x="466" d="M461 -130l8 -26q-37 -29 -87 -29q-34 0 -58 18t-24 51q0 64 66 120q-68 -14 -125 -14q-35 0 -66 8t-60.5 26t-47 53.5t-17.5 84.5v177q0 88 54 129.5t134 41.5q77 0 129 -40.5t52 -128.5v-104h-299v-73q0 -120 132 -120q84 0 158 30l11 -54q-28 -23 -49.5 -58t-21.5 -62 q0 -50 50 -50q26 0 61 20zM356 284v61q0 57 -33.5 85t-84.5 28t-84.5 -29t-33.5 -86v-59h236z" />
<glyph unicode="&#x11a;" horiz-adv-x="527" d="M348 890l-74 -102l-74 102h-55l102 -140h54l102 140h-55zM150 59h342v-59h-415v700h415v-59h-342v-256h272v-60h-272v-266z" />
<glyph unicode="&#x11b;" horiz-adv-x="466" d="M312 690l-74 -102l-74 102h-55l102 -140h54l102 140h-55zM120 237v-73q0 -120 132 -120q84 0 158 30l11 -54q-87 -30 -180 -30q-35 0 -66 8t-60.5 26t-47 53.5t-17.5 84.5v177q0 88 54 129.5t134 41.5q77 0 129 -40.5t52 -128.5v-104h-299zM356 284v61q0 57 -33.5 85 t-84.5 28t-84.5 -29t-33.5 -86v-59h236z" />
<glyph unicode="&#x11c;" horiz-adv-x="572" d="M363 750l-74 102l-74 -102h-55l102 140h54l102 -140h-55zM447 450v66q0 63 -46.5 99t-111.5 36q-66 0 -110.5 -36t-44.5 -99v-332q0 -66 44 -100.5t111 -34.5q66 0 112 35t46 100v104h-163v60h233v-164q0 -91 -66 -142.5t-162 -51.5t-162 51.5t-66 142.5v332 q0 91 66 142.5t162 51.5t162 -51.5t66 -142.5v-66h-70z" />
<glyph unicode="&#x11d;" horiz-adv-x="491" d="M308 550l-74 102l-74 -102h-55l102 140h54l102 -140h-55zM368 500l-7 -85q-25 49 -67.5 72t-84.5 23q-78 0 -118 -46.5t-40 -109.5v-188q0 -63 40 -109.5t118 -46.5q41 0 82.5 22.5t65.5 68.5v-142q0 -115 -134 -115q-78 0 -152 30l-10 -54q85 -30 171 -30q28 0 53.5 4 t52 15t45.5 29t31.5 49t12.5 72v541h-59zM357 329v-138q0 -53 -35 -90t-88 -37q-54 0 -83.5 32.5t-29.5 80.5v166q0 48 29.5 80.5t83.5 32.5q53 0 88 -37t35 -90z" />
<glyph unicode="&#x11e;" horiz-adv-x="572" d="M196 890h-34q0 -65 35 -102.5t92 -37.5t92 37.5t35 102.5h-35q0 -40 -22.5 -69.5t-69.5 -29.5q-48 0 -70.5 29.5t-22.5 69.5zM447 450v66q0 63 -46.5 99t-111.5 36q-66 0 -110.5 -36t-44.5 -99v-332q0 -66 44 -100.5t111 -34.5q66 0 112 35t46 100v104h-163v60h233v-164 q0 -91 -66 -142.5t-162 -51.5t-162 51.5t-66 142.5v332q0 91 66 142.5t162 51.5t162 -51.5t66 -142.5v-66h-70z" />
<glyph unicode="&#x11f;" horiz-adv-x="491" d="M141 690h-34q0 -65 35 -102.5t92 -37.5t92 37.5t35 102.5h-35q0 -40 -22.5 -69.5t-69.5 -29.5q-48 0 -70.5 29.5t-22.5 69.5zM368 500l-7 -85q-25 49 -67.5 72t-84.5 23q-78 0 -118 -46.5t-40 -109.5v-188q0 -63 40 -109.5t118 -46.5q41 0 82.5 22.5t65.5 68.5v-142 q0 -115 -134 -115q-78 0 -152 30l-10 -54q85 -30 171 -30q28 0 53.5 4t52 15t45.5 29t31.5 49t12.5 72v541h-59zM357 329v-138q0 -53 -35 -90t-88 -37q-54 0 -83.5 32.5t-29.5 80.5v166q0 48 29.5 80.5t83.5 32.5q53 0 88 -37t35 -90z" />
<glyph unicode="&#x120;" horiz-adv-x="572" d="M254 904v-131h70v131h-70zM447 450v66q0 63 -46.5 99t-111.5 36q-66 0 -110.5 -36t-44.5 -99v-332q0 -66 44 -100.5t111 -34.5q66 0 112 35t46 100v104h-163v60h233v-164q0 -91 -66 -142.5t-162 -51.5t-162 51.5t-66 142.5v332q0 91 66 142.5t162 51.5t162 -51.5 t66 -142.5v-66h-70z" />
<glyph unicode="&#x121;" horiz-adv-x="491" d="M199 704v-131h70v131h-70zM368 500l-7 -85q-25 49 -67.5 72t-84.5 23q-78 0 -118 -46.5t-40 -109.5v-188q0 -63 40 -109.5t118 -46.5q41 0 82.5 22.5t65.5 68.5v-142q0 -115 -134 -115q-78 0 -152 30l-10 -54q85 -30 171 -30q28 0 53.5 4t52 15t45.5 29t31.5 49t12.5 72 v541h-59zM357 329v-138q0 -53 -35 -90t-88 -37q-54 0 -83.5 32.5t-29.5 80.5v166q0 48 29.5 80.5t83.5 32.5q53 0 88 -37t35 -90z" />
<glyph unicode="&#x122;" horiz-adv-x="572" d="M447 450v66q0 63 -46.5 99t-111.5 36q-66 0 -110.5 -36t-44.5 -99v-332q0 -66 44 -100.5t111 -34.5q66 0 112 35t46 100v104h-163v60h233v-164q0 -91 -66 -142.5t-162 -51.5t-162 51.5t-66 142.5v332q0 91 66 142.5t162 51.5t162 -51.5t66 -142.5v-66h-70zM320 -173v98 h-63v-98l-37 -137h53z" />
<glyph unicode="&#x123;" horiz-adv-x="491" d="M204 672v-99h63v99l37 137h-52zM368 500l-7 -85q-25 49 -67.5 72t-84.5 23q-78 0 -118 -46.5t-40 -109.5v-188q0 -63 40 -109.5t118 -46.5q41 0 82.5 22.5t65.5 68.5v-142q0 -115 -134 -115q-78 0 -152 30l-10 -54q85 -30 171 -30q28 0 53.5 4t52 15t45.5 29t31.5 49 t12.5 72v541h-59zM357 329v-138q0 -53 -35 -90t-88 -37q-54 0 -83.5 32.5t-29.5 80.5v166q0 48 29.5 80.5t83.5 32.5q53 0 88 -37t35 -90z" />
<glyph unicode="&#x124;" horiz-adv-x="619" d="M384 750l-74 102l-74 -102h-55l102 140h54l102 -140h-55zM150 0h-73v700h73v-315h319v315h74v-700h-74v325h-319v-325z" />
<glyph unicode="&#x125;" horiz-adv-x="502" d="M172 770l-74 102l-74 -102h-55l102 140h54l102 -140h-55zM440 0v354q0 64 -40 110t-118 46q-41 0 -82.5 -22.5t-65.5 -68.5v301h-70v-720h70v329q0 53 35 90t88 37q54 0 83.5 -32t29.5 -81v-343h70z" />
<glyph unicode="&#x126;" horiz-adv-x="619" d="M150 325v-325h-73v513h-40v45h40v142h73v-142h319v142h74v-142h39v-45h-39v-513h-74v325h-319zM150 513v-128h319v128h-319z" />
<glyph unicode="&#x127;" horiz-adv-x="502" d="M134 579v-160q24 46 65.5 68.5t82.5 22.5q78 0 118 -46t40 -110v-354h-70v343q0 49 -29.5 81t-83.5 32q-53 0 -88 -37t-35 -90v-329h-70v579h-78v46h78v95h70v-95h79v-46h-79z" />
<glyph unicode="&#x128;" horiz-adv-x="227" d="M220 853h42q0 -50 -21 -73.5t-53 -23.5q-27 0 -75.5 25.5t-65.5 25.5t-29 -12.5t-12 -38.5h-42q0 50 21.5 73.5t53.5 23.5q27 0 75 -25.5t65 -25.5t29 12.5t12 38.5zM150 700v-700h-73v700h73z" />
<glyph unicode="&#x129;" horiz-adv-x="199" d="M206 653h42q0 -50 -21 -73.5t-53 -23.5q-27 0 -75.5 25.5t-65.5 25.5t-29 -12.5t-12 -38.5h-42q0 50 21.5 73.5t53.5 23.5q27 0 75 -25.5t65 -25.5t29 12.5t12 38.5zM64 500v-500h70v500h-70z" />
<glyph unicode="&#x12a;" horiz-adv-x="227" d="M-39 825h305v-46h-305v46zM150 700v-700h-73v700h73z" />
<glyph unicode="&#x12b;" horiz-adv-x="199" d="M-53 625h305v-46h-305v46zM64 500v-500h70v500h-70z" />
<glyph unicode="&#x12c;" horiz-adv-x="227" d="M21 890h-34q0 -65 35 -102.5t92 -37.5t92 37.5t35 102.5h-35q0 -40 -22.5 -69.5t-69.5 -29.5q-48 0 -70.5 29.5t-22.5 69.5zM150 700v-700h-73v700h73z" />
<glyph unicode="&#x12d;" horiz-adv-x="199" d="M7 690h-34q0 -65 35 -102.5t92 -37.5t92 37.5t35 102.5h-35q0 -40 -22.5 -69.5t-69.5 -29.5q-48 0 -70.5 29.5t-22.5 69.5zM64 500v-500h70v500h-70z" />
<glyph unicode="&#x12e;" horiz-adv-x="227" d="M176 -150l8 -26q-37 -29 -87 -29q-34 0 -58 18t-24 51q0 36 24 73t62 63h-24v700h73v-700h-14q-28 -23 -49.5 -58t-21.5 -62q0 -50 50 -50q26 0 61 20z" />
<glyph unicode="&#x12f;" horiz-adv-x="199" d="M65 573v131h70v-131h-70zM160 -150l8 -26q-37 -29 -87 -29q-34 0 -58 18t-24 51q0 36 24 73t62 63h-21v500h70v-500h-14q-28 -23 -49.5 -58t-21.5 -62q0 -50 50 -50q26 0 61 20z" />
<glyph unicode="&#x130;" horiz-adv-x="227" d="M79 904v-131h70v131h-70zM150 700v-700h-73v700h73z" />
<glyph unicode="&#x131;" horiz-adv-x="199" d="M64 500v-500h70v500h-70z" />
<glyph unicode="&#x132;" horiz-adv-x="537" d="M150 700v-700h-73v700h73zM250 59v-59q109 0 161 33t52 130v537h-73v-532q0 -65 -32 -87t-108 -22z" />
<glyph unicode="&#x133;" horiz-adv-x="398" d="M64 704v-131h70v131h-70zM263 704v-131h70v131h-70zM64 500v-500h70v500h-70zM263 500v-585q0 -37 -14.5 -54t-52.5 -17q-24 0 -56 8l-5 -52q44 -10 84 -10q56 0 85 26t29 92v592h-70z" />
<glyph unicode="&#x134;" horiz-adv-x="310" d="M242 750l-74 102l-74 -102h-55l102 140h54l102 -140h-55zM23 59v-59q109 0 161 33t52 130v537h-73v-532q0 -65 -32 -87t-108 -22z" />
<glyph unicode="&#x135;" horiz-adv-x="199" d="M173 550l-74 102l-74 -102h-55l102 140h54l102 -140h-55zM64 500v-585q0 -37 -14.5 -54t-52.5 -17q-24 0 -56 8l-5 -52q44 -10 84 -10q56 0 85 26t29 92v592h-70z" />
<glyph unicode="&#x136;" horiz-adv-x="521" d="M150 700v-333l281 333h86l-294 -341l301 -359h-90l-284 343v-343h-73v700h73zM292 -173v98h-63v-98l-37 -137h53z" />
<glyph unicode="&#x137;" horiz-adv-x="469" d="M134 720v-455l243 235h82l-254 -241l261 -259h-86l-246 245v-245h-70v720h70zM266 -173v98h-63v-98l-37 -137h53z" />
<glyph unicode="&#x139;" horiz-adv-x="508" d="M186 890l-96 -140h50l105 140h-59zM152 59h332v-59h-405v700h73v-641z" />
<glyph unicode="&#x13a;" horiz-adv-x="199" d="M170 890l-96 -140h50l105 140h-59zM64 720v-720h70v720h-70z" />
<glyph unicode="&#x13b;" horiz-adv-x="508" d="M152 59h332v-59h-405v700h73v-641zM285 -173v98h-63v-98l-37 -137h53z" />
<glyph unicode="&#x13c;" horiz-adv-x="199" d="M64 720v-720h70v720h-70zM131 -173v98h-63v-98l-37 -137h53z" />
<glyph unicode="&#x13d;" horiz-adv-x="508" d="M152 59h332v-59h-405v700h73v-641zM325 465h-41l-22 137v98h63v-235z" />
<glyph unicode="&#x13e;" horiz-adv-x="294" d="M64 720v-720h70v720h-70zM265 512h-35l-21 113v95h56v-208z" />
<glyph unicode="&#x13f;" horiz-adv-x="508" d="M152 59h332v-59h-405v700h73v-641zM283 422v-99h63v99h-63z" />
<glyph unicode="&#x140;" horiz-adv-x="260" d="M64 720v-720h70v720h-70zM190 382v-98h63v98h-63z" />
<glyph unicode="&#x141;" horiz-adv-x="509" d="M8 345l72 24v331h74v-307l95 32v-60l-95 -32v-274h331v-59h-405v309l-72 -24v60z" />
<glyph unicode="&#x142;" horiz-adv-x="222" d="M10 285v60l66 25v350h70v-324l66 25v-59l-66 -25v-337h-70v310z" />
<glyph unicode="&#x143;" horiz-adv-x="639" d="M390 890l-96 -140h50l105 140h-59zM489 0l-348 576q6 -112 6 -182v-394h-70v700h77l344 -576q-5 91 -5 182v394h70v-700h-74z" />
<glyph unicode="&#x144;" horiz-adv-x="502" d="M325 690l-96 -140h50l105 140h-59zM440 0v354q0 64 -40 110t-118 46q-42 0 -84.5 -23t-66.5 -72l-7 85h-60v-500h70v329q0 53 35 90t88 37q54 0 83.5 -32t29.5 -81v-343h70z" />
<glyph unicode="&#x145;" horiz-adv-x="639" d="M489 0l-348 576q6 -112 6 -182v-394h-70v700h77l344 -576q-5 91 -5 182v394h70v-700h-74zM351 -173v98h-63v-98l-37 -137h53z" />
<glyph unicode="&#x146;" horiz-adv-x="502" d="M440 0v354q0 64 -40 110t-118 46q-42 0 -84.5 -23t-66.5 -72l-7 85h-60v-500h70v329q0 53 35 90t88 37q54 0 83.5 -32t29.5 -81v-343h70zM282 -173v98h-63v-98l-37 -137h53z" />
<glyph unicode="&#x147;" horiz-adv-x="639" d="M394 890l-74 -102l-74 102h-55l102 -140h54l102 140h-55zM489 0l-348 576q6 -112 6 -182v-394h-70v700h77l344 -576q-5 91 -5 182v394h70v-700h-74z" />
<glyph unicode="&#x148;" horiz-adv-x="502" d="M329 690l-74 -102l-74 102h-55l102 -140h54l102 140h-55zM440 0v354q0 64 -40 110t-118 46q-42 0 -84.5 -23t-66.5 -72l-7 85h-60v-500h70v329q0 53 35 90t88 37q54 0 83.5 -32t29.5 -81v-343h70z" />
<glyph unicode="&#x14a;" horiz-adv-x="639" d="M563 700v-747q0 -97 -52 -130t-161 -33v59q75 0 107 20.5t32 81.5v49l-348 576q6 -112 6 -182v-394h-70v700h77l344 -576q-5 91 -5 182v394h70z" />
<glyph unicode="&#x14b;" horiz-adv-x="502" d="M124 500l7 -85q24 49 66.5 72t84.5 23q78 0 118 -46t40 -110v-446q0 -66 -29 -92t-85 -26q-39 0 -85 10l6 52q32 -8 56 -8q38 0 52.5 17t14.5 54v428q0 49 -29.5 81t-83.5 32q-53 0 -88 -37t-35 -90v-329h-70v500h60z" />
<glyph unicode="&#x14c;" horiz-adv-x="577" d="M136 825h305v-46h-305v46zM61 516v-332q0 -91 66 -142.5t162 -51.5t162 51.5t66 142.5v332q0 91 -66 142.5t-162 51.5t-162 -51.5t-66 -142.5zM443 516v-332q0 -63 -44.5 -99t-109.5 -36q-66 0 -110.5 36t-44.5 99v332q0 63 44.5 99t110.5 36q65 0 109.5 -36t44.5 -99z " />
<glyph unicode="&#x14d;" horiz-adv-x="476" d="M86 625h305v-46h-305v46zM426 339v-178q0 -88 -54 -129.5t-134 -41.5t-134 41.5t-54 129.5v178q0 88 54 129.5t134 41.5t134 -41.5t54 -129.5zM120 343v-186q0 -57 33.5 -86t84.5 -29t84.5 29t33.5 86v186q0 57 -33.5 86t-84.5 29t-84.5 -29t-33.5 -86z" />
<glyph unicode="&#x14e;" horiz-adv-x="577" d="M196 890h-34q0 -65 35 -102.5t92 -37.5t92 37.5t35 102.5h-35q0 -40 -22.5 -69.5t-69.5 -29.5q-48 0 -70.5 29.5t-22.5 69.5zM61 516v-332q0 -91 66 -142.5t162 -51.5t162 51.5t66 142.5v332q0 91 -66 142.5t-162 51.5t-162 -51.5t-66 -142.5zM443 516v-332 q0 -63 -44.5 -99t-109.5 -36q-66 0 -110.5 36t-44.5 99v332q0 63 44.5 99t110.5 36q65 0 109.5 -36t44.5 -99z" />
<glyph unicode="&#x14f;" horiz-adv-x="476" d="M145 690h-34q0 -65 35 -102.5t92 -37.5t92 37.5t35 102.5h-35q0 -40 -22.5 -69.5t-69.5 -29.5q-48 0 -70.5 29.5t-22.5 69.5zM426 339v-178q0 -88 -54 -129.5t-134 -41.5t-134 41.5t-54 129.5v178q0 88 54 129.5t134 41.5t134 -41.5t54 -129.5zM120 343v-186 q0 -57 33.5 -86t84.5 -29t84.5 29t33.5 86v186q0 57 -33.5 86t-84.5 29t-84.5 -29t-33.5 -86z" />
<glyph unicode="&#x150;" horiz-adv-x="577" d="M307 890l-96 -140h40l105 140h-49zM418 890l-96 -140h40l105 140h-49zM61 516v-332q0 -91 66 -142.5t162 -51.5t162 51.5t66 142.5v332q0 91 -66 142.5t-162 51.5t-162 -51.5t-66 -142.5zM443 516v-332q0 -63 -44.5 -99t-109.5 -36q-66 0 -110.5 36t-44.5 99v332 q0 63 44.5 99t110.5 36q65 0 109.5 -36t44.5 -99z" />
<glyph unicode="&#x151;" horiz-adv-x="476" d="M256 690l-96 -140h40l105 140h-49zM367 690l-96 -140h40l105 140h-49zM426 339v-178q0 -88 -54 -129.5t-134 -41.5t-134 41.5t-54 129.5v178q0 88 54 129.5t134 41.5t134 -41.5t54 -129.5zM120 343v-186q0 -57 33.5 -86t84.5 -29t84.5 29t33.5 86v186q0 57 -33.5 86 t-84.5 29t-84.5 -29t-33.5 -86z" />
<glyph unicode="&#x152;" horiz-adv-x="894" d="M517 59h341v-59h-386v98q-44 -108 -190 -108q-95 0 -158 51.5t-63 142.5v332q0 91 63 142.5t158 51.5q146 0 190 -108v98h386v-59h-341v-256h272v-60h-272v-266zM443 184v332q0 63 -44.5 99t-109.5 36t-109.5 -36t-44.5 -99v-332q0 -63 44.5 -99t109.5 -36t109.5 36 t44.5 99z" />
<glyph unicode="&#x153;" horiz-adv-x="772" d="M716 74l11 -54q-87 -30 -180 -30q-105 0 -156 61q-49 -61 -153 -61q-80 0 -134 41.5t-54 129.5v178q0 88 54 129.5t134 41.5q103 0 153 -60q50 60 153 60q77 0 129 -40.5t52 -128.5v-104h-299v-73q0 -120 132 -120q84 0 158 30zM356 157v186q0 57 -33.5 86t-84.5 29 t-84.5 -29t-33.5 -86v-186q0 -57 33.5 -86t84.5 -29t84.5 29t33.5 86zM662 284v61q0 57 -33.5 85t-84.5 28t-84.5 -29t-33.5 -86v-59h236z" />
<glyph unicode="&#x154;" d="M359 890l-96 -140h50l105 140h-59zM461 0l-28 185q-12 78 -47.5 100.5t-105.5 22.5h-130v-308h-73v700h245q93 0 147 -46.5t54 -134.5v-16q0 -133 -124 -164q85 -26 105 -149l30 -190h-73zM150 368h165q134 0 134 124v24q0 60 -35 92.5t-99 32.5h-165v-273z" />
<glyph unicode="&#x155;" horiz-adv-x="306" d="M223 690l-96 -140h50l105 140h-59zM282 442v68q-43 0 -87.5 -27t-63.5 -82l-7 99h-60v-500h70v319q0 53 41 88t107 35z" />
<glyph unicode="&#x156;" d="M461 0l-28 185q-12 78 -47.5 100.5t-105.5 22.5h-130v-308h-73v700h245q93 0 147 -46.5t54 -134.5v-16q0 -133 -124 -164q85 -26 105 -149l30 -190h-73zM150 368h165q134 0 134 124v24q0 60 -35 92.5t-99 32.5h-165v-273zM323 -173v98h-63v-98l-37 -137h53z" />
<glyph unicode="&#x157;" horiz-adv-x="306" d="M282 442v68q-43 0 -87.5 -27t-63.5 -82l-7 99h-60v-500h70v319q0 53 41 88t107 35zM131 -173v98h-63v-98l-37 -137h53z" />
<glyph unicode="&#x158;" d="M363 890l-74 -102l-74 102h-55l102 -140h54l102 140h-55zM461 0l-28 185q-12 78 -47.5 100.5t-105.5 22.5h-130v-308h-73v700h245q93 0 147 -46.5t54 -134.5v-16q0 -133 -124 -164q85 -26 105 -149l30 -190h-73zM150 368h165q134 0 134 124v24q0 60 -35 92.5t-99 32.5 h-165v-273z" />
<glyph unicode="&#x159;" horiz-adv-x="306" d="M227 690l-74 -102l-74 102h-55l102 -140h54l102 140h-55zM282 442v68q-43 0 -87.5 -27t-63.5 -82l-7 99h-60v-500h70v319q0 53 41 88t107 35z" />
<glyph unicode="&#x15a;" horiz-adv-x="548" d="M345 890l-96 -140h50l105 140h-59zM502 174v10q0 63 -38.5 105.5t-93 65t-109 42.5t-93 52t-38.5 79v8q0 53 40.5 84t103.5 31q65 0 106.5 -35.5t41.5 -99.5v-66h70v66q0 91 -61.5 142.5t-156.5 51.5t-156.5 -46t-61.5 -128v-10q0 -63 38.5 -106t93 -66.5t109.5 -44 t93.5 -52.5t38.5 -78v-8q0 -60 -44 -91t-111 -31q-66 0 -112 35t-46 100v66h-70v-66q0 -91 65.5 -142.5t161.5 -51.5q98 0 163.5 47t65.5 137z" />
<glyph unicode="&#x15b;" horiz-adv-x="440" d="M292 690l-96 -140h50l105 140h-59zM333 136v-7q0 -38 -30.5 -62.5t-86.5 -24.5q-88 0 -167 32l-12 -54q87 -30 183 -30q80 0 132.5 37t52.5 102v12q0 49 -30 79.5t-72.5 44t-85.5 24.5t-73 31t-30 54v8q0 36 30.5 56t80.5 20q75 0 154 -32l11 54q-87 30 -168 30 q-88 0 -134 -36t-46 -91v-12q0 -49 30 -80t73 -44.5t85.5 -24.5t72.5 -31.5t30 -54.5z" />
<glyph unicode="&#x15c;" horiz-adv-x="548" d="M348 750l-74 102l-74 -102h-55l102 140h54l102 -140h-55zM502 174v10q0 63 -38.5 105.5t-93 65t-109 42.5t-93 52t-38.5 79v8q0 53 40.5 84t103.5 31q65 0 106.5 -35.5t41.5 -99.5v-66h70v66q0 91 -61.5 142.5t-156.5 51.5t-156.5 -46t-61.5 -128v-10q0 -63 38.5 -106 t93 -66.5t109.5 -44t93.5 -52.5t38.5 -78v-8q0 -60 -44 -91t-111 -31q-66 0 -112 35t-46 100v66h-70v-66q0 -91 65.5 -142.5t161.5 -51.5q98 0 163.5 47t65.5 137z" />
<glyph unicode="&#x15d;" horiz-adv-x="440" d="M296 550l-74 102l-74 -102h-55l102 140h54l102 -140h-55zM333 136v-7q0 -38 -30.5 -62.5t-86.5 -24.5q-88 0 -167 32l-12 -54q87 -30 183 -30q80 0 132.5 37t52.5 102v12q0 49 -30 79.5t-72.5 44t-85.5 24.5t-73 31t-30 54v8q0 36 30.5 56t80.5 20q75 0 154 -32l11 54 q-87 30 -168 30q-88 0 -134 -36t-46 -91v-12q0 -49 30 -80t73 -44.5t85.5 -24.5t72.5 -31.5t30 -54.5z" />
<glyph unicode="&#x15e;" horiz-adv-x="549" d="M130 536v-8q0 -47 38.5 -79t93 -52t109 -42.5t93 -65t38.5 -105.5v-10q0 -86 -60.5 -133t-153.5 -51v-38h10q100 0 100 -82v-8q0 -44 -28 -68t-72 -24q-64 0 -107 20l9 31q45 -18 91 -18q30 0 46 15.5t16 43.5v5q0 52 -69 52h-27v71q-91 5 -151 56t-60 138v66h70v-66 q0 -65 46 -100t112 -35q67 0 111 31t44 91v8q0 46 -38.5 78t-93.5 52.5t-109.5 44t-93 66.5t-38.5 106v10q0 82 61.5 128t156.5 46t156.5 -51.5t61.5 -142.5v-66h-70v66q0 64 -41.5 99.5t-106.5 35.5q-63 0 -103.5 -31t-40.5 -84z" />
<glyph unicode="&#x15f;" horiz-adv-x="440" d="M114 382v-8q0 -34 30 -54t73 -31t85.5 -24.5t72.5 -44t30 -79.5v-12q0 -62 -47.5 -98.5t-122.5 -40.5v-40h10q100 0 100 -82v-8q0 -44 -28 -68t-72 -24q-65 0 -107 20l9 31q45 -18 91 -18q30 0 46 15.5t16 43.5v5q0 52 -69 52h-27v73q-84 2 -167 30l12 54q79 -32 167 -32 q56 0 86.5 24.5t30.5 62.5v7q0 34 -30 54.5t-72.5 31.5t-85.5 24.5t-73 44.5t-30 80v12q0 55 46 91t134 36q81 0 168 -30l-11 -54q-79 32 -154 32q-50 0 -80.5 -20t-30.5 -56z" />
<glyph unicode="&#x160;" horiz-adv-x="548" d="M348 890l-74 -102l-74 102h-55l102 -140h54l102 140h-55zM502 174v10q0 63 -38.5 105.5t-93 65t-109 42.5t-93 52t-38.5 79v8q0 53 40.5 84t103.5 31q65 0 106.5 -35.5t41.5 -99.5v-66h70v66q0 91 -61.5 142.5t-156.5 51.5t-156.5 -46t-61.5 -128v-10q0 -63 38.5 -106 t93 -66.5t109.5 -44t93.5 -52.5t38.5 -78v-8q0 -60 -44 -91t-111 -31q-66 0 -112 35t-46 100v66h-70v-66q0 -91 65.5 -142.5t161.5 -51.5q98 0 163.5 47t65.5 137z" />
<glyph unicode="&#x161;" horiz-adv-x="440" d="M296 690l-74 -102l-74 102h-55l102 -140h54l102 140h-55zM333 136v-7q0 -38 -30.5 -62.5t-86.5 -24.5q-88 0 -167 32l-12 -54q87 -30 183 -30q80 0 132.5 37t52.5 102v12q0 49 -30 79.5t-72.5 44t-85.5 24.5t-73 31t-30 54v8q0 36 30.5 56t80.5 20q75 0 154 -32l11 54 q-87 30 -168 30q-88 0 -134 -36t-46 -91v-12q0 -49 30 -80t73 -44.5t85.5 -24.5t72.5 -31.5t30 -54.5z" />
<glyph unicode="&#x162;" horiz-adv-x="457" d="M247 -50h10q100 0 100 -82v-8q0 -44 -28 -68t-72 -24q-65 0 -107 20l9 31q45 -18 91 -18q30 0 46 15.5t16 43.5v5q0 52 -69 52h-27v83h-21v641h-172v59h411v-59h-165v-641h-22v-50z" />
<glyph unicode="&#x163;" horiz-adv-x="306" d="M191 0v-10q-48 3 -73.5 30t-25.5 88v343h-67v49h67v100h70v-100h119v-49h-119v-336q0 -36 15 -53.5t52 -17.5q25 0 57 8l5 -52q-38 -9 -69 -10v10h-31zM222 -50h10q100 0 100 -82v-8q0 -44 -28 -68t-72 -24q-64 0 -107 20l9 31q45 -18 91 -18q30 0 46 15.5t16 43.5v5 q0 52 -69 52h-27v73h31v-40z" />
<glyph unicode="&#x164;" horiz-adv-x="457" d="M302 890l-74 -102l-74 102h-55l102 -140h54l102 140h-55zM23 641v59h411v-59h-165v-641h-74v641h-172z" />
<glyph unicode="&#x165;" horiz-adv-x="384" d="M362 512h-35l-21 113v95h56v-208zM162 451v-336q0 -36 15 -53.5t52 -17.5q25 0 57 8l5 -52q-44 -10 -84 -10q-56 0 -85.5 26t-29.5 92v343h-67v49h67v100h70v-100h119v-49h-119z" />
<glyph unicode="&#x166;" horiz-adv-x="459" d="M270 0h-74v325h-146v60h146v256h-172v59h411v-59h-165v-256h139v-60h-139v-325z" />
<glyph unicode="&#x167;" horiz-adv-x="308" d="M288 52l5 -52q-46 -10 -84 -10q-56 0 -85.5 26t-29.5 92v154h-64v45h64v144h-68v49h68v100h70v-100h119v-49h-119v-144h82v-45h-82v-147q0 -37 14.5 -54t52.5 -17q23 0 57 8z" />
<glyph unicode="&#x168;" horiz-adv-x="602" d="M408 853h42q0 -50 -21 -73.5t-53 -23.5q-27 0 -75.5 25.5t-65.5 25.5t-29 -12.5t-12 -38.5h-42q0 50 21.5 73.5t53.5 23.5q27 0 75 -25.5t65 -25.5t29 12.5t12 38.5zM529 700v-516q0 -91 -66 -142.5t-162 -51.5t-162 51.5t-66 142.5v516h74v-516q0 -66 44 -100.5 t110 -34.5t110 34.5t44 100.5v516h74z" />
<glyph unicode="&#x169;" horiz-adv-x="502" d="M358 653h42q0 -50 -21 -73.5t-53 -23.5q-27 0 -75.5 25.5t-65.5 25.5t-29 -12.5t-12 -38.5h-42q0 50 21.5 73.5t53.5 23.5q27 0 75 -25.5t65 -25.5t29 12.5t12 38.5zM62 500v-354q0 -64 40 -110t118 -46q42 0 84.5 23t66.5 72l7 -85h60v500h-70v-329q0 -53 -35 -90 t-88 -37q-54 0 -83.5 32t-29.5 81v343h-70z" />
<glyph unicode="&#x16a;" horiz-adv-x="602" d="M149 825h305v-46h-305v46zM529 700v-516q0 -91 -66 -142.5t-162 -51.5t-162 51.5t-66 142.5v516h74v-516q0 -66 44 -100.5t110 -34.5t110 34.5t44 100.5v516h74z" />
<glyph unicode="&#x16b;" horiz-adv-x="502" d="M99 625h305v-46h-305v46zM62 500v-354q0 -64 40 -110t118 -46q42 0 84.5 23t66.5 72l7 -85h60v500h-70v-329q0 -53 -35 -90t-88 -37q-54 0 -83.5 32t-29.5 81v343h-70z" />
<glyph unicode="&#x16c;" horiz-adv-x="602" d="M208 890h-34q0 -65 35 -102.5t92 -37.5t92 37.5t35 102.5h-35q0 -40 -22.5 -69.5t-69.5 -29.5q-48 0 -70.5 29.5t-22.5 69.5zM529 700v-516q0 -91 -66 -142.5t-162 -51.5t-162 51.5t-66 142.5v516h74v-516q0 -66 44 -100.5t110 -34.5t110 34.5t44 100.5v516h74z" />
<glyph unicode="&#x16d;" horiz-adv-x="502" d="M159 690h-34q0 -65 35 -102.5t92 -37.5t92 37.5t35 102.5h-35q0 -40 -22.5 -69.5t-69.5 -29.5q-48 0 -70.5 29.5t-22.5 69.5zM62 500v-354q0 -64 40 -110t118 -46q42 0 84.5 23t66.5 72l7 -85h60v500h-70v-329q0 -53 -35 -90t-88 -37q-54 0 -83.5 32t-29.5 81v343h-70z " />
<glyph unicode="&#x16e;" horiz-adv-x="602" d="M301 740q-53 0 -83 23t-30 67t30 67t83 23q54 0 84 -23t30 -67t-30 -67t-84 -23zM301 892q-35 0 -53.5 -17t-18.5 -45t18.5 -45t53.5 -17q36 0 54.5 17t18.5 45t-18.5 45t-54.5 17zM529 700v-516q0 -91 -66 -142.5t-162 -51.5t-162 51.5t-66 142.5v516h74v-516 q0 -66 44 -100.5t110 -34.5t110 34.5t44 100.5v516h74z" />
<glyph unicode="&#x16f;" horiz-adv-x="502" d="M251 540q-53 0 -83 23t-30 67t30 67t83 23q54 0 84 -23t30 -67t-30 -67t-84 -23zM251 692q-35 0 -53.5 -17t-18.5 -45t18.5 -45t53.5 -17q36 0 54.5 17t18.5 45t-18.5 45t-54.5 17zM62 500v-354q0 -64 40 -110t118 -46q42 0 84.5 23t66.5 72l7 -85h60v500h-70v-329 q0 -53 -35 -90t-88 -37q-54 0 -83.5 32t-29.5 81v343h-70z" />
<glyph unicode="&#x170;" horiz-adv-x="602" d="M319 890l-96 -140h40l105 140h-49zM430 890l-96 -140h40l105 140h-49zM529 700v-516q0 -91 -66 -142.5t-162 -51.5t-162 51.5t-66 142.5v516h74v-516q0 -66 44 -100.5t110 -34.5t110 34.5t44 100.5v516h74z" />
<glyph unicode="&#x171;" horiz-adv-x="502" d="M270 690l-96 -140h40l105 140h-49zM381 690l-96 -140h40l105 140h-49zM62 500v-354q0 -64 40 -110t118 -46q42 0 84.5 23t66.5 72l7 -85h60v500h-70v-329q0 -53 -35 -90t-88 -37q-54 0 -83.5 32t-29.5 81v343h-70z" />
<glyph unicode="&#x172;" horiz-adv-x="602" d="M529 700v-516q0 -86 -60 -137t-149 -56q-27 -24 -46.5 -57t-19.5 -59q0 -50 50 -50q26 0 61 20l8 -26q-37 -29 -87 -29q-34 0 -58 18t-24 51q0 34 22 69.5t58 61.5q-90 6 -150.5 57t-60.5 137v516h74v-516q0 -66 44 -100.5t110 -34.5t110 34.5t44 100.5v516h74z" />
<glyph unicode="&#x173;" horiz-adv-x="502" d="M467 -150l8 -26q-37 -29 -87 -29q-34 0 -58 18t-24 51q0 36 24 73t62 63h-14l-7 85q-24 -49 -66.5 -72t-84.5 -23q-78 0 -118 46t-40 110v354h70v-343q0 -49 29.5 -81t83.5 -32q53 0 88 37t35 90v329h70v-500h-11q-28 -23 -49.5 -58t-21.5 -62q0 -50 50 -50q26 0 61 20z " />
<glyph unicode="&#x174;" horiz-adv-x="853" d="M501 750l-74 102l-74 -102h-55l102 140h54l102 -140h-55zM205 -5l-186 705h77l146 -594l149 594h76l147 -594l146 594h74l-185 -705h-74l-148 588l-148 -588h-74z" />
<glyph unicode="&#x175;" horiz-adv-x="670" d="M409 550l-74 102l-74 -102h-55l102 140h54l102 -140h-55zM156 -5l-136 505h69l106 -426l104 426h70l106 -424l105 424h69l-136 -505h-75l-103 423l-103 -423h-76z" />
<glyph unicode="&#x176;" horiz-adv-x="551" d="M349 750l-74 102l-74 -102h-55l102 140h54l102 -140h-55zM8 700h78l189 -363l191 363h78l-233 -432v-268h-73v268z" />
<glyph unicode="&#x177;" horiz-adv-x="448" d="M298 550l-74 102l-74 -102h-55l102 140h54l102 -140h-55zM432 500l-199 -573q-27 -81 -62 -109t-92 -28q-30 0 -76 10l6 54q31 -10 65 -10q40 0 59.5 17t35.5 61l27 73h-8l-172 505h71l140 -423l136 423h69z" />
<glyph unicode="&#x178;" horiz-adv-x="551" d="M134 904v-131h70v131h-70zM347 904v-131h70v131h-70zM8 700h78l189 -363l191 363h78l-233 -432v-268h-73v268z" />
<glyph unicode="&#x179;" horiz-adv-x="495" d="M318 890l-96 -140h50l105 140h-59zM37 641v59h424v-59l-348 -582h353v-59h-439v59l349 582h-339z" />
<glyph unicode="&#x17a;" horiz-adv-x="422" d="M281 690l-96 -140h50l105 140h-59zM38 451v49h347v-49l-282 -402h292v-49h-368v49l282 402h-271z" />
<glyph unicode="&#x17b;" horiz-adv-x="495" d="M213 904v-131h70v131h-70zM37 641v59h424v-59l-348 -582h353v-59h-439v59l349 582h-339z" />
<glyph unicode="&#x17c;" horiz-adv-x="422" d="M176 704v-131h70v131h-70zM38 451v49h347v-49l-282 -402h292v-49h-368v49l282 402h-271z" />
<glyph unicode="&#x17d;" horiz-adv-x="495" d="M322 890l-74 -102l-74 102h-55l102 -140h54l102 140h-55zM37 641v59h424v-59l-348 -582h353v-59h-439v59l349 582h-339z" />
<glyph unicode="&#x17e;" horiz-adv-x="422" d="M285 690l-74 -102l-74 102h-55l102 -140h54l102 140h-55zM38 451v49h347v-49l-282 -402h292v-49h-368v49l282 402h-271z" />
<glyph unicode="&#x18f;" horiz-adv-x="573" d="M56 450v66q0 91 66 142.5t162 51.5t162 -51.5t66 -142.5v-332q0 -91 -66 -142.5t-162 -51.5t-162 51.5t-66 142.5v184h382v148q0 66 -44 100.5t-110 34.5t-112 -35t-46 -100v-66h-70zM126 315v-131q0 -63 46.5 -99t111.5 -36t109.5 36t44.5 99v131h-312z" />
<glyph unicode="&#x192;" horiz-adv-x="302" d="M90 451v-536q0 -37 -14.5 -54t-52.5 -17q-24 0 -56 8l-5 -52q44 -10 84 -10q56 0 85 26t29 92v543h121v49h-121v105q0 36 15 53.5t52 17.5q25 0 57 -8l5 52q-44 10 -84 10q-56 0 -85.5 -26t-29.5 -92v-112h-67v-49h67z" />
<glyph unicode="&#x1fc;" horiz-adv-x="815" d="M464 890l-96 -140h50l105 140h-59zM438 59h341v-59h-415v192h-190l-86 -192h-78l316 700h453v-59h-341v-256h272v-60h-272v-266zM200 251h164v365z" />
<glyph unicode="&#x1fd;" horiz-adv-x="755" d="M448 690l-96 -140h50l105 140h-59zM700 74l11 -54q-87 -30 -180 -30q-62 0 -113 25t-69 82q-13 -32 -34.5 -54.5t-45.5 -33.5t-44.5 -15t-40.5 -4q-76 0 -113 40.5t-37 92.5v9q0 35 14 62t47 50t95 36t150 14v53q0 107 -118 107q-72 0 -154 -35l-14 50q87 41 175 41 q107 0 151 -55q51 55 148 55q77 0 129 -40.5t52 -128.5v-87h-299v-90q0 -120 132 -120q84 0 158 30zM646 294v51q0 57 -33.5 85t-84.5 28t-84.5 -29t-33.5 -86v-49h236zM340 190v64q-134 -2 -185 -32t-51 -81v-6q0 -39 26.5 -65t80.5 -26q56 0 92.5 36t36.5 110z" />
<glyph unicode="&#x1fe;" horiz-adv-x="577" d="M263 750l96 140h59l-105 -140h-50zM499 700l-31 -57q49 -52 49 -127v-332q0 -91 -66 -142.5t-162 -51.5q-90 0 -152 44l-18 -34h-40l31 57q-49 52 -49 127v332q0 91 66 142.5t162 51.5q90 0 152 -44l18 34h40zM134 516v-332q0 -31 13 -59l261 481q-43 45 -119 45 q-66 0 -110.5 -36t-44.5 -99zM443 184v332q0 32 -12 58l-261 -481q42 -44 119 -44q65 0 109.5 36t44.5 99z" />
<glyph unicode="&#x1ff;" horiz-adv-x="476" d="M308 690l-96 -140h50l105 140h-59zM426 520l-40 -64q40 -43 40 -117v-178q0 -88 -54 -129.5t-134 -41.5q-75 0 -122 32l-26 -42h-40l40 64q-40 43 -40 117v178q0 88 54 129.5t134 41.5q75 0 122 -32l26 42h40zM120 343v-186q0 -29 9 -50l198 318q-32 33 -89 33 q-51 0 -84.5 -29t-33.5 -86zM356 157v186q0 29 -9 50l-198 -318q32 -33 89 -33q51 0 84.5 29t33.5 86z" />
<glyph unicode="&#x218;" horiz-adv-x="548" d="M502 174v10q0 63 -38.5 105.5t-93 65t-109 42.5t-93 52t-38.5 79v8q0 53 40.5 84t103.5 31q65 0 106.5 -35.5t41.5 -99.5v-66h70v66q0 91 -61.5 142.5t-156.5 51.5t-156.5 -46t-61.5 -128v-10q0 -63 38.5 -106t93 -66.5t109.5 -44t93.5 -52.5t38.5 -78v-8q0 -60 -44 -91 t-111 -31q-66 0 -112 35t-46 100v66h-70v-66q0 -91 65.5 -142.5t161.5 -51.5q98 0 163.5 47t65.5 137zM304 -173v98h-63v-98l-37 -137h53z" />
<glyph unicode="&#x219;" horiz-adv-x="440" d="M333 136v-7q0 -38 -30.5 -62.5t-86.5 -24.5q-88 0 -167 32l-12 -54q87 -30 183 -30q80 0 132.5 37t52.5 102v12q0 49 -30 79.5t-72.5 44t-85.5 24.5t-73 31t-30 54v8q0 36 30.5 56t80.5 20q75 0 154 -32l11 54q-87 30 -168 30q-88 0 -134 -36t-46 -91v-12q0 -49 30 -80 t73 -44.5t85.5 -24.5t72.5 -31.5t30 -54.5zM252 -173v98h-63v-98l-37 -137h53z" />
<glyph unicode="&#x21a;" horiz-adv-x="457" d="M23 641v59h411v-59h-165v-641h-74v641h-172zM263 -173v98h-63v-98l-37 -137h53z" />
<glyph unicode="&#x21b;" horiz-adv-x="306" d="M162 451v-336q0 -36 15 -53.5t52 -17.5q25 0 57 8l5 -52q-44 -10 -84 -10q-56 0 -85.5 26t-29.5 92v343h-67v49h67v100h70v-100h119v-49h-119zM238 -173v98h-63v-98l-37 -137h53z" />
<glyph unicode="&#x237;" horiz-adv-x="199" d="M64 500v-585q0 -37 -14.5 -54t-52.5 -17q-24 0 -56 8l-5 -52q44 -10 84 -10q56 0 85 26t29 92v592h-70z" />
<glyph unicode="&#x259;" horiz-adv-x="466" d="M56 426l-11 54q87 30 180 30q35 0 66 -8t60.5 -26t47 -53.5t17.5 -84.5v-177q0 -88 -54 -129.5t-134 -41.5q-77 0 -129 40.5t-52 128.5v104h299v73q0 120 -132 120q-84 0 -158 -30zM110 216v-61q0 -57 33.5 -85t84.5 -28t84.5 29t33.5 86v59h-236z" />
<glyph unicode="&#x2c6;" horiz-adv-x="484" d="M316 550l-74 102l-74 -102h-55l102 140h54l102 -140h-55z" />
<glyph unicode="&#x2c7;" horiz-adv-x="484" d="M316 690l-74 -102l-74 102h-55l102 -140h54l102 140h-55z" />
<glyph unicode="&#x2d8;" horiz-adv-x="479" d="M147 690h-34q0 -65 35 -102.5t92 -37.5t92 37.5t35 102.5h-35q0 -40 -22.5 -69.5t-69.5 -29.5q-48 0 -70.5 29.5t-22.5 69.5z" />
<glyph unicode="&#x2d9;" horiz-adv-x="295" d="M113 704v-131h70v131h-70z" />
<glyph unicode="&#x2da;" horiz-adv-x="453" d="M226 540q-54 0 -83.5 23t-29.5 67t29.5 67t83.5 23t84 -23t30 -67t-30 -67t-84 -23zM226 692q-35 0 -53.5 -17t-18.5 -45t18.5 -45t53.5 -17q36 0 54.5 17t18.5 45t-18.5 45t-54.5 17z" />
<glyph unicode="&#x2db;" horiz-adv-x="395" d="M274 -150l8 -26q-37 -29 -87 -29q-34 0 -58 18t-24 51q0 36 24 73t62 63h35q-28 -23 -49.5 -58t-21.5 -62q0 -50 50 -50q26 0 61 20z" />
<glyph unicode="&#x2dc;" horiz-adv-x="324" d="M315 653h42q0 -50 -21 -73.5t-53 -23.5q-27 0 -75.5 25.5t-65.5 25.5t-29 -12.5t-12 -38.5h-42q0 50 21.5 73.5t53.5 23.5q27 0 75 -25.5t65 -25.5t29 12.5t12 38.5z" />
<glyph unicode="&#x2dd;" horiz-adv-x="481" d="M209 690l-96 -140h40l105 140h-49zM320 690l-96 -140h40l105 140h-49z" />
<glyph unicode="&#x326;" horiz-adv-x="0" d="M142 -173v98h-63v-98l-37 -137h53z" />
<glyph unicode="&#x37e;" horiz-adv-x="231" d="M90 404v-98h63v98h-63zM153 0v98h-63v-98l-37 -137h52z" />
<glyph unicode="&#x394;" horiz-adv-x="588" d="M26 0l233 705h73l230 -705h-536zM122 59h343l-172 547z" />
<glyph unicode="&#x3a9;" d="M517 516v-212q0 -36 -11.5 -66t-27.5 -49t-37 -33.5t-37 -21.5t-30 -10v-75h143v-49h-188v159q43 8 78.5 40t35.5 91v226q0 63 -44.5 99t-109.5 36t-110 -36t-45 -99v-226q0 -59 36 -91t79 -40v-159h-188v49h143v75q-14 3 -30 10t-37 21.5t-37 33.5t-27.5 49t-11.5 66 v212q0 91 66 142.5t162 51.5t162 -51.5t66 -142.5z" />
<glyph unicode="&#x3bc;" horiz-adv-x="590" d="M470 0l-7 85q-24 -49 -66.5 -72t-84.5 -23q-61 0 -102 31v-113q0 -67 -26 -92.5t-78 -25.5q-35 0 -81 10l5 52q34 -8 57 -8q38 0 52.5 17t14.5 54v585h70v-343q0 -48 29.5 -80.5t83.5 -32.5q53 0 88 37t35 90v329h70v-500h-60z" />
<glyph unicode="&#x3c0;" horiz-adv-x="557" d="M534 500h-511v-49h67v-451h70v451h236v-451h70v451h68v49z" />
<glyph unicode="&#x3c3;" horiz-adv-x="504" d="M457 448h-81q58 -51 58 -126v-161q0 -88 -54 -129.5t-134 -41.5t-134 41.5t-54 129.5v168q0 88 54 129.5t134 41.5h211v-52zM364 157v176q0 57 -33.5 86t-84.5 29t-84.5 -29t-33.5 -86v-176q0 -57 33.5 -86t84.5 -29t84.5 29t33.5 86z" />
<glyph unicode="&#x1e80;" horiz-adv-x="853" d="M357 890l96 -140h-50l-105 140h59zM205 -5l-186 705h77l146 -594l149 594h76l147 -594l146 594h74l-185 -705h-74l-148 588l-148 -588h-74z" />
<glyph unicode="&#x1e81;" horiz-adv-x="670" d="M265 690l96 -140h-50l-105 140h59zM156 -5l-136 505h69l106 -426l104 426h70l106 -424l105 424h69l-136 -505h-75l-103 423l-103 -423h-76z" />
<glyph unicode="&#x1e82;" horiz-adv-x="853" d="M497 890l-96 -140h50l105 140h-59zM205 -5l-186 705h77l146 -594l149 594h76l147 -594l146 594h74l-185 -705h-74l-148 588l-148 -588h-74z" />
<glyph unicode="&#x1e83;" horiz-adv-x="670" d="M406 690l-96 -140h50l105 140h-59zM156 -5l-136 505h69l106 -426l104 426h70l106 -424l105 424h69l-136 -505h-75l-103 423l-103 -423h-76z" />
<glyph unicode="&#x1e84;" horiz-adv-x="853" d="M286 904v-131h70v131h-70zM499 904v-131h70v131h-70zM205 -5l-186 705h77l146 -594l149 594h76l147 -594l146 594h74l-185 -705h-74l-148 588l-148 -588h-74z" />
<glyph unicode="&#x1e85;" horiz-adv-x="670" d="M194 704v-131h70v131h-70zM407 704v-131h70v131h-70zM156 -5l-136 505h69l106 -426l104 426h70l106 -424l105 424h69l-136 -505h-75l-103 423l-103 -423h-76z" />
<glyph unicode="&#x1e9e;" horiz-adv-x="561" d="M472 559v-35q0 -106 -92 -146q64 -14 103 -56t39 -112v-29q0 -90 -60.5 -135.5t-150.5 -45.5h-99v59h96q64 0 105.5 30t41.5 95v30q0 62 -42 93t-105 31h-96v60h46q61 0 102.5 29.5t41.5 91.5v44q0 57 -34 86t-86 29t-86 -29t-34 -86v-563h-70v451h-67v49h67v59 q0 89 54 130t136 41t136 -41t54 -130z" />
<glyph unicode="&#x1ef2;" horiz-adv-x="551" d="M205 890l96 -140h-50l-105 140h59zM8 700h78l189 -363l191 363h78l-233 -432v-268h-73v268z" />
<glyph unicode="&#x1ef3;" horiz-adv-x="448" d="M154 690l96 -140h-50l-105 140h59zM432 500l-199 -573q-27 -81 -62 -109t-92 -28q-30 0 -76 10l6 54q31 -10 65 -10q40 0 59.5 17t35.5 61l27 73h-8l-172 505h71l140 -423l136 423h69z" />
<glyph unicode="&#x2012;" horiz-adv-x="599" d="M55 383h490v-56h-490v56z" />
<glyph unicode="&#x2013;" horiz-adv-x="594" d="M52 278h490v-56h-490v56z" />
<glyph unicode="&#x2014;" horiz-adv-x="694" d="M52 278h590v-56h-590v56z" />
<glyph unicode="&#x2018;" horiz-adv-x="190" d="M65 465h63v98l-21 137h-42v-235z" />
<glyph unicode="&#x2019;" horiz-adv-x="189" d="M123 465h-41l-22 137v98h63v-235z" />
<glyph unicode="&#x201a;" horiz-adv-x="193" d="M128 -137h-42l-21 137v98h63v-235z" />
<glyph unicode="&#x201c;" horiz-adv-x="405" d="M65 700h42l21 -137v-98h-63v235zM280 700h42l21 -137v-98h-63v235z" />
<glyph unicode="&#x201d;" horiz-adv-x="403" d="M123 465h-41l-22 137v98h63v-235zM338 465h-42l-21 137v98h63v-235z" />
<glyph unicode="&#x201e;" horiz-adv-x="407" d="M128 -137h-42l-21 137v98h63v-235zM343 -137h-42l-21 137v98h63v-235z" />
<glyph unicode="&#x2020;" horiz-adv-x="356" d="M38 521v52h103v127h74v-127h103v-52h-103v-521h-74v521h-103z" />
<glyph unicode="&#x2021;" horiz-adv-x="376" d="M225 0h-74v127h-104v52h104v342h-104v52h104v127h74v-127h103v-52h-103v-342h103v-52h-103v-127z" />
<glyph unicode="&#x2022;" horiz-adv-x="204" d="M67 413v-106h70v106h-70z" />
<glyph unicode="&#x2024;" horiz-adv-x="193" d="M65 98v-98h63v98h-63z" />
<glyph unicode="&#x2025;" horiz-adv-x="407" d="M65 98v-98h63v98h-63zM280 98v-98h63v98h-63z" />
<glyph unicode="&#x2026;" horiz-adv-x="622" d="M65 98v-98h63v98h-63zM280 98v-98h63v98h-63zM494 98v-98h63v98h-63z" />
<glyph unicode="&#x2030;" horiz-adv-x="1128" d="M323 592v-198q0 -54 -39.5 -85.5t-97.5 -31.5t-98 31.5t-40 85.5v198q0 55 40 86.5t98 31.5t97.5 -31.5t39.5 -86.5zM562 700l-380 -700h40l380 700h-40zM95 592v-198q0 -37 26 -57.5t65 -20.5q38 0 64.5 20.5t26.5 57.5v198q0 37 -26.5 58.5t-64.5 21.5q-39 0 -65 -21.5 t-26 -58.5zM739 309v-198q0 -55 -39.5 -86t-97.5 -31q-59 0 -98.5 31t-39.5 86v198q0 55 39.5 86t98.5 31q58 0 97.5 -31t39.5 -86zM1080 309v-198q0 -55 -39.5 -86t-97.5 -31t-98 31t-40 86v198q0 55 40 86t98 31t97.5 -31t39.5 -86zM510 309v-198q0 -37 26.5 -58t65.5 -21 q38 0 64 21t26 58v198q0 37 -26 58t-64 21q-39 0 -65.5 -21t-26.5 -58zM851 309v-198q0 -37 26.5 -58t65.5 -21q38 0 64.5 21t26.5 58v198q0 37 -26.5 58t-64.5 21q-39 0 -65.5 -21t-26.5 -58z" />
<glyph unicode="&#x2039;" horiz-adv-x="335" d="M97 250v-2l184 -158v-61l-250 194v53l250 195v-61z" />
<glyph unicode="&#x203a;" horiz-adv-x="335" d="M238 250v-2l-184 -158v-61l251 194v53l-251 195v-61z" />
<glyph unicode="&#x203c;" horiz-adv-x="447" d="M151 700v-300l-10 -222h-53l-10 222v300h73zM369 700v-300l-10 -222h-52l-11 222v300h73zM78 98v-98h73v98h-73zM296 98v-98h73v98h-73z" />
<glyph unicode="&#x2044;" horiz-adv-x="180" d="M261 700l-380 -700h40l380 700h-40z" />
<glyph unicode="&#x2070;" horiz-adv-x="357" d="M316 716v-198q0 -55 -39.5 -86t-97.5 -31t-98 31t-40 86v198q0 55 40 86t98 31t97.5 -31t39.5 -86zM87 716v-198q0 -37 26.5 -58t65.5 -21q38 0 64.5 21t26.5 58v198q0 37 -26.5 58t-64.5 21q-39 0 -65.5 -21t-26.5 -58z" />
<glyph unicode="&#x2074;" horiz-adv-x="348" d="M16 520v38l203 269h47v-269h64v-38h-64v-113h-47v113h-203zM67 558h152v202z" />
<glyph unicode="&#x2075;" horiz-adv-x="338" d="M90 669h81q59 0 98.5 -30.5t39.5 -85.5v-35q0 -55 -40 -86t-98 -31t-97 31t-39 86v20h45v-20q0 -37 26 -58t65 -21q38 0 64.5 21t26.5 58v35q0 37 -26.5 58t-64.5 21h-126v195h243v-38h-198v-120z" />
<glyph unicode="&#x2076;" horiz-adv-x="349" d="M87 646h92q58 0 97.5 -30.5t39.5 -85.5v-12q0 -55 -39.5 -86t-97.5 -31t-98 31t-40 86v198q0 55 40 86t98 31q57 0 94 -31t37 -86v-20h-44v20q0 38 -24.5 58.5t-62.5 20.5q-39 0 -65.5 -21t-26.5 -58v-70zM270 518v12q0 37 -26.5 58t-64.5 21h-92v-91q0 -37 26.5 -58 t65.5 -21q38 0 64.5 21t26.5 58z" />
<glyph unicode="&#x2077;" horiz-adv-x="288" d="M279 827v-38q-155 -184 -155 -382h-49q0 99 42 199.5t116 182.5h-216v38h262z" />
<glyph unicode="&#x2078;" horiz-adv-x="346" d="M304 724v-5q0 -69 -69 -98q76 -28 76 -100v-8q0 -54 -39.5 -83t-98.5 -29t-98.5 29t-39.5 83v8q0 74 77 100q-32 14 -51 40t-19 58v5q0 52 36.5 80.5t94.5 28.5t94.5 -28.5t36.5 -80.5zM86 719v-3q0 -33 25 -55t62 -22t62 22t25 55v3q0 36 -24.5 56t-62.5 20t-62.5 -20 t-24.5 -56zM264 517v7q0 35 -27 56.5t-64 21.5q-38 0 -64.5 -21.5t-26.5 -56.5v-7q0 -37 26 -57.5t65 -20.5q38 0 64.5 20.5t26.5 57.5z" />
<glyph unicode="&#x2079;" horiz-adv-x="349" d="M32 704v12q0 55 40 86t99 31q58 0 97.5 -31t39.5 -86v-198q0 -55 -39.5 -86t-97.5 -31t-95.5 31t-37.5 86v20h45v-20q0 -38 25 -58.5t63 -20.5t64 21t26 58v70h-90q-59 0 -99 30.5t-40 85.5zM261 625v91q0 37 -26 58t-64 21q-39 0 -65.5 -21t-26.5 -58v-12 q0 -37 26.5 -58t65.5 -21h90z" />
<glyph unicode="&#x20a1;" horiz-adv-x="574" d="M449 450v66q0 13 -4 35l-309 -355v-12q0 -66 44 -100.5t111 -34.5q66 0 112 35t46 100v66h70v-66q0 -91 -66 -142.5t-162 -51.5t-162 51.5t-66 142.5v332q0 91 66 142.5t162 51.5t162 -51.5t66 -142.5v-66h-70zM136 349l243 281q-39 21 -88 21q-66 0 -110.5 -36 t-44.5 -99v-167zM136 226l301 346q-14 29 -41 48l-260 -301v-93z" />
<glyph unicode="&#x20a8;" horiz-adv-x="659" d="M621 648h-132q34 -33 45 -89h87v-53h-84v-17q0 -133 -122 -164q87 -26 106 -149l28 -176h-74l-26 171q-12 78 -47.5 100.5t-105.5 22.5h-228v52h261q134 0 134 125v35h-395v53h391q-20 89 -130 89h-261v52h553v-52z" />
<glyph unicode="&#x20ac;" horiz-adv-x="609" d="M483 450v66q0 63 -46.5 99t-111.5 36t-109.5 -36t-44.5 -99v-75h134v-42h-134v-90h134v-42h-134v-83q0 -66 44 -100.5t110 -34.5t112 35t46 100v66h70v-66q0 -91 -66 -142.5t-162 -51.5t-162 51.5t-66 142.5v83h-56v42h56v90h-56v42h56v75q0 91 66 142.5t162 51.5 t162 -51.5t66 -142.5v-66h-70z" />
<glyph unicode="&#x2113;" horiz-adv-x="450" d="M121 266v243q0 102 40 151q42 50 100 50q44 0 70 -27t26 -72q0 -51 -31 -112q-31 -63 -129 -176v-168q0 -75 23 -106q22 -29 60 -29q35 0 64 29q32 29 54 103h18q-21 -83 -68 -127q-37 -35 -89 -35q-43 0 -77.5 24.5t-49.5 65.5q-11 33 -11 107v52l-82 -83l-12 11z M197 543v-193q134 155 134 242q0 41 -19 65t-48 24t-48 -28t-19 -110z" />
<glyph unicode="&#x2116;" horiz-adv-x="969" d="M914 607v-106q0 -53 -32.5 -78t-81.5 -25t-81.5 25t-32.5 78v106q0 53 32.5 78t81.5 25t81.5 -25t32.5 -78zM489 0l-348 576q6 -112 6 -182v-394h-70v700h77l344 -576q-5 91 -5 182v394h70v-700h-74zM731 610v-112q0 -33 19.5 -50t49.5 -17t49.5 17t19.5 50v112 q0 33 -19.5 50t-49.5 17t-49.5 -17t-19.5 -50zM686 352h228v-35h-228v35z" />
<glyph unicode="&#x2122;" horiz-adv-x="754" d="M153 280v382h-103v38h249v-38h-99v-382h-47zM635 280v232q0 46 3 115l-101 -181h-38l-101 185q4 -102 4 -119v-232h-45v420h50l115 -202l113 202h46v-420h-46z" />
<glyph unicode="&#x212e;" horiz-adv-x="762" d="M195 349v-235q81 -78 190 -78q163 0 252 157l46 -26q-67 -96 -132.5 -136.5t-165.5 -40.5q-150 0 -244 102.5t-94 256.5q0 156 94.5 258.5t243.5 102.5q142 0 236.5 -94.5t101.5 -266.5h-528zM575 397v189q-82 77 -191 77q-110 0 -189 -77v-189h380z" />
<glyph unicode="&#x215b;" horiz-adv-x="797" d="M28 700h139v-382h91v-38h-230v38h92v344h-92v38zM192 0h-40l380 700h40zM755 317v-5q0 -69 -69 -98q76 -28 76 -100v-8q0 -54 -39.5 -83t-98.5 -29t-98.5 29t-39.5 83v8q0 74 77 100q-32 14 -51 40t-19 58v5q0 52 36.5 80.5t94.5 28.5t94.5 -28.5t36.5 -80.5zM537 312v-3 q0 -33 25 -55t62 -22t62 22t25 55v3q0 36 -24.5 56t-62.5 20t-62.5 -20t-24.5 -56zM715 110v7q0 35 -27 56.5t-64 21.5q-38 0 -64.5 -21.5t-26.5 -56.5v-7q0 -37 26 -57.5t65 -20.5q38 0 64.5 20.5t26.5 57.5z" />
<glyph unicode="&#x215c;" horiz-adv-x="868" d="M307 401v-15q0 -54 -39.5 -83t-97.5 -29q-59 0 -99 31t-40 86v20h47v-20q0 -37 26.5 -58t65.5 -21q38 0 64 20.5t26 57.5v13q0 36 -26.5 57.5t-63.5 21.5h-30v37h30q37 0 61.5 20t24.5 53v3q0 36 -24 54.5t-62 18.5t-63 -20.5t-25 -58.5v-20h-45v20q0 55 37.5 86t95.5 31 t94 -27t36 -79v-5q0 -69 -68 -94q75 -27 75 -100zM264 0h-40l380 700h40zM827 317v-5q0 -69 -69 -98q76 -28 76 -100v-8q0 -54 -39.5 -83t-98.5 -29t-98.5 29t-39.5 83v8q0 74 77 100q-32 14 -51 40t-19 58v5q0 52 36.5 80.5t94.5 28.5t94.5 -28.5t36.5 -80.5zM609 312v-3 q0 -33 25 -55t62 -22t62 22t25 55v3q0 36 -24.5 56t-62.5 20t-62.5 -20t-24.5 -56zM787 110v7q0 35 -27 56.5t-64 21.5q-38 0 -64.5 -21.5t-26.5 -56.5v-7q0 -37 26 -57.5t65 -20.5q38 0 64.5 20.5t26.5 57.5z" />
<glyph unicode="&#x215d;" horiz-adv-x="863" d="M309 426v-35q0 -55 -40 -86t-98 -31t-97 31t-39 86v20h45v-20q0 -37 26 -58t65 -21q38 0 64.5 21t26.5 58v35q0 37 -26.5 58t-64.5 21h-126v195h243v-38h-198v-120h81q59 0 98.5 -30.5t39.5 -85.5zM258 0h-40l380 700h40zM821 317v-5q0 -69 -69 -98q76 -28 76 -100v-8 q0 -54 -39.5 -83t-98.5 -29t-98.5 29t-39.5 83v8q0 74 77 100q-32 14 -51 40t-19 58v5q0 52 36.5 80.5t94.5 28.5t94.5 -28.5t36.5 -80.5zM603 312v-3q0 -33 25 -55t62 -22t62 22t25 55v3q0 36 -24.5 56t-62.5 20t-62.5 -20t-24.5 -56zM781 110v7q0 35 -27 56.5t-64 21.5 q-38 0 -64.5 -21.5t-26.5 -56.5v-7q0 -37 26 -57.5t65 -20.5q38 0 64.5 20.5t26.5 57.5z" />
<glyph unicode="&#x215e;" horiz-adv-x="772" d="M279 700v-38q-155 -184 -155 -382h-49q0 99 42 199.5t116 182.5h-216v38h262zM167 0h-40l380 700h40zM730 317v-5q0 -69 -69 -98q76 -28 76 -100v-8q0 -54 -39.5 -83t-98.5 -29t-98.5 29t-39.5 83v8q0 74 77 100q-32 14 -51 40t-19 58v5q0 52 36.5 80.5t94.5 28.5 t94.5 -28.5t36.5 -80.5zM512 312v-3q0 -33 25 -55t62 -22t62 22t25 55v3q0 36 -24.5 56t-62.5 20t-62.5 -20t-24.5 -56zM690 110v7q0 35 -27 56.5t-64 21.5q-38 0 -64.5 -21.5t-26.5 -56.5v-7q0 -37 26 -57.5t65 -20.5q38 0 64.5 20.5t26.5 57.5z" />
<glyph unicode="&#x2202;" horiz-adv-x="604" d="M176 710h178q109 0 162.5 -50.5t37.5 -143.5l-58 -332q-17 -91 -92 -142.5t-171 -51.5t-152.5 51.5t-40.5 142.5l10 61q17 91 91.5 142t170.5 51h155l14 78q11 63 -27.5 99t-103.5 36h-185zM456 378h-154q-65 0 -116 -35t-62 -98l-11 -61q-11 -63 27.5 -99t103.5 -36 t116 36t62 99z" />
<glyph unicode="&#x2205;" horiz-adv-x="582" d="M502 700l-31 -58q48 -51 48 -126v-332q0 -91 -66 -142.5t-162 -51.5q-88 0 -151 43l-18 -33h-40l31 56q-50 52 -50 128v332q0 91 66 142.5t162 51.5q90 0 152 -44l19 34h40zM136 516v-332q0 -32 13 -60l262 482q-45 45 -120 45q-66 0 -110.5 -36t-44.5 -99zM445 184v332 q0 32 -12 57l-261 -480q44 -44 119 -44q65 0 109.5 36t44.5 99z" />
<glyph unicode="&#x220f;" horiz-adv-x="623" d="M152 0h-74v700h466v-700h-73v641h-319v-641z" />
<glyph unicode="&#x2211;" horiz-adv-x="503" d="M456 0h-415v59l168 296l-168 286v59h415v-59h-341l165 -286l-165 -296h341v-59z" />
<glyph unicode="&#x2212;" horiz-adv-x="449" d="M55 383h340v-56h-340v56z" />
<glyph unicode="&#x221a;" horiz-adv-x="674" d="M581 700l-190 -609l-92 292h-261v-56h206l108 -332h74l233 705h-78z" />
<glyph unicode="&#x221e;" horiz-adv-x="729" d="M361 218q-22 -46 -66 -79.5t-102 -33.5q-66 0 -104.5 39.5t-38.5 105.5q0 65 41.5 105t113.5 40q97 0 162 -116q65 116 169 116q66 0 105 -39.5t39 -105.5q0 -62 -41 -103.5t-112 -41.5q-47 0 -91.5 29t-74.5 84zM528 355q-44 0 -81 -33t-57 -74q17 -40 56.5 -70.5 t80.5 -30.5q54 0 81.5 30t27.5 73q0 44 -27 74.5t-81 30.5zM201 145q45 0 81 32t55 70q-18 41 -56 73.5t-78 32.5q-54 0 -82 -30t-28 -74q0 -43 27 -73.5t81 -30.5z" />
<glyph unicode="&#x222b;" horiz-adv-x="360" d="M145 612v-697q0 -37 -14.5 -54t-52.5 -17q-23 0 -57 8l-5 -52q46 -10 84 -10q56 0 85.5 26t29.5 92v697q0 37 14.5 54t52.5 17q23 0 57 -8l5 52q-46 10 -84 10q-56 0 -85.5 -26t-29.5 -92z" />
<glyph unicode="&#x2248;" horiz-adv-x="429" d="M324 480h42q0 -50 -21 -73t-54 -23q-27 0 -75 25t-65 25t-29 -12t-12 -38h-42q0 49 21 72.5t53 23.5q27 0 75.5 -25.5t65.5 -25.5t29 12.5t12 38.5zM324 330h42q0 -50 -21 -73t-54 -23q-27 0 -75 25t-65 25t-29 -12t-12 -38h-42q0 49 21 72.5t53 23.5q27 0 75.5 -25.5 t65.5 -25.5t29 12.5t12 38.5z" />
<glyph unicode="&#x2260;" horiz-adv-x="469" d="M133 110h-40l72 143h-99v56h127l46 92h-173v56h201l72 143h40l-72 -143h99v-56h-127l-46 -92h173v-56h-201z" />
<glyph unicode="&#x2264;" horiz-adv-x="423" d="M148 430v-2l204 -73v-57l-285 105v52l285 106v-56zM67 223h285v-56h-285v56z" />
<glyph unicode="&#x2265;" horiz-adv-x="423" d="M275 430v-2l-205 -73v-57l286 105v52l-286 106v-56zM356 223h-286v-56h286v56z" />
<glyph unicode="&#x25ca;" horiz-adv-x="474" d="M222 -5h31l195 355l-195 355h-31l-195 -355zM238 52h-2l-162 298l162 298h2l163 -298z" />
<glyph unicode="&#x25fc;" horiz-adv-x="500" d="M0 500h500v-500h-500v500z" />
<glyph unicode="&#xfb00;" horiz-adv-x="576" d="M564 720l-5 -52q-34 8 -57 8q-38 0 -52.5 -17t-14.5 -54v-105h121v-49h-121v-451h-70v451h-205v-451h-70v451h-67v49h67v112q0 66 29.5 92t85.5 26q40 0 84 -10l-5 -52q-32 8 -57 8q-37 0 -52 -17.5t-15 -53.5v-105h205v112q0 66 29.5 92t85.5 26q38 0 84 -10z" />
<glyph unicode="&#xfb01;" horiz-adv-x="499" d="M365 666h-138q-37 0 -52 -17.5t-15 -53.5v-95h121v-49h-121v-451h-70v451h-67v49h67v102q0 66 29.5 92t85.5 26h230v-147h-70v93zM435 500v-500h-70v500h70z" />
<glyph unicode="&#xfb02;" horiz-adv-x="499" d="M365 666h-138q-37 0 -52 -17.5t-15 -53.5v-95h121v-49h-121v-451h-70v451h-67v49h67v102q0 66 29.5 92t85.5 26h230v-720h-70v666z" />
<glyph unicode="&#xfb03;" horiz-adv-x="774" d="M640 666h-138q-38 0 -52.5 -17t-14.5 -54v-95h121v-49h-121v-451h-70v451h-205v-451h-70v451h-67v49h67v112q0 66 29.5 92t85.5 26q40 0 84 -10l-5 -52q-32 8 -57 8q-37 0 -52 -17.5t-15 -53.5v-105h205v102q0 66 29.5 92t85.5 26h230v-147h-70v93zM710 500v-500h-70v500 h70z" />
<glyph unicode="&#xfb04;" horiz-adv-x="774" d="M640 666h-138q-38 0 -52.5 -17t-14.5 -54v-95h121v-49h-121v-451h-70v451h-205v-451h-70v451h-67v49h67v112q0 66 29.5 92t85.5 26q40 0 84 -10l-5 -52q-32 8 -57 8q-37 0 -52 -17.5t-15 -53.5v-105h205v102q0 66 29.5 92t85.5 26h230v-720h-70v666z" />
<glyph horiz-adv-x="472" d="M351 0l-7 89q-44 -99 -160 -99q-76 0 -113 40.5t-37 92.5v12q0 35 14 62t47 50t95 36t150 14v58q0 56 -33 79.5t-82 23.5q-48 0 -81 -24t-33 -79v-25h-63v25q0 82 51.5 118.5t125.5 36.5q36 0 67 -8t58.5 -24.5t43.5 -48t16 -74.5v-355h-59zM340 190v67q-134 -2 -185 -32 t-51 -81v-9q0 -39 26.5 -65t80.5 -26q56 0 92.5 36t36.5 110z" />
<glyph horiz-adv-x="472" d="M296 690l-96 -140h50l105 140h-59zM351 0l-7 89q-44 -99 -160 -99q-76 0 -113 40.5t-37 92.5v12q0 35 14 62t47 50t95 36t150 14v58q0 56 -33 79.5t-82 23.5q-48 0 -81 -24t-33 -79v-25h-63v25q0 82 51.5 118.5t125.5 36.5q36 0 67 -8t58.5 -24.5t43.5 -48t16 -74.5v-355 h-59zM340 190v67q-134 -2 -185 -32t-51 -81v-9q0 -39 26.5 -65t80.5 -26q56 0 92.5 36t36.5 110z" />
<glyph horiz-adv-x="472" d="M133 690h-34q0 -65 35 -102.5t92 -37.5t92 37.5t35 102.5h-35q0 -40 -22.5 -69.5t-69.5 -29.5q-48 0 -70.5 29.5t-22.5 69.5zM351 0l-7 89q-44 -99 -160 -99q-76 0 -113 40.5t-37 92.5v12q0 35 14 62t47 50t95 36t150 14v58q0 56 -33 79.5t-82 23.5q-48 0 -81 -24 t-33 -79v-25h-63v25q0 82 51.5 118.5t125.5 36.5q36 0 67 -8t58.5 -24.5t43.5 -48t16 -74.5v-355h-59zM340 190v67q-134 -2 -185 -32t-51 -81v-9q0 -39 26.5 -65t80.5 -26q56 0 92.5 36t36.5 110z" />
<glyph horiz-adv-x="472" d="M299 550l-74 102l-74 -102h-55l102 140h54l102 -140h-55zM351 0l-7 89q-44 -99 -160 -99q-76 0 -113 40.5t-37 92.5v12q0 35 14 62t47 50t95 36t150 14v58q0 56 -33 79.5t-82 23.5q-48 0 -81 -24t-33 -79v-25h-63v25q0 82 51.5 118.5t125.5 36.5q36 0 67 -8t58.5 -24.5 t43.5 -48t16 -74.5v-355h-59zM340 190v67q-134 -2 -185 -32t-51 -81v-9q0 -39 26.5 -65t80.5 -26q56 0 92.5 36t36.5 110z" />
<glyph horiz-adv-x="472" d="M84 704v-131h70v131h-70zM297 704v-131h70v131h-70zM351 0l-7 89q-44 -99 -160 -99q-76 0 -113 40.5t-37 92.5v12q0 35 14 62t47 50t95 36t150 14v58q0 56 -33 79.5t-82 23.5q-48 0 -81 -24t-33 -79v-25h-63v25q0 82 51.5 118.5t125.5 36.5q36 0 67 -8t58.5 -24.5 t43.5 -48t16 -74.5v-355h-59zM340 190v67q-134 -2 -185 -32t-51 -81v-9q0 -39 26.5 -65t80.5 -26q56 0 92.5 36t36.5 110z" />
<glyph horiz-adv-x="472" d="M155 690l96 -140h-50l-105 140h59zM351 0l-7 89q-44 -99 -160 -99q-76 0 -113 40.5t-37 92.5v12q0 35 14 62t47 50t95 36t150 14v58q0 56 -33 79.5t-82 23.5q-48 0 -81 -24t-33 -79v-25h-63v25q0 82 51.5 118.5t125.5 36.5q36 0 67 -8t58.5 -24.5t43.5 -48t16 -74.5v-355 h-59zM340 190v67q-134 -2 -185 -32t-51 -81v-9q0 -39 26.5 -65t80.5 -26q56 0 92.5 36t36.5 110z" />
<glyph horiz-adv-x="472" d="M73 625h305v-46h-305v46zM351 0l-7 89q-44 -99 -160 -99q-76 0 -113 40.5t-37 92.5v12q0 35 14 62t47 50t95 36t150 14v58q0 56 -33 79.5t-82 23.5q-48 0 -81 -24t-33 -79v-25h-63v25q0 82 51.5 118.5t125.5 36.5q36 0 67 -8t58.5 -24.5t43.5 -48t16 -74.5v-355h-59z M340 190v67q-134 -2 -185 -32t-51 -81v-9q0 -39 26.5 -65t80.5 -26q56 0 92.5 36t36.5 110z" />
<glyph horiz-adv-x="472" d="M439 -150l8 -26q-37 -29 -87 -29q-34 0 -58 18t-24 51q0 36 24 73t62 63h-13l-7 89q-44 -99 -160 -99q-76 0 -113 40.5t-37 92.5v12q0 35 14 62t47 50t95 36t150 14v58q0 56 -33 79.5t-82 23.5q-48 0 -81 -24t-33 -79v-25h-63v25q0 82 51.5 118.5t125.5 36.5q36 0 67 -8 t58.5 -24.5t43.5 -48t16 -74.5v-355h-11q-28 -23 -49.5 -58t-21.5 -62q0 -50 50 -50q26 0 61 20zM340 190v67q-134 -2 -185 -32t-51 -81v-9q0 -39 26.5 -65t80.5 -26q56 0 92.5 36t36.5 110z" />
<glyph horiz-adv-x="472" d="M225 540q-53 0 -83 23t-30 67t30 67t83 23q54 0 84 -23t30 -67t-30 -67t-84 -23zM225 692q-35 0 -53.5 -17t-18.5 -45t18.5 -45t53.5 -17q36 0 54.5 17t18.5 45t-18.5 45t-54.5 17zM351 0l-7 89q-44 -99 -160 -99q-76 0 -113 40.5t-37 92.5v12q0 35 14 62t47 50t95 36 t150 14v58q0 56 -33 79.5t-82 23.5q-48 0 -81 -24t-33 -79v-25h-63v25q0 82 51.5 118.5t125.5 36.5q36 0 67 -8t58.5 -24.5t43.5 -48t16 -74.5v-355h-59zM340 190v67q-134 -2 -185 -32t-51 -81v-9q0 -39 26.5 -65t80.5 -26q56 0 92.5 36t36.5 110z" />
<glyph horiz-adv-x="472" d="M332 653h42q0 -50 -21 -73.5t-53 -23.5q-27 0 -75.5 25.5t-65.5 25.5t-29 -12.5t-12 -38.5h-42q0 50 21.5 73.5t53.5 23.5q27 0 75 -25.5t65 -25.5t29 12.5t12 38.5zM351 0l-7 89q-44 -99 -160 -99q-76 0 -113 40.5t-37 92.5v12q0 35 14 62t47 50t95 36t150 14v58 q0 56 -33 79.5t-82 23.5q-48 0 -81 -24t-33 -79v-25h-63v25q0 82 51.5 118.5t125.5 36.5q36 0 67 -8t58.5 -24.5t43.5 -48t16 -74.5v-355h-59zM340 190v67q-134 -2 -185 -32t-51 -81v-9q0 -39 26.5 -65t80.5 -26q56 0 92.5 36t36.5 110z" />
<glyph horiz-adv-x="456" d="M357 170v-15q0 -57 -33.5 -85t-84.5 -28t-84.5 29t-33.5 86v186q0 57 33.5 86t84.5 29t84.5 -28t33.5 -85v-15h63v15q0 87 -51.5 126t-129.5 39q-80 0 -134 -41.5t-54 -129.5v-178q0 -88 54 -129.5t134 -41.5q78 0 129.5 39t51.5 126v15h-63z" />
<glyph horiz-adv-x="456" d="M309 690l-96 -140h50l105 140h-59zM357 170v-15q0 -57 -33.5 -85t-84.5 -28t-84.5 29t-33.5 86v186q0 57 33.5 86t84.5 29t84.5 -28t33.5 -85v-15h63v15q0 87 -51.5 126t-129.5 39q-80 0 -134 -41.5t-54 -129.5v-178q0 -88 54 -129.5t134 -41.5q78 0 129.5 39t51.5 126 v15h-63z" />
<glyph horiz-adv-x="456" d="M313 690l-74 -102l-74 102h-55l102 -140h54l102 140h-55zM357 170v-15q0 -57 -33.5 -85t-84.5 -28t-84.5 29t-33.5 86v186q0 57 33.5 86t84.5 29t84.5 -28t33.5 -85v-15h63v15q0 87 -51.5 126t-129.5 39q-80 0 -134 -41.5t-54 -129.5v-178q0 -88 54 -129.5t134 -41.5 q78 0 129.5 39t51.5 126v15h-63z" />
<glyph horiz-adv-x="456" d="M357 330v15q0 57 -33.5 85t-84.5 28t-84.5 -29t-33.5 -86v-186q0 -57 33.5 -86t84.5 -29t84.5 28t33.5 85v15h63v-15q0 -83 -46.5 -122t-119.5 -43v-40h10q100 0 100 -82v-8q0 -44 -28 -68t-72 -24q-64 0 -107 20l9 31q45 -18 91 -18q30 0 46 15.5t16 43.5v5q0 52 -69 52 h-27v73q-74 4 -123 45.5t-49 125.5v178q0 88 54 129.5t134 41.5q78 0 129.5 -39t51.5 -126v-15h-63z" />
<glyph horiz-adv-x="456" d="M313 550l-74 102l-74 -102h-55l102 140h54l102 -140h-55zM357 170v-15q0 -57 -33.5 -85t-84.5 -28t-84.5 29t-33.5 86v186q0 57 33.5 86t84.5 29t84.5 -28t33.5 -85v-15h63v15q0 87 -51.5 126t-129.5 39q-80 0 -134 -41.5t-54 -129.5v-178q0 -88 54 -129.5t134 -41.5 q78 0 129.5 39t51.5 126v15h-63z" />
<glyph horiz-adv-x="456" d="M204 704v-131h70v131h-70zM357 170v-15q0 -57 -33.5 -85t-84.5 -28t-84.5 29t-33.5 86v186q0 57 33.5 86t84.5 29t84.5 -28t33.5 -85v-15h63v15q0 87 -51.5 126t-129.5 39q-80 0 -134 -41.5t-54 -129.5v-178q0 -88 54 -129.5t134 -41.5q78 0 129.5 39t51.5 126v15h-63z " />
<glyph horiz-adv-x="466" d="M120 239v-82q0 -57 33.5 -86t84.5 -29t84.5 28t33.5 85v15h63v-15q0 -87 -51.5 -126t-129.5 -39q-80 0 -134 41.5t-54 129.5v178q0 88 54 129.5t134 41.5q77 0 129 -40.5t52 -128.5v-102h-299zM356 286v59q0 57 -33.5 85t-84.5 28t-84.5 -29t-33.5 -86v-57h236z" />
<glyph horiz-adv-x="466" d="M303 690l-96 -140h50l105 140h-59zM120 239v-82q0 -57 33.5 -86t84.5 -29t84.5 28t33.5 85v15h63v-15q0 -87 -51.5 -126t-129.5 -39q-80 0 -134 41.5t-54 129.5v178q0 88 54 129.5t134 41.5q77 0 129 -40.5t52 -128.5v-102h-299zM356 286v59q0 57 -33.5 85t-84.5 28 t-84.5 -29t-33.5 -86v-57h236z" />
<glyph horiz-adv-x="466" d="M140 690h-34q0 -65 35 -102.5t92 -37.5t92 37.5t35 102.5h-35q0 -40 -22.5 -69.5t-69.5 -29.5q-48 0 -70.5 29.5t-22.5 69.5zM120 239v-82q0 -57 33.5 -86t84.5 -29t84.5 28t33.5 85v15h63v-15q0 -87 -51.5 -126t-129.5 -39q-80 0 -134 41.5t-54 129.5v178q0 88 54 129.5 t134 41.5q77 0 129 -40.5t52 -128.5v-102h-299zM356 286v59q0 57 -33.5 85t-84.5 28t-84.5 -29t-33.5 -86v-57h236z" />
<glyph horiz-adv-x="466" d="M307 690l-74 -102l-74 102h-55l102 -140h54l102 140h-55zM120 239v-82q0 -57 33.5 -86t84.5 -29t84.5 28t33.5 85v15h63v-15q0 -87 -51.5 -126t-129.5 -39q-80 0 -134 41.5t-54 129.5v178q0 88 54 129.5t134 41.5q77 0 129 -40.5t52 -128.5v-102h-299zM356 286v59 q0 57 -33.5 85t-84.5 28t-84.5 -29t-33.5 -86v-57h236z" />
<glyph horiz-adv-x="466" d="M307 550l-74 102l-74 -102h-55l102 140h54l102 -140h-55zM120 239v-82q0 -57 33.5 -86t84.5 -29t84.5 28t33.5 85v15h63v-15q0 -87 -51.5 -126t-129.5 -39q-80 0 -134 41.5t-54 129.5v178q0 88 54 129.5t134 41.5q77 0 129 -40.5t52 -128.5v-102h-299zM356 286v59 q0 57 -33.5 85t-84.5 28t-84.5 -29t-33.5 -86v-57h236z" />
<glyph horiz-adv-x="466" d="M91 704v-131h70v131h-70zM304 704v-131h70v131h-70zM120 239v-82q0 -57 33.5 -86t84.5 -29t84.5 28t33.5 85v15h63v-15q0 -87 -51.5 -126t-129.5 -39q-80 0 -134 41.5t-54 129.5v178q0 88 54 129.5t134 41.5q77 0 129 -40.5t52 -128.5v-102h-299zM356 286v59 q0 57 -33.5 85t-84.5 28t-84.5 -29t-33.5 -86v-57h236z" />
<glyph horiz-adv-x="466" d="M198 704v-131h70v131h-70zM120 239v-82q0 -57 33.5 -86t84.5 -29t84.5 28t33.5 85v15h63v-15q0 -87 -51.5 -126t-129.5 -39q-80 0 -134 41.5t-54 129.5v178q0 88 54 129.5t134 41.5q77 0 129 -40.5t52 -128.5v-102h-299zM356 286v59q0 57 -33.5 85t-84.5 28t-84.5 -29 t-33.5 -86v-57h236z" />
<glyph horiz-adv-x="466" d="M163 690l96 -140h-50l-105 140h59zM120 239v-82q0 -57 33.5 -86t84.5 -29t84.5 28t33.5 85v15h63v-15q0 -87 -51.5 -126t-129.5 -39q-80 0 -134 41.5t-54 129.5v178q0 88 54 129.5t134 41.5q77 0 129 -40.5t52 -128.5v-102h-299zM356 286v59q0 57 -33.5 85t-84.5 28 t-84.5 -29t-33.5 -86v-57h236z" />
<glyph horiz-adv-x="466" d="M81 625h305v-46h-305v46zM120 239v-82q0 -57 33.5 -86t84.5 -29t84.5 28t33.5 85v15h63v-15q0 -87 -51.5 -126t-129.5 -39q-80 0 -134 41.5t-54 129.5v178q0 88 54 129.5t134 41.5q77 0 129 -40.5t52 -128.5v-102h-299zM356 286v59q0 57 -33.5 85t-84.5 28t-84.5 -29 t-33.5 -86v-57h236z" />
<glyph horiz-adv-x="466" d="M120 239v-82q0 -57 33.5 -86t84.5 -29t84.5 28t33.5 85v15h63v-15q0 -82 -46 -121.5t-118 -43.5q-25 -24 -42.5 -54.5t-17.5 -55.5q0 -50 50 -50q26 0 61 20l8 -26q-37 -29 -87 -29q-34 0 -58 18t-24 51q0 68 73 127q-72 4 -120 45.5t-48 124.5v178q0 88 54 129.5 t134 41.5q77 0 129 -40.5t52 -128.5v-102h-299zM356 286v59q0 57 -33.5 85t-84.5 28t-84.5 -29t-33.5 -86v-57h236z" />
<glyph horiz-adv-x="490" d="M356 101v-144q0 -57 -33.5 -86t-84.5 -29t-84.5 28t-33.5 85v15h-63v-15q0 -87 51.5 -126t129.5 -39q80 0 134 41.5t54 129.5v539h-59l-8 -85q-24 49 -66.5 72t-84.5 23q-78 0 -118 -46.5t-40 -109.5v-188q0 -63 40 -109.5t118 -46.5q41 0 82.5 22.5t65.5 68.5zM356 329 v-138q0 -53 -35 -90t-88 -37q-54 0 -83.5 32.5t-29.5 80.5v166q0 48 29.5 80.5t83.5 32.5q53 0 88 -37t35 -90z" />
<glyph horiz-adv-x="490" d="M153 690h-34q0 -65 35 -102.5t92 -37.5t92 37.5t35 102.5h-35q0 -40 -22.5 -69.5t-69.5 -29.5q-48 0 -70.5 29.5t-22.5 69.5zM356 101v-144q0 -57 -33.5 -86t-84.5 -29t-84.5 28t-33.5 85v15h-63v-15q0 -87 51.5 -126t129.5 -39q80 0 134 41.5t54 129.5v539h-59l-8 -85 q-24 49 -66.5 72t-84.5 23q-78 0 -118 -46.5t-40 -109.5v-188q0 -63 40 -109.5t118 -46.5q41 0 82.5 22.5t65.5 68.5zM356 329v-138q0 -53 -35 -90t-88 -37q-54 0 -83.5 32.5t-29.5 80.5v166q0 48 29.5 80.5t83.5 32.5q53 0 88 -37t35 -90z" />
<glyph horiz-adv-x="490" d="M319 550l-74 102l-74 -102h-55l102 140h54l102 -140h-55zM356 101v-144q0 -57 -33.5 -86t-84.5 -29t-84.5 28t-33.5 85v15h-63v-15q0 -87 51.5 -126t129.5 -39q80 0 134 41.5t54 129.5v539h-59l-8 -85q-24 49 -66.5 72t-84.5 23q-78 0 -118 -46.5t-40 -109.5v-188 q0 -63 40 -109.5t118 -46.5q41 0 82.5 22.5t65.5 68.5zM356 329v-138q0 -53 -35 -90t-88 -37q-54 0 -83.5 32.5t-29.5 80.5v166q0 48 29.5 80.5t83.5 32.5q53 0 88 -37t35 -90z" />
<glyph horiz-adv-x="490" d="M211 704v-131h70v131h-70zM356 101v-144q0 -57 -33.5 -86t-84.5 -29t-84.5 28t-33.5 85v15h-63v-15q0 -87 51.5 -126t129.5 -39q80 0 134 41.5t54 129.5v539h-59l-8 -85q-24 49 -66.5 72t-84.5 23q-78 0 -118 -46.5t-40 -109.5v-188q0 -63 40 -109.5t118 -46.5 q41 0 82.5 22.5t65.5 68.5zM356 329v-138q0 -53 -35 -90t-88 -37q-54 0 -83.5 32.5t-29.5 80.5v166q0 48 29.5 80.5t83.5 32.5q53 0 88 -37t35 -90z" />
<glyph horiz-adv-x="805" d="M62 0v338q0 88 52 130t129 42q54 0 97 -25t63 -74q20 49 63 74t97 25q77 0 129 -41.5t52 -129.5v-339h-70v343q0 57 -33.5 86t-84.5 29t-84.5 -29t-33.5 -86v-343h-70v343q0 57 -33.5 86t-84.5 29t-84.5 -29t-33.5 -86v-343h-70z" />
<glyph horiz-adv-x="499" d="M132 0v343q0 57 33.5 86t84.5 29t84.5 -29t33.5 -86v-343h70v339q0 88 -54 129.5t-134 41.5t-134 -41.5t-54 -129.5v-339h70z" />
<glyph horiz-adv-x="499" d="M320 690l-96 -140h50l105 140h-59zM132 0v343q0 57 33.5 86t84.5 29t84.5 -29t33.5 -86v-343h70v339q0 88 -54 129.5t-134 41.5t-134 -41.5t-54 -129.5v-339h70z" />
<glyph horiz-adv-x="499" d="M324 690l-74 -102l-74 102h-55l102 -140h54l102 140h-55zM132 0v343q0 57 33.5 86t84.5 29t84.5 -29t33.5 -86v-343h70v339q0 88 -54 129.5t-134 41.5t-134 -41.5t-54 -129.5v-339h70z" />
<glyph horiz-adv-x="499" d="M356 653h42q0 -50 -21 -73.5t-53 -23.5q-27 0 -75.5 25.5t-65.5 25.5t-29 -12.5t-12 -38.5h-42q0 50 21.5 73.5t53.5 23.5q27 0 75 -25.5t65 -25.5t29 12.5t12 38.5zM132 0v343q0 57 33.5 86t84.5 29t84.5 -29t33.5 -86v-343h70v339q0 88 -54 129.5t-134 41.5t-134 -41.5 t-54 -129.5v-339h70z" />
<glyph horiz-adv-x="439" d="M46 373v-5q0 -51 29.5 -82.5t72 -44t85 -23t72 -30t29.5 -53.5v-7q0 -43 -32 -64.5t-81 -21.5q-52 0 -87.5 28t-35.5 85v15h-63v-15q0 -87 53.5 -126t132.5 -39q78 0 130.5 34.5t52.5 104.5v8q0 48 -30 77.5t-72 42t-84.5 23.5t-72.5 32t-30 57v5q0 43 28.5 63.5 t76.5 20.5q51 0 83 -28t32 -85v-15h61v15q0 88 -49.5 126.5t-127.5 38.5q-77 0 -125 -33.5t-48 -103.5z" />
<glyph horiz-adv-x="439" d="M290 690l-96 -140h50l105 140h-59zM46 373v-5q0 -51 29.5 -82.5t72 -44t85 -23t72 -30t29.5 -53.5v-7q0 -43 -32 -64.5t-81 -21.5q-52 0 -87.5 28t-35.5 85v15h-63v-15q0 -87 53.5 -126t132.5 -39q78 0 130.5 34.5t52.5 104.5v8q0 48 -30 77.5t-72 42t-84.5 23.5 t-72.5 32t-30 57v5q0 43 28.5 63.5t76.5 20.5q51 0 83 -28t32 -85v-15h61v15q0 88 -49.5 126.5t-127.5 38.5q-77 0 -125 -33.5t-48 -103.5z" />
<glyph horiz-adv-x="439" d="M293 690l-74 -102l-74 102h-55l102 -140h54l102 140h-55zM46 373v-5q0 -51 29.5 -82.5t72 -44t85 -23t72 -30t29.5 -53.5v-7q0 -43 -32 -64.5t-81 -21.5q-52 0 -87.5 28t-35.5 85v15h-63v-15q0 -87 53.5 -126t132.5 -39q78 0 130.5 34.5t52.5 104.5v8q0 48 -30 77.5 t-72 42t-84.5 23.5t-72.5 32t-30 57v5q0 43 28.5 63.5t76.5 20.5q51 0 83 -28t32 -85v-15h61v15q0 88 -49.5 126.5t-127.5 38.5q-77 0 -125 -33.5t-48 -103.5z" />
<glyph horiz-adv-x="439" d="M115 374v-5q0 -36 30 -57t72.5 -32t84.5 -23.5t72 -42t30 -77.5v-8q0 -67 -47.5 -101.5t-120.5 -37.5v-40h10q100 0 100 -82v-8q0 -44 -28 -68t-72 -24q-64 0 -107 20l9 31q45 -18 91 -18q30 0 46 15.5t16 43.5v5q0 52 -69 52h-27v73q-74 4 -122 43t-48 122v15h63v-15 q0 -57 35.5 -85t87.5 -28q49 0 81 21.5t32 64.5v7q0 34 -29.5 53.5t-72 30t-85 23t-72 44t-29.5 82.5v5q0 70 48 103.5t125 33.5q78 0 127.5 -38.5t49.5 -126.5v-15h-61v15q0 57 -32 85t-83 28q-48 0 -76.5 -20.5t-28.5 -63.5z" />
<glyph horiz-adv-x="439" d="M293 550l-74 102l-74 -102h-55l102 140h54l102 -140h-55zM46 373v-5q0 -51 29.5 -82.5t72 -44t85 -23t72 -30t29.5 -53.5v-7q0 -43 -32 -64.5t-81 -21.5q-52 0 -87.5 28t-35.5 85v15h-63v-15q0 -87 53.5 -126t132.5 -39q78 0 130.5 34.5t52.5 104.5v8q0 48 -30 77.5 t-72 42t-84.5 23.5t-72.5 32t-30 57v5q0 43 28.5 63.5t76.5 20.5q51 0 83 -28t32 -85v-15h61v15q0 88 -49.5 126.5t-127.5 38.5q-77 0 -125 -33.5t-48 -103.5z" />
<glyph horiz-adv-x="308" d="M119 500v100h70v-100h94v-49h-94v-451h-70v451h-94v49h94z" />
<glyph horiz-adv-x="307" d="M190 0h-70v262h-91v45h91v144h-94v49h94v100h70v-100h94v-49h-94v-144h91v-45h-91v-262z" />
<glyph horiz-adv-x="384" d="M362 512h-35l-21 113v95h56v-208zM119 500v100h70v-100h94v-49h-94v-451h-70v451h-94v49h94z" />
<glyph horiz-adv-x="308" d="M169 -50h10q100 0 100 -82v-8q0 -44 -28 -68t-72 -24q-65 0 -107 20l9 31q45 -18 91 -18q30 0 46 15.5t16 43.5v5q0 52 -69 52h-27v83h-19v451h-94v49h94v100h70v-100h94v-49h-94v-451h-20v-50z" />
<glyph horiz-adv-x="499" d="M132 500v-343q0 -57 33.5 -86t84.5 -29t84.5 29t33.5 86v343h70v-339q0 -88 -54 -129.5t-134 -41.5t-134 41.5t-54 129.5v339h70z" />
<glyph horiz-adv-x="499" d="M320 690l-96 -140h50l105 140h-59zM132 500v-343q0 -57 33.5 -86t84.5 -29t84.5 29t33.5 86v343h70v-339q0 -88 -54 -129.5t-134 -41.5t-134 41.5t-54 129.5v339h70z" />
<glyph horiz-adv-x="499" d="M157 690h-34q0 -65 35 -102.5t92 -37.5t92 37.5t35 102.5h-35q0 -40 -22.5 -69.5t-69.5 -29.5q-48 0 -70.5 29.5t-22.5 69.5zM132 500v-343q0 -57 33.5 -86t84.5 -29t84.5 29t33.5 86v343h70v-339q0 -88 -54 -129.5t-134 -41.5t-134 41.5t-54 129.5v339h70z" />
<glyph horiz-adv-x="499" d="M324 550l-74 102l-74 -102h-55l102 140h54l102 -140h-55zM132 500v-343q0 -57 33.5 -86t84.5 -29t84.5 29t33.5 86v343h70v-339q0 -88 -54 -129.5t-134 -41.5t-134 41.5t-54 129.5v339h70z" />
<glyph horiz-adv-x="499" d="M108 704v-131h70v131h-70zM321 704v-131h70v131h-70zM132 500v-343q0 -57 33.5 -86t84.5 -29t84.5 29t33.5 86v343h70v-339q0 -88 -54 -129.5t-134 -41.5t-134 41.5t-54 129.5v339h70z" />
<glyph horiz-adv-x="499" d="M180 690l96 -140h-50l-105 140h59zM132 500v-343q0 -57 33.5 -86t84.5 -29t84.5 29t33.5 86v343h70v-339q0 -88 -54 -129.5t-134 -41.5t-134 41.5t-54 129.5v339h70z" />
<glyph horiz-adv-x="499" d="M268 690l-96 -140h40l105 140h-49zM379 690l-96 -140h40l105 140h-49zM132 500v-343q0 -57 33.5 -86t84.5 -29t84.5 29t33.5 86v343h70v-339q0 -88 -54 -129.5t-134 -41.5t-134 41.5t-54 129.5v339h70z" />
<glyph horiz-adv-x="499" d="M97 625h305v-46h-305v46zM132 500v-343q0 -57 33.5 -86t84.5 -29t84.5 29t33.5 86v343h70v-339q0 -88 -54 -129.5t-134 -41.5t-134 41.5t-54 129.5v339h70z" />
<glyph horiz-adv-x="499" d="M438 500v-339q0 -84 -49 -125.5t-123 -45.5q-25 -24 -42.5 -54.5t-17.5 -55.5q0 -50 50 -50q26 0 61 20l8 -26q-37 -29 -87 -29q-34 0 -58 18t-24 51q0 68 73 127q-73 5 -120 46t-47 124v339h70v-343q0 -57 33.5 -86t84.5 -29t84.5 29t33.5 86v343h70z" />
<glyph horiz-adv-x="499" d="M249 540q-53 0 -83 23t-30 67t30 67t83 23q54 0 84 -23t30 -67t-30 -67t-84 -23zM249 692q-35 0 -53.5 -17t-18.5 -45t18.5 -45t53.5 -17q36 0 54.5 17t18.5 45t-18.5 45t-54.5 17zM132 500v-343q0 -57 33.5 -86t84.5 -29t84.5 29t33.5 86v343h70v-339q0 -88 -54 -129.5 t-134 -41.5t-134 41.5t-54 129.5v339h70z" />
<glyph horiz-adv-x="499" d="M356 653h42q0 -50 -21 -73.5t-53 -23.5q-27 0 -75.5 25.5t-65.5 25.5t-29 -12.5t-12 -38.5h-42q0 50 21.5 73.5t53.5 23.5q27 0 75 -25.5t65 -25.5t29 12.5t12 38.5zM132 500v-343q0 -57 33.5 -86t84.5 -29t84.5 29t33.5 86v343h70v-339q0 -88 -54 -129.5t-134 -41.5 t-134 41.5t-54 129.5v339h70z" />
<glyph horiz-adv-x="805" d="M744 500v-339q0 -88 -52 -129.5t-129 -41.5q-54 0 -97 25t-63 74q-20 -49 -63 -74t-97 -25q-77 0 -129 42t-52 130v338h70v-343q0 -57 33.5 -86t84.5 -29t84.5 29t33.5 86v343h70v-343q0 -57 33.5 -86t84.5 -29t84.5 29t33.5 86v343h70z" />
<glyph horiz-adv-x="805" d="M473 690l-96 -140h50l105 140h-59zM744 500v-339q0 -88 -52 -129.5t-129 -41.5q-54 0 -97 25t-63 74q-20 -49 -63 -74t-97 -25q-77 0 -129 42t-52 130v338h70v-343q0 -57 33.5 -86t84.5 -29t84.5 29t33.5 86v343h70v-343q0 -57 33.5 -86t84.5 -29t84.5 29t33.5 86v343h70 z" />
<glyph horiz-adv-x="805" d="M477 550l-74 102l-74 -102h-55l102 140h54l102 -140h-55zM744 500v-339q0 -88 -52 -129.5t-129 -41.5q-54 0 -97 25t-63 74q-20 -49 -63 -74t-97 -25q-77 0 -129 42t-52 130v338h70v-343q0 -57 33.5 -86t84.5 -29t84.5 29t33.5 86v343h70v-343q0 -57 33.5 -86t84.5 -29 t84.5 29t33.5 86v343h70z" />
<glyph horiz-adv-x="805" d="M261 704v-131h70v131h-70zM474 704v-131h70v131h-70zM744 500v-339q0 -88 -52 -129.5t-129 -41.5q-54 0 -97 25t-63 74q-20 -49 -63 -74t-97 -25q-77 0 -129 42t-52 130v338h70v-343q0 -57 33.5 -86t84.5 -29t84.5 29t33.5 86v343h70v-343q0 -57 33.5 -86t84.5 -29 t84.5 29t33.5 86v343h70z" />
<glyph horiz-adv-x="805" d="M333 690l96 -140h-50l-105 140h59zM744 500v-339q0 -88 -52 -129.5t-129 -41.5q-54 0 -97 25t-63 74q-20 -49 -63 -74t-97 -25q-77 0 -129 42t-52 130v338h70v-343q0 -57 33.5 -86t84.5 -29t84.5 29t33.5 86v343h70v-343q0 -57 33.5 -86t84.5 -29t84.5 29t33.5 86v343h70 z" />
<glyph horiz-adv-x="499" d="M368 500v-309q0 -53 -35 -90t-88 -37q-54 0 -83.5 32t-29.5 81v323h-70v-334q0 -64 40 -110t118 -46q41 0 82.5 22.5t65.5 68.5v-144q0 -57 -33.5 -86t-84.5 -29t-84.5 28t-33.5 85v15h-63v-15q0 -87 51.5 -126t129.5 -39q80 0 134 41.5t54 129.5v539h-70z" />
<glyph horiz-adv-x="499" d="M320 690l-96 -140h50l105 140h-59zM368 500v-309q0 -53 -35 -90t-88 -37q-54 0 -83.5 32t-29.5 81v323h-70v-334q0 -64 40 -110t118 -46q41 0 82.5 22.5t65.5 68.5v-144q0 -57 -33.5 -86t-84.5 -29t-84.5 28t-33.5 85v15h-63v-15q0 -87 51.5 -126t129.5 -39 q80 0 134 41.5t54 129.5v539h-70z" />
<glyph horiz-adv-x="499" d="M324 550l-74 102l-74 -102h-55l102 140h54l102 -140h-55zM368 500v-309q0 -53 -35 -90t-88 -37q-54 0 -83.5 32t-29.5 81v323h-70v-334q0 -64 40 -110t118 -46q41 0 82.5 22.5t65.5 68.5v-144q0 -57 -33.5 -86t-84.5 -29t-84.5 28t-33.5 85v15h-63v-15q0 -87 51.5 -126 t129.5 -39q80 0 134 41.5t54 129.5v539h-70z" />
<glyph horiz-adv-x="499" d="M108 704v-131h70v131h-70zM321 704v-131h70v131h-70zM368 500v-309q0 -53 -35 -90t-88 -37q-54 0 -83.5 32t-29.5 81v323h-70v-334q0 -64 40 -110t118 -46q41 0 82.5 22.5t65.5 68.5v-144q0 -57 -33.5 -86t-84.5 -29t-84.5 28t-33.5 85v15h-63v-15q0 -87 51.5 -126 t129.5 -39q80 0 134 41.5t54 129.5v539h-70z" />
<glyph horiz-adv-x="499" d="M180 690l96 -140h-50l-105 140h59zM368 500v-309q0 -53 -35 -90t-88 -37q-54 0 -83.5 32t-29.5 81v323h-70v-334q0 -64 40 -110t118 -46q41 0 82.5 22.5t65.5 68.5v-144q0 -57 -33.5 -86t-84.5 -29t-84.5 28t-33.5 85v15h-63v-15q0 -87 51.5 -126t129.5 -39 q80 0 134 41.5t54 129.5v539h-70z" />
<glyph horiz-adv-x="490" d="M50 354v-208q0 -63 40 -109.5t118 -46.5q40 0 83 22t68 77l8 -89h59v500h-59l-8 -85q-24 49 -66.5 72t-84.5 23q-78 0 -118 -46.5t-40 -109.5zM356 329v-158q0 -53 -35 -90t-88 -37q-54 0 -83.5 32.5t-29.5 80.5v186q0 48 29.5 80.5t83.5 32.5q53 0 88 -37t35 -90z" />
<glyph horiz-adv-x="490" d="M316 690l-96 -140h50l105 140h-59zM50 354v-208q0 -63 40 -109.5t118 -46.5q40 0 83 22t68 77l8 -89h59v500h-59l-8 -85q-24 49 -66.5 72t-84.5 23q-78 0 -118 -46.5t-40 -109.5zM356 329v-158q0 -53 -35 -90t-88 -37q-54 0 -83.5 32.5t-29.5 80.5v186q0 48 29.5 80.5 t83.5 32.5q53 0 88 -37t35 -90z" />
<glyph horiz-adv-x="490" d="M153 690h-34q0 -65 35 -102.5t92 -37.5t92 37.5t35 102.5h-35q0 -40 -22.5 -69.5t-69.5 -29.5q-48 0 -70.5 29.5t-22.5 69.5zM50 354v-208q0 -63 40 -109.5t118 -46.5q40 0 83 22t68 77l8 -89h59v500h-59l-8 -85q-24 49 -66.5 72t-84.5 23q-78 0 -118 -46.5t-40 -109.5z M356 329v-158q0 -53 -35 -90t-88 -37q-54 0 -83.5 32.5t-29.5 80.5v186q0 48 29.5 80.5t83.5 32.5q53 0 88 -37t35 -90z" />
<glyph horiz-adv-x="490" d="M319 550l-74 102l-74 -102h-55l102 140h54l102 -140h-55zM50 354v-208q0 -63 40 -109.5t118 -46.5q40 0 83 22t68 77l8 -89h59v500h-59l-8 -85q-24 49 -66.5 72t-84.5 23q-78 0 -118 -46.5t-40 -109.5zM356 329v-158q0 -53 -35 -90t-88 -37q-54 0 -83.5 32.5t-29.5 80.5 v186q0 48 29.5 80.5t83.5 32.5q53 0 88 -37t35 -90z" />
<glyph horiz-adv-x="490" d="M104 704v-131h70v131h-70zM317 704v-131h70v131h-70zM50 354v-208q0 -63 40 -109.5t118 -46.5q40 0 83 22t68 77l8 -89h59v500h-59l-8 -85q-24 49 -66.5 72t-84.5 23q-78 0 -118 -46.5t-40 -109.5zM356 329v-158q0 -53 -35 -90t-88 -37q-54 0 -83.5 32.5t-29.5 80.5v186 q0 48 29.5 80.5t83.5 32.5q53 0 88 -37t35 -90z" />
<glyph horiz-adv-x="490" d="M175 690l96 -140h-50l-105 140h59zM50 354v-208q0 -63 40 -109.5t118 -46.5q40 0 83 22t68 77l8 -89h59v500h-59l-8 -85q-24 49 -66.5 72t-84.5 23q-78 0 -118 -46.5t-40 -109.5zM356 329v-158q0 -53 -35 -90t-88 -37q-54 0 -83.5 32.5t-29.5 80.5v186q0 48 29.5 80.5 t83.5 32.5q53 0 88 -37t35 -90z" />
<glyph horiz-adv-x="490" d="M93 625h305v-46h-305v46zM50 354v-208q0 -63 40 -109.5t118 -46.5q40 0 83 22t68 77l8 -89h59v500h-59l-8 -85q-24 49 -66.5 72t-84.5 23q-78 0 -118 -46.5t-40 -109.5zM356 329v-158q0 -53 -35 -90t-88 -37q-54 0 -83.5 32.5t-29.5 80.5v186q0 48 29.5 80.5t83.5 32.5 q53 0 88 -37t35 -90z" />
<glyph horiz-adv-x="490" d="M455 -150l8 -26q-37 -29 -87 -29q-34 0 -58 18t-24 51q0 36 24 73t62 63h-13l-8 89q-25 -55 -68 -77t-83 -22q-78 0 -118 46.5t-40 109.5v208q0 63 40 109.5t118 46.5q42 0 84.5 -23t66.5 -72l8 85h59v-500h-11q-28 -23 -49.5 -58t-21.5 -62q0 -50 50 -50q26 0 61 20z M356 171v158q0 53 -35 90t-88 37q-54 0 -83.5 -32.5t-29.5 -80.5v-186q0 -48 29.5 -80.5t83.5 -32.5q53 0 88 37t35 90z" />
<glyph horiz-adv-x="490" d="M245 540q-53 0 -83 23t-30 67t30 67t83 23q54 0 84 -23t30 -67t-30 -67t-84 -23zM245 692q-35 0 -53.5 -17t-18.5 -45t18.5 -45t53.5 -17q36 0 54.5 17t18.5 45t-18.5 45t-54.5 17zM50 354v-208q0 -63 40 -109.5t118 -46.5q40 0 83 22t68 77l8 -89h59v500h-59l-8 -85 q-24 49 -66.5 72t-84.5 23q-78 0 -118 -46.5t-40 -109.5zM356 329v-158q0 -53 -35 -90t-88 -37q-54 0 -83.5 32.5t-29.5 80.5v186q0 48 29.5 80.5t83.5 32.5q53 0 88 -37t35 -90z" />
<glyph horiz-adv-x="490" d="M352 653h42q0 -50 -21 -73.5t-53 -23.5q-27 0 -75.5 25.5t-65.5 25.5t-29 -12.5t-12 -38.5h-42q0 50 21.5 73.5t53.5 23.5q27 0 75 -25.5t65 -25.5t29 12.5t12 38.5zM50 354v-208q0 -63 40 -109.5t118 -46.5q40 0 83 22t68 77l8 -89h59v500h-59l-8 -85q-24 49 -66.5 72 t-84.5 23q-78 0 -118 -46.5t-40 -109.5zM356 329v-158q0 -53 -35 -90t-88 -37q-54 0 -83.5 32.5t-29.5 80.5v186q0 48 29.5 80.5t83.5 32.5q53 0 88 -37t35 -90z" />
<glyph horiz-adv-x="961" d="M593 700v-281q24 46 65.5 68.5t82.5 22.5q78 0 118 -46t40 -110v-354h-70v343q0 48 -29.5 80.5t-83.5 32.5q-53 0 -88 -37t-35 -90v-329h-70v641h-254v-641h-74v641h-172v59h570z" />
<glyph horiz-adv-x="961" d="M358 890l-102 -140h-55l-102 140h56l74 -102l74 102h55zM593 700v-281q24 46 65.5 68.5t82.5 22.5q78 0 118 -46t40 -110v-354h-70v343q0 48 -29.5 80.5t-83.5 32.5q-53 0 -88 -37t-35 -90v-329h-70v641h-254v-641h-74v641h-172v59h570z" />
<glyph horiz-adv-x="959" d="M592 700v-281q24 46 65.5 68.5t82.5 22.5q78 0 118 -46t40 -110v-354h-70v343q0 48 -29.5 80.5t-83.5 32.5q-53 0 -88 -37t-35 -90v-329h-70v641h-254v-641h-74v641h-172v59h570zM199 -173v98h63v-98l-47 -137h-53z" />
<glyph horiz-adv-x="774" d="M640 666h-138q-38 0 -52.5 -17t-14.5 -54v-95h121v-49h-121v-451h-70v451h-205v-451h-70v451h-67v49h67v112q0 66 29.5 92t85.5 26q40 0 84 -10l-5 -52q-32 8 -57 8q-37 0 -52 -17.5t-15 -53.5v-105h205v102q0 66 29.5 92t85.5 26h230v-147h-70v93zM710 500v-592 q0 -66 -29.5 -92t-85.5 -26q-38 0 -84 10l5 52q32 -8 57 -8q37 0 52 17.5t15 53.5v585h70z" />
<glyph horiz-adv-x="499" d="M365 666h-138q-37 0 -52 -17.5t-15 -53.5v-95h121v-49h-121v-451h-70v451h-67v49h67v102q0 66 29.5 92t85.5 26h230v-147h-70v93zM435 500v-592q0 -66 -29.5 -92t-85.5 -26q-38 0 -84 10l5 52q34 -8 57 -8q38 0 52.5 17t14.5 54v585h70z" />
<glyph horiz-adv-x="582" d="M519 516v-332q0 -91 -66 -142.5t-162 -51.5t-162 51.5t-66 142.5v332q0 91 66 142.5t162 51.5t162 -51.5t66 -142.5zM136 516v-332q0 -63 44.5 -99t110.5 -36q65 0 109.5 36t44.5 99v332q0 63 -44.5 99t-109.5 36q-66 0 -110.5 -36t-44.5 -99z" />
<glyph horiz-adv-x="442" d="M194 641h-153v59h227v-641h153v-59h-380v59h153v582z" />
<glyph horiz-adv-x="552" d="M502 516v-10q0 -63 -39.5 -115.5t-96 -89t-112.5 -70.5t-95.5 -75.5t-39.5 -87.5v-9h383v-59h-456v66q0 63 39.5 115.5t95.5 89.5t112 71t95.5 76.5t39.5 89.5v8q0 63 -44.5 99t-109.5 36t-106.5 -35.5t-41.5 -99.5v-34h-70v34q0 91 61.5 142.5t156.5 51.5 q96 0 162 -51.5t66 -142.5z" />
<glyph horiz-adv-x="553" d="M58 482v34q0 91 61.5 142.5t155.5 51.5q95 0 155.5 -47t61.5 -132q-1 -58 -32 -99.5t-84 -62.5q58 -20 92.5 -63t34.5 -104v-25q0 -90 -65.5 -138.5t-162.5 -48.5q-96 0 -161.5 51.5t-65.5 142.5v34h73v-34q0 -63 44.5 -99t109.5 -36q66 0 110.5 35t44.5 98v23 q0 60 -45 96.5t-110 36.5h-50v60h50q62 0 104.5 36t43.5 90q-1 61 -42.5 94t-105.5 33t-105.5 -35.5t-41.5 -99.5v-34h-70z" />
<glyph horiz-adv-x="573" d="M25 190v60l339 451v-1h74v-450h106v-60h-106v-190h-74v190h-339zM106 250h258v344z" />
<glyph horiz-adv-x="549" d="M139 428h138q96 0 162 -51t66 -142v-51q0 -91 -66 -142.5t-162 -51.5q-95 0 -159.5 51.5t-64.5 142.5v34h70v-34q0 -63 44.5 -99t109.5 -36q66 0 110.5 36t44.5 99v51q0 63 -44.5 98t-110.5 35h-208v332h402v-59h-332v-213z" />
<glyph horiz-adv-x="568" d="M136 398h155q96 0 162 -51.5t66 -141.5v-21q0 -91 -66 -142.5t-162 -51.5t-162 51.5t-66 142.5v332q0 91 66 142.5t162 51.5q95 0 156.5 -51.5t61.5 -142.5v-34h-70v34q0 64 -42 99.5t-106 35.5q-66 0 -110.5 -36t-44.5 -99v-118zM445 184v21q0 63 -44.5 98t-109.5 35 h-155v-154q0 -63 44.5 -99t110.5 -36q65 0 109.5 36t44.5 99z" />
<glyph horiz-adv-x="484" d="M462 700v-59q-261 -310 -261 -641h-77q0 165 70.5 334.5t194.5 306.5h-362v59h435z" />
<glyph horiz-adv-x="556" d="M494 528v-7q0 -58 -31.5 -100.5t-85.5 -63.5q59 -20 94 -63t35 -104v-13q0 -90 -65.5 -138.5t-162.5 -48.5t-162.5 48.5t-65.5 138.5v13q0 62 35 105t95 63q-54 21 -86 64.5t-32 98.5v7q0 87 60.5 134.5t155.5 47.5t155.5 -47.5t60.5 -134.5zM130 521v-5q0 -56 43 -93 t105 -37t105 37t43 93v5q0 62 -42 96t-106 34t-106 -34t-42 -96zM432 182v12q0 60 -45 96.5t-109 36.5t-109.5 -36.5t-45.5 -96.5v-12q0 -63 45 -98t110 -35t109.5 35t44.5 98z" />
<glyph horiz-adv-x="568" d="M49 495v21q0 91 66 142.5t162 51.5t162 -51.5t66 -142.5v-332q0 -91 -66 -142.5t-162 -51.5q-95 0 -156.5 51.5t-61.5 142.5v34h70v-34q0 -64 41.5 -99.5t106.5 -35.5t109.5 36t44.5 99v118h-154q-96 0 -162 51t-66 142zM431 362v154q0 63 -44.5 99t-109.5 36 q-66 0 -110.5 -36t-44.5 -99v-21q0 -63 44.5 -98t110.5 -35h154z" />
<glyph horiz-adv-x="582" d="M519 416v-232q0 -91 -66 -142.5t-162 -51.5t-162 51.5t-66 142.5v232q0 91 66 142.5t162 51.5t162 -51.5t66 -142.5zM136 416v-232q0 -63 44.5 -99t110.5 -36q65 0 109.5 36t44.5 99v232q0 63 -44.5 99t-109.5 36q-66 0 -110.5 -36t-44.5 -99z" />
<glyph horiz-adv-x="455" d="M206 541h-153v59h226v-541h153v-59h-379v59h153v482z" />
<glyph horiz-adv-x="559" d="M506 419v-10q0 -61 -39.5 -103.5t-95.5 -65.5t-112 -44t-95.5 -52t-39.5 -76v-9h382v-59h-456v66q0 63 39.5 105.5t95.5 65.5t112 43t95.5 52t39.5 79v8q0 62 -44.5 97t-109.5 35q-64 0 -106 -35.5t-42 -99.5v-34h-70v34q0 91 61.5 142.5t156.5 51.5q97 0 162.5 -50 t65.5 -141z" />
<glyph horiz-adv-x="552" d="M57 382v34q0 91 61.5 142.5t155.5 51.5q95 0 155.5 -47t61.5 -132q-1 -58 -32 -99.5t-84 -62.5q58 -20 92.5 -63t34.5 -104v-25q0 -90 -65.5 -138.5t-162.5 -48.5q-96 0 -161.5 51.5t-65.5 142.5v34h73v-34q0 -63 44.5 -99t109.5 -36q66 0 110.5 35t44.5 98v23 q0 60 -45 96.5t-110 36.5h-50v60h50q62 0 104.5 36t43.5 90q-1 61 -42.5 94t-105.5 33t-105.5 -35.5t-41.5 -99.5v-34h-70z" />
<glyph horiz-adv-x="571" d="M23 0v59l339 542v-1h74v-541h106v-59h-106v-100h-74v100h-339zM97 59h265v435z" />
<glyph horiz-adv-x="555" d="M139 338h138q96 0 162 -51t66 -142v-61q0 -91 -66 -142.5t-162 -51.5q-95 0 -159.5 51.5t-64.5 142.5v34h70v-34q0 -63 44.5 -99t109.5 -36q66 0 110.5 36t44.5 99v61q0 63 -44.5 98t-110.5 35h-208v322h402v-59h-332v-203z" />
<glyph horiz-adv-x="568" d="M136 398h155q96 0 162 -51.5t66 -141.5v-21q0 -91 -66 -142.5t-162 -51.5t-162 51.5t-66 142.5v332q0 91 66 142.5t162 51.5q95 0 156.5 -51.5t61.5 -142.5v-34h-70v34q0 64 -42 99.5t-106 35.5q-66 0 -110.5 -36t-44.5 -99v-118zM445 184v21q0 63 -44.5 98t-109.5 35 h-155v-154q0 -63 44.5 -99t110.5 -36q65 0 109.5 36t44.5 99z" />
<glyph horiz-adv-x="506" d="M475 600v-59q-262 -309 -262 -641h-77q0 165 70.5 334.5t194.5 306.5h-361v59h435z" />
<glyph horiz-adv-x="556" d="M494 528v-7q0 -58 -31.5 -100.5t-85.5 -63.5q59 -20 94 -63t35 -104v-13q0 -90 -65.5 -138.5t-162.5 -48.5t-162.5 48.5t-65.5 138.5v13q0 62 35 105t95 63q-54 21 -86 64.5t-32 98.5v7q0 87 60.5 134.5t155.5 47.5t155.5 -47.5t60.5 -134.5zM130 521v-5q0 -56 43 -93 t105 -37t105 37t43 93v5q0 62 -42 96t-106 34t-106 -34t-42 -96zM432 182v12q0 60 -45 96.5t-109 36.5t-109.5 -36.5t-45.5 -96.5v-12q0 -63 45 -98t110 -35t109.5 35t44.5 98z" />
<glyph horiz-adv-x="567" d="M48 395v21q0 91 66 142.5t162 51.5t162 -51.5t66 -142.5v-332q0 -91 -66 -142.5t-162 -51.5q-95 0 -156.5 51.5t-61.5 142.5v34h70v-34q0 -64 42 -99.5t106 -35.5q65 0 110 36t45 99v118h-155q-96 0 -162 51.5t-66 141.5zM431 262v154q0 63 -45 99t-110 36t-109.5 -36 t-44.5 -99v-21q0 -63 44.5 -98t109.5 -35h155z" />
<glyph horiz-adv-x="357" d="M316 182v-198q0 -55 -39.5 -86t-97.5 -31t-98 31t-40 86v198q0 55 40 86t98 31t97.5 -31t39.5 -86zM87 182v-198q0 -37 26.5 -58t65.5 -21q38 0 64.5 21t26.5 58v198q0 37 -26.5 58t-64.5 21q-39 0 -65.5 -21t-26.5 -58z" />
<glyph horiz-adv-x="271" d="M120 255h-92v38h139v-382h91v-38h-230v38h92v344z" />
<glyph horiz-adv-x="342" d="M307 182v-6q0 -38 -23.5 -69t-57.5 -52.5t-67.5 -41.5t-57 -44.5t-23.5 -52.5v-5h229v-38h-275v41q0 38 23.5 69.5t57 53.5t67 42.5t57 45t23.5 52.5v5q0 37 -26 58t-64 21t-63 -20.5t-25 -58.5v-20h-44v20q0 55 37 86t95 31t97.5 -31t39.5 -86z" />
<glyph horiz-adv-x="343" d="M300 193v-5q0 -69 -68 -94q75 -27 75 -100v-15q0 -54 -39.5 -83t-97.5 -29q-59 0 -99 31t-40 86v20h47v-20q0 -37 26.5 -58t65.5 -21q38 0 64 20.5t26 57.5v13q0 36 -26.5 57.5t-63.5 21.5h-30v37h30q37 0 61.5 20t24.5 53v3q0 36 -24 54.5t-62 18.5t-63 -20.5t-25 -58.5 v-20h-45v20q0 55 37.5 86t95.5 31t94 -27t36 -79z" />
<glyph horiz-adv-x="347" d="M15 -14v38l203 269h48v-269h63v-38h-63v-113h-48v113h-203zM67 24h151v202z" />
<glyph horiz-adv-x="337" d="M90 130h81q59 0 98.5 -30.5t39.5 -85.5v-30q0 -55 -40 -86t-98 -31t-97 31t-39 86v20h45v-20q0 -37 26 -58t65 -21q38 0 64.5 21t26.5 58v30q0 37 -26.5 58t-64.5 21h-126v200h243v-38h-198v-125z" />
<glyph horiz-adv-x="349" d="M87 112h92q58 0 97.5 -30.5t39.5 -85.5v-12q0 -55 -39.5 -86t-97.5 -31t-98 31t-40 86v198q0 55 40 86t98 31q57 0 94 -31t37 -86v-20h-44v20q0 38 -24.5 58.5t-62.5 20.5q-39 0 -65.5 -21t-26.5 -58v-70zM270 -16v12q0 37 -26.5 58t-64.5 21h-92v-91q0 -37 26.5 -58 t65.5 -21q38 0 64.5 21t26.5 58z" />
<glyph horiz-adv-x="288" d="M279 293v-38q-156 -186 -156 -382h-48q0 99 42 199.5t115 182.5h-215v38h262z" />
<glyph horiz-adv-x="346" d="M304 190v-5q0 -69 -69 -98q76 -28 76 -100v-8q0 -54 -39.5 -83t-98.5 -29t-98.5 29t-39.5 83v8q0 74 77 100q-32 14 -51 40t-19 58v5q0 52 36.5 80.5t94.5 28.5t94.5 -28.5t36.5 -80.5zM86 185v-3q0 -33 25 -55t62 -22t62 22t25 55v3q0 36 -24.5 56t-62.5 20t-62.5 -20 t-24.5 -56zM264 -17v7q0 35 -27 56.5t-64 21.5q-38 0 -64.5 -21.5t-26.5 -56.5v-7q0 -37 26 -57.5t65 -20.5q38 0 64.5 20.5t26.5 57.5z" />
<glyph horiz-adv-x="349" d="M32 170v12q0 55 40 86t99 31q58 0 97.5 -31t39.5 -86v-198q0 -55 -39.5 -86t-97.5 -31t-95.5 31t-37.5 86v20h45v-20q0 -38 25 -58.5t63 -20.5t64 21t26 58v70h-90q-59 0 -99 30.5t-40 85.5zM261 91v91q0 37 -26 58t-64 21q-39 0 -65.5 -21t-26.5 -58v-12q0 -37 26.5 -58 t65.5 -21h90z" />
<glyph d="M517 516v-332q0 -91 -66 -142.5t-162 -51.5t-162 51.5t-66 142.5v332q0 91 66 142.5t162 51.5t162 -51.5t66 -142.5zM135 516v-332q0 -63 44.5 -99t109.5 -36t110 36t45 99v332q0 63 -45 99t-110 36t-109.5 -36t-44.5 -99z" />
<glyph d="M262 641h-153v59h227v-641h153v-59h-380v59h153v582z" />
<glyph d="M515 516v-10q0 -53 -28.5 -99.5t-71 -77.5t-92 -63.5t-92 -59t-71 -62.5t-28.5 -76v-9h383v-59h-456v66q0 63 39.5 115.5t95.5 89.5t112 71t95.5 76.5t39.5 89.5v8q0 63 -44.5 99t-109.5 36t-106.5 -35.5t-41.5 -99.5v-34h-70v34q0 91 61.5 142.5t156.5 51.5 q96 0 162 -51.5t66 -142.5z" />
<glyph d="M69 482v34q0 91 61.5 142.5t156.5 51.5t155.5 -47t61.5 -132q-1 -58 -32 -99.5t-84 -62.5q58 -20 92.5 -63t34.5 -104v-25q0 -90 -65.5 -138.5t-162.5 -48.5q-96 0 -162 51.5t-66 142.5v34h74v-34q0 -63 44.5 -99t109.5 -36q66 0 110.5 35t44.5 98v23q0 60 -45 96.5 t-110 36.5h-50v60h50q62 0 104.5 36t43.5 90q-1 61 -42.5 94t-105.5 33t-106 -35.5t-42 -99.5v-34h-70z" />
<glyph d="M27 190v60l340 451v-1h73v-450h107v-60h-107v-190h-73v190h-340zM108 250h259v344z" />
<glyph d="M154 438h138q96 0 162 -51t66 -142v-61q0 -91 -66 -142.5t-162 -51.5q-95 0 -159.5 51.5t-64.5 142.5v34h70v-34q0 -63 44.5 -99t109.5 -36q66 0 110.5 36t44.5 99v61q0 63 -44.5 98t-110.5 35h-208v322h402v-59h-332v-203z" />
<glyph d="M142 398h154q96 0 162 -51t66 -142v-21q0 -91 -66 -142.5t-162 -51.5t-162 51.5t-66 142.5v332q0 91 66 142.5t162 51.5q95 0 156.5 -51.5t61.5 -142.5v-34h-70v34q0 64 -42 99.5t-106 35.5q-65 0 -109.5 -36t-44.5 -99v-118zM451 184v21q0 63 -45 98t-110 35h-154v-154 q0 -63 44.5 -99t109.5 -36t110 36t45 99z" />
<glyph d="M513 700v-59q-262 -309 -262 -641h-77q0 165 70.5 334.5t194.5 306.5h-362v59h436z" />
<glyph d="M505 528v-7q0 -58 -31 -100.5t-85 -63.5q58 -20 93 -63t35 -104v-13q0 -90 -65.5 -138.5t-162.5 -48.5t-162.5 48.5t-65.5 138.5v13q0 62 35.5 105t95.5 63q-54 21 -86.5 64.5t-32.5 98.5v7q0 87 60.5 134.5t155.5 47.5t155.5 -47.5t60.5 -134.5zM141 521v-5 q0 -56 43 -93t105 -37t105 37t43 93v5q0 62 -42 96t-106 34t-106 -34t-42 -96zM444 182v12q0 60 -45.5 96.5t-109.5 36.5t-109 -36.5t-45 -96.5v-12q0 -63 44.5 -98t109.5 -35t110 35t45 98z" />
<glyph d="M54 495v21q0 91 66 142.5t162 51.5t162 -51.5t66 -142.5v-332q0 -91 -66 -142.5t-162 -51.5q-95 0 -156.5 51.5t-61.5 142.5v34h70v-34q0 -64 42 -99.5t106 -35.5q65 0 110 36t45 99v118h-155q-96 0 -162 51.5t-66 141.5zM437 362v154q0 63 -45 99t-110 36t-109.5 -36 t-44.5 -99v-21q0 -63 44.5 -98t109.5 -35h155z" />
<glyph d="M517 416v-232q0 -91 -66 -142.5t-162 -51.5t-162 51.5t-66 142.5v232q0 91 66 142.5t162 51.5t162 -51.5t66 -142.5zM135 416v-232q0 -63 44.5 -99t109.5 -36t110 36t45 99v232q0 63 -45 99t-110 36t-109.5 -36t-44.5 -99z" />
<glyph d="M267 541h-153v59h226v-541h153v-59h-379v59h153v482z" />
<glyph d="M515 419v-10q0 -61 -39.5 -103.5t-95.5 -65.5t-112 -44t-95.5 -52t-39.5 -76v-9h382v-59h-456v66q0 63 39.5 105.5t95.5 65.5t112.5 43t96 52t39.5 79v8q0 62 -44.5 97t-110.5 35q-64 0 -106 -35.5t-42 -99.5v-34h-70v34q0 91 61.5 142.5t156.5 51.5q97 0 162.5 -50 t65.5 -141z" />
<glyph d="M69 382v34q0 91 61.5 142.5t156.5 51.5t155.5 -47t61.5 -132q-1 -58 -32 -99.5t-84 -62.5q58 -20 92.5 -63t34.5 -104v-25q0 -90 -65.5 -138.5t-162.5 -48.5q-96 0 -162 51.5t-66 142.5v34h74v-34q0 -63 44.5 -99t109.5 -36q66 0 110.5 35t44.5 98v23q0 60 -45 96.5 t-110 36.5h-50v60h50q62 0 104.5 36t43.5 90q-1 61 -42.5 94t-105.5 33t-106 -35.5t-42 -99.5v-34h-70z" />
<glyph d="M26 0v59l340 542v-1h73v-541h107v-59h-107v-100h-73v100h-340zM100 59h266v435z" />
<glyph d="M154 338h138q96 0 162 -51t66 -142v-61q0 -91 -66 -142.5t-162 -51.5q-95 0 -159.5 51.5t-64.5 142.5v34h70v-34q0 -63 44.5 -99t109.5 -36q66 0 110.5 36t44.5 99v61q0 63 -44.5 98t-110.5 35h-208v322h402v-59h-332v-203z" />
<glyph d="M142 398h154q96 0 162 -51t66 -142v-21q0 -91 -66 -142.5t-162 -51.5t-162 51.5t-66 142.5v332q0 91 66 142.5t162 51.5q95 0 156.5 -51.5t61.5 -142.5v-34h-70v34q0 64 -42 99.5t-106 35.5q-65 0 -109.5 -36t-44.5 -99v-118zM451 184v21q0 63 -45 98t-110 35h-154v-154 q0 -63 44.5 -99t109.5 -36t110 36t45 99z" />
<glyph d="M515 600v-59q-262 -309 -262 -641h-77q0 165 70.5 334.5t194.5 306.5h-362v59h436z" />
<glyph d="M505 528v-7q0 -58 -31 -100.5t-85 -63.5q58 -20 93 -63t35 -104v-13q0 -90 -65.5 -138.5t-162.5 -48.5t-162.5 48.5t-65.5 138.5v13q0 62 35.5 105t95.5 63q-54 21 -86.5 64.5t-32.5 98.5v7q0 87 60.5 134.5t155.5 47.5t155.5 -47.5t60.5 -134.5zM141 521v-5 q0 -56 43 -93t105 -37t105 37t43 93v5q0 62 -42 96t-106 34t-106 -34t-42 -96zM444 182v12q0 60 -45.5 96.5t-109.5 36.5t-109 -36.5t-45 -96.5v-12q0 -63 44.5 -98t109.5 -35t110 35t45 98z" />
<glyph d="M53 395v21q0 91 66 142.5t162 51.5t162 -51.5t66 -142.5v-332q0 -91 -66 -142.5t-162 -51.5q-95 0 -156.5 51.5t-61.5 142.5v34h70v-34q0 -64 42 -99.5t106 -35.5q65 0 110 36t45 99v118h-155q-96 0 -162 51.5t-66 141.5zM436 262v154q0 63 -45 99t-110 36t-109.5 -36 t-44.5 -99v-21q0 -63 44.5 -98t109.5 -35h155z" />
<glyph horiz-adv-x="357" d="M316 309v-198q0 -55 -39.5 -86t-97.5 -31t-98 31t-40 86v198q0 55 40 86t98 31t97.5 -31t39.5 -86zM87 309v-198q0 -37 26.5 -58t65.5 -21q38 0 64.5 21t26.5 58v198q0 37 -26.5 58t-64.5 21q-39 0 -65.5 -21t-26.5 -58z" />
<glyph horiz-adv-x="271" d="M120 382h-92v38h139v-382h91v-38h-230v38h92v344z" />
<glyph horiz-adv-x="341" d="M307 309v-6q0 -38 -23.5 -69t-57.5 -52.5t-67.5 -41.5t-57 -44.5t-23.5 -52.5v-5h229v-38h-275v41q0 38 23.5 69.5t57 53.5t67 42.5t57 45t23.5 52.5v5q0 37 -26 58t-64 21t-63 -20.5t-25 -58.5v-20h-44v20q0 55 37 86t95 31t97.5 -31t39.5 -86z" />
<glyph horiz-adv-x="343" d="M300 320v-5q0 -69 -68 -94q75 -27 75 -100v-15q0 -54 -39.5 -83t-97.5 -29q-59 0 -99 31t-40 86v20h47v-20q0 -37 26.5 -58t65.5 -21q38 0 64 20.5t26 57.5v13q0 36 -26.5 57.5t-63.5 21.5h-30v37h30q37 0 61.5 20t24.5 53v3q0 36 -24 54.5t-62 18.5t-63 -20.5t-25 -58.5 v-20h-45v20q0 55 37.5 86t95.5 31t94 -27t36 -79z" />
<glyph horiz-adv-x="348" d="M16 113v38l203 269h47v-269h64v-38h-64v-113h-47v113h-203zM67 151h152v202z" />
<glyph horiz-adv-x="337" d="M90 262h81q59 0 98.5 -30.5t39.5 -85.5v-35q0 -55 -40 -86t-98 -31t-97 31t-39 86v20h45v-20q0 -37 26 -58t65 -21q38 0 64.5 21t26.5 58v35q0 37 -26.5 58t-64.5 21h-126v195h243v-38h-198v-120z" />
<glyph horiz-adv-x="349" d="M87 239h92q58 0 97.5 -30.5t39.5 -85.5v-12q0 -55 -39.5 -86t-97.5 -31t-98 31t-40 86v198q0 55 40 86t98 31q57 0 94 -31t37 -86v-20h-44v20q0 38 -24.5 58.5t-62.5 20.5q-39 0 -65.5 -21t-26.5 -58v-70zM270 111v12q0 37 -26.5 58t-64.5 21h-92v-91q0 -37 26.5 -58 t65.5 -21q38 0 64.5 21t26.5 58z" />
<glyph horiz-adv-x="288" d="M279 420v-38q-155 -184 -155 -382h-49q0 99 42 199.5t116 182.5h-216v38h262z" />
<glyph horiz-adv-x="346" d="M304 317v-5q0 -69 -69 -98q76 -28 76 -100v-8q0 -54 -39.5 -83t-98.5 -29t-98.5 29t-39.5 83v8q0 74 77 100q-32 14 -51 40t-19 58v5q0 52 36.5 80.5t94.5 28.5t94.5 -28.5t36.5 -80.5zM86 312v-3q0 -33 25 -55t62 -22t62 22t25 55v3q0 36 -24.5 56t-62.5 20t-62.5 -20 t-24.5 -56zM264 110v7q0 35 -27 56.5t-64 21.5q-38 0 -64.5 -21.5t-26.5 -56.5v-7q0 -37 26 -57.5t65 -20.5q38 0 64.5 20.5t26.5 57.5z" />
<glyph horiz-adv-x="349" d="M32 297v12q0 55 40 86t99 31q58 0 97.5 -31t39.5 -86v-198q0 -55 -39.5 -86t-97.5 -31t-95.5 31t-37.5 86v20h45v-20q0 -38 25 -58.5t63 -20.5t64 21t26 58v70h-90q-59 0 -99 30.5t-40 85.5zM261 218v91q0 37 -26 58t-64 21q-39 0 -65.5 -21t-26.5 -58v-12 q0 -37 26.5 -58t65.5 -21h90z" />
<glyph horiz-adv-x="357" d="M316 589v-198q0 -55 -39.5 -86t-97.5 -31t-98 31t-40 86v198q0 55 40 86t98 31t97.5 -31t39.5 -86zM87 589v-198q0 -37 26.5 -58t65.5 -21q38 0 64.5 21t26.5 58v198q0 37 -26.5 58t-64.5 21q-39 0 -65.5 -21t-26.5 -58z" />
<glyph horiz-adv-x="271" d="M120 662h-92v38h139v-382h91v-38h-230v38h92v344z" />
<glyph horiz-adv-x="341" d="M307 589v-6q0 -38 -23.5 -69t-57.5 -52.5t-67.5 -41.5t-57 -44.5t-23.5 -52.5v-5h229v-38h-275v41q0 38 23.5 69.5t57 53.5t67 42.5t57 45t23.5 52.5v5q0 37 -26 58t-64 21t-63 -20.5t-25 -58.5v-20h-44v20q0 55 37 86t95 31t97.5 -31t39.5 -86z" />
<glyph horiz-adv-x="343" d="M300 600v-5q0 -69 -68 -94q75 -27 75 -100v-15q0 -54 -39.5 -83t-97.5 -29q-59 0 -99 31t-40 86v20h47v-20q0 -37 26.5 -58t65.5 -21q38 0 64 20.5t26 57.5v13q0 36 -26.5 57.5t-63.5 21.5h-30v37h30q37 0 61.5 20t24.5 53v3q0 36 -24 54.5t-62 18.5t-63 -20.5t-25 -58.5 v-20h-45v20q0 55 37.5 86t95.5 31t94 -27t36 -79z" />
<glyph horiz-adv-x="348" d="M16 393v38l203 269h47v-269h64v-38h-64v-113h-47v113h-203zM67 431h152v202z" />
<glyph horiz-adv-x="337" d="M90 542h81q59 0 98.5 -30.5t39.5 -85.5v-35q0 -55 -40 -86t-98 -31t-97 31t-39 86v20h45v-20q0 -37 26 -58t65 -21q38 0 64.5 21t26.5 58v35q0 37 -26.5 58t-64.5 21h-126v195h243v-38h-198v-120z" />
<glyph horiz-adv-x="349" d="M87 519h92q58 0 97.5 -30.5t39.5 -85.5v-12q0 -55 -39.5 -86t-97.5 -31t-98 31t-40 86v198q0 55 40 86t98 31q57 0 94 -31t37 -86v-20h-44v20q0 38 -24.5 58.5t-62.5 20.5q-39 0 -65.5 -21t-26.5 -58v-70zM270 391v12q0 37 -26.5 58t-64.5 21h-92v-91q0 -37 26.5 -58 t65.5 -21q38 0 64.5 21t26.5 58z" />
<glyph horiz-adv-x="288" d="M279 700v-38q-155 -184 -155 -382h-49q0 99 42 199.5t116 182.5h-216v38h262z" />
<glyph horiz-adv-x="346" d="M304 597v-5q0 -69 -69 -98q76 -28 76 -100v-8q0 -54 -39.5 -83t-98.5 -29t-98.5 29t-39.5 83v8q0 74 77 100q-32 14 -51 40t-19 58v5q0 52 36.5 80.5t94.5 28.5t94.5 -28.5t36.5 -80.5zM86 592v-3q0 -33 25 -55t62 -22t62 22t25 55v3q0 36 -24.5 56t-62.5 20t-62.5 -20 t-24.5 -56zM264 390v7q0 35 -27 56.5t-64 21.5q-38 0 -64.5 -21.5t-26.5 -56.5v-7q0 -37 26 -57.5t65 -20.5q38 0 64.5 20.5t26.5 57.5z" />
<glyph horiz-adv-x="349" d="M32 577v12q0 55 40 86t99 31q58 0 97.5 -31t39.5 -86v-198q0 -55 -39.5 -86t-97.5 -31t-95.5 31t-37.5 86v20h45v-20q0 -38 25 -58.5t63 -20.5t64 21t26 58v70h-90q-59 0 -99 30.5t-40 85.5zM261 498v91q0 37 -26 58t-64 21q-39 0 -65.5 -21t-26.5 -58v-12 q0 -37 26.5 -58t65.5 -21h90z" />
<glyph horiz-adv-x="573" d="M449 450v66q0 13 -4 35l-309 -355v-12q0 -66 44 -100.5t111 -34.5q66 0 112 35t46 100v66h70v-66q0 -91 -66 -142.5t-162 -51.5t-162 51.5t-66 142.5v332q0 91 66 142.5t162 51.5t162 -51.5t66 -142.5v-66h-70zM136 349l243 281q-39 21 -88 21q-66 0 -110.5 -36 t-44.5 -99v-167zM136 226l301 346q-14 29 -41 48l-260 -301v-93z" />
<glyph d="M451 450v66q0 13 -4 35l-308 -354v-13q0 -66 44 -100.5t110 -34.5t112 35t46 100v66h70v-66q0 -91 -66 -142.5t-162 -51.5t-162 51.5t-66 142.5v332q0 91 66 142.5t162 51.5t162 -51.5t66 -142.5v-66h-70zM139 350l242 280q-39 21 -88 21q-65 0 -109.5 -36t-44.5 -99 v-166zM139 226l300 345q-14 31 -41 49l-259 -300v-94z" />
<glyph d="M451 450v66q0 13 -4 35l-308 -354v-13q0 -66 44 -100.5t110 -34.5t112 35t46 100v66h70v-66q0 -91 -66 -142.5t-162 -51.5t-162 51.5t-66 142.5v332q0 91 66 142.5t162 51.5t162 -51.5t66 -142.5v-66h-70zM139 350l242 280q-39 21 -88 21q-65 0 -109.5 -36t-44.5 -99 v-166zM139 226l300 345q-14 31 -41 49l-259 -300v-94z" />
<glyph horiz-adv-x="446" d="M387 74l10 -54q-75 -27 -144 -30v-90h-40v91q-161 8 -161 165v188q0 157 161 165v91h40v-90q69 -3 144 -30l-10 -54q-74 30 -140 30q-125 0 -125 -119v-174q0 -119 125 -119q66 0 140 30z" />
<glyph horiz-adv-x="441" d="M386 260v-20q0 -97 -71 -137l36 -58h-10l-33 54q-39 -19 -87 -19t-87 19l-33 -54h-10l35 58q-70 41 -70 137v20q0 96 70 137l-35 58h10l33 -54q39 19 87 19t87 -19l33 54h10l-36 -58q71 -42 71 -137zM66 260v-20q0 -79 45 -114.5t110 -35.5t110 35.5t45 114.5v20 q0 79 -45 114.5t-110 35.5t-110 -35.5t-45 -114.5z" />
<glyph horiz-adv-x="540" d="M283 661v-177q34 -13 51.5 -21t41.5 -24t35 -38t11 -51v-6q0 -56 -39 -87.5t-100 -34.5v-61h-26v61q-60 3 -99.5 36.5t-39.5 91.5v44h47v-44q0 -40 26 -63t66 -26v184q-30 12 -49 21t-40.5 25t-32 37.5t-10.5 49.5v7q0 52 37 82t95 33v61h26v-61q58 -3 95 -37t37 -91v-44 h-46v44q0 39 -24 62t-62 27zM174 585v-5q0 -31 21 -49.5t62 -35.5v166q-37 -3 -60 -23.5t-23 -52.5zM373 342v5q0 31 -23 50t-67 37v-173q40 2 65 23t25 58z" />
<glyph horiz-adv-x="606" d="M481 450v66q0 63 -46.5 99t-111.5 36q-66 0 -110.5 -36t-44.5 -99v-75h135v-42h-135v-90h135v-42h-135v-83q0 -66 44 -100.5t111 -34.5q66 0 112 35t46 100v66h70v-66q0 -91 -66 -142.5t-162 -51.5t-162 51.5t-66 142.5v83h-57v42h57v90h-57v42h57v75q0 91 66 142.5 t162 51.5t162 -51.5t66 -142.5v-66h-70z" />
<glyph horiz-adv-x="787" d="M323 592v-198q0 -54 -39.5 -85.5t-97.5 -31.5t-98 31.5t-40 85.5v198q0 55 40 86.5t98 31.5t97.5 -31.5t39.5 -86.5zM562 700l-380 -700h40l380 700h-40zM95 592v-198q0 -37 26 -57.5t65 -20.5q38 0 64.5 20.5t26.5 57.5v198q0 37 -26.5 58.5t-64.5 21.5q-39 0 -65 -21.5 t-26 -58.5zM739 309v-198q0 -55 -39.5 -86t-97.5 -31q-59 0 -98.5 31t-39.5 86v198q0 55 39.5 86t98.5 31q58 0 97.5 -31t39.5 -86zM510 309v-198q0 -37 26.5 -58t65.5 -21q38 0 64 21t26 58v198q0 37 -26 58t-64 21q-39 0 -65.5 -21t-26.5 -58z" />
<glyph horiz-adv-x="1128" d="M323 592v-198q0 -54 -39.5 -85.5t-97.5 -31.5t-98 31.5t-40 85.5v198q0 55 40 86.5t98 31.5t97.5 -31.5t39.5 -86.5zM562 700l-380 -700h40l380 700h-40zM95 592v-198q0 -37 26 -57.5t65 -20.5q38 0 64.5 20.5t26.5 57.5v198q0 37 -26.5 58.5t-64.5 21.5q-39 0 -65 -21.5 t-26 -58.5zM739 309v-198q0 -55 -39.5 -86t-97.5 -31q-59 0 -98.5 31t-39.5 86v198q0 55 39.5 86t98.5 31q58 0 97.5 -31t39.5 -86zM1080 309v-198q0 -55 -39.5 -86t-97.5 -31t-98 31t-40 86v198q0 55 40 86t98 31t97.5 -31t39.5 -86zM510 309v-198q0 -37 26.5 -58t65.5 -21 q38 0 64 21t26 58v198q0 37 -26 58t-64 21q-39 0 -65.5 -21t-26.5 -58zM851 309v-198q0 -37 26.5 -58t65.5 -21q38 0 64.5 21t26.5 58v198q0 37 -26.5 58t-64.5 21q-39 0 -65.5 -21t-26.5 -58z" />
<glyph horiz-adv-x="659" d="M621 648h-132q34 -33 45 -89h87v-53h-84v-17q0 -133 -122 -164q87 -26 106 -149l28 -176h-74l-26 171q-12 78 -47.5 100.5t-105.5 22.5h-228v52h261q134 0 134 125v35h-395v53h391q-20 89 -130 89h-261v52h553v-52z" />
<glyph horiz-adv-x="580" d="M89 272h-41v59h41v205q0 82 61.5 128t156.5 46t156.5 -51.5t61.5 -142.5v-66h-70v66q0 64 -42 99.5t-106 35.5t-104.5 -31t-40.5 -84v-205h157v-59h-157v-213h366v-59h-479v59h40v213z" />
<glyph horiz-adv-x="582" d="M253 0v236h-142v55h130l-218 409h78l189 -363l191 363h78l-221 -409h130v-55h-142v-236h-73z" />
<glyph d="M453 74l10 -54q-75 -27 -144 -30v-90h-40v91q-161 8 -161 165v188q0 157 161 165v91h40v-90q69 -3 144 -30l-10 -54q-74 30 -140 30q-125 0 -125 -119v-174q0 -119 125 -119q66 0 140 30z" />
<glyph d="M454 260v-20q0 -97 -71 -137l36 -58h-10l-33 54q-39 -19 -87 -19t-87 19l-33 -54h-10l35 58q-70 41 -70 137v20q0 96 70 137l-35 58h10l33 -54q39 19 87 19t87 -19l33 54h10l-36 -58q71 -42 71 -137zM134 260v-20q0 -79 45 -114.5t110 -35.5t110 35.5t45 114.5v20 q0 79 -45 114.5t-110 35.5t-110 -35.5t-45 -114.5z" />
<glyph d="M302 661v-177q34 -13 51.5 -21t41.5 -24t35 -38t11 -51v-6q0 -56 -39 -87.5t-100 -34.5v-61h-26v61q-60 3 -99.5 36.5t-39.5 91.5v44h47v-44q0 -40 26 -63t66 -26v184q-30 12 -49 21t-40.5 25t-32 37.5t-10.5 49.5v7q0 52 37 82t95 33v61h26v-61q58 -3 95 -37t37 -91v-44 h-46v44q0 39 -24 62t-62 27zM193 585v-5q0 -31 21 -49.5t62 -35.5v166q-37 -3 -60 -23.5t-23 -52.5zM392 342v5q0 31 -23 50t-67 37v-173q40 2 65 23t25 58z" />
<glyph d="M467 450v66q0 63 -46 99t-112 36q-65 0 -109.5 -36t-44.5 -99v-75h134v-42h-134v-90h134v-42h-134v-83q0 -66 44 -100.5t110 -34.5q67 0 112.5 35t45.5 100v66h70v-66q0 -91 -66 -142.5t-162 -51.5t-162 51.5t-66 142.5v83h-56v42h56v90h-56v42h56v75q0 91 66 142.5 t162 51.5t162 -51.5t66 -142.5v-66h-70z" />
<glyph d="M548 648h-132q34 -33 45 -89h87v-53h-84v-17q0 -133 -122 -164q87 -26 106 -149l28 -176h-74l-26 171q-12 78 -47.5 100.5t-105.5 22.5h-168v52h201q134 0 134 125v35h-335v53h331q-20 89 -130 89h-201v52h493v-52z" />
<glyph d="M88 272h-41v59h41v205q0 82 61.5 128t156.5 46t156.5 -51.5t61.5 -142.5v-66h-70v66q0 64 -42 99.5t-106 35.5q-63 0 -104 -31t-41 -84v-205h157v-59h-157v-213h366v-59h-479v59h40v213z" />
<glyph d="M251 0v236h-142v55h130l-215 409h79l185 -363l187 363h79l-218 -409h130v-55h-142v-236h-73z" />
<glyph d="M453 74l10 -54q-75 -27 -144 -30v-90h-40v91q-161 8 -161 165v188q0 157 161 165v91h40v-90q69 -3 144 -30l-10 -54q-74 30 -140 30q-125 0 -125 -119v-174q0 -119 125 -119q66 0 140 30z" />
<glyph d="M454 260v-20q0 -97 -71 -137l36 -58h-10l-33 54q-39 -19 -87 -19t-87 19l-33 -54h-10l35 58q-70 41 -70 137v20q0 96 70 137l-35 58h10l33 -54q39 19 87 19t87 -19l33 54h10l-36 -58q71 -42 71 -137zM134 260v-20q0 -79 45 -114.5t110 -35.5t110 35.5t45 114.5v20 q0 79 -45 114.5t-110 35.5t-110 -35.5t-45 -114.5z" />
<glyph d="M302 661v-177q34 -13 51.5 -21t41.5 -24t35 -38t11 -51v-6q0 -56 -39 -87.5t-100 -34.5v-61h-26v61q-60 3 -99.5 36.5t-39.5 91.5v44h47v-44q0 -40 26 -63t66 -26v184q-30 12 -49 21t-40.5 25t-32 37.5t-10.5 49.5v7q0 52 37 82t95 33v61h26v-61q58 -3 95 -37t37 -91v-44 h-46v44q0 39 -24 62t-62 27zM193 585v-5q0 -31 21 -49.5t62 -35.5v166q-37 -3 -60 -23.5t-23 -52.5zM392 342v5q0 31 -23 50t-67 37v-173q40 2 65 23t25 58z" />
<glyph d="M467 450v66q0 63 -46 99t-112 36q-65 0 -109.5 -36t-44.5 -99v-75h134v-42h-134v-90h134v-42h-134v-83q0 -66 44 -100.5t110 -34.5q67 0 112.5 35t45.5 100v66h70v-66q0 -91 -66 -142.5t-162 -51.5t-162 51.5t-66 142.5v83h-56v42h56v90h-56v42h56v75q0 91 66 142.5 t162 51.5t162 -51.5t66 -142.5v-66h-70z" />
<glyph d="M548 648h-132q34 -33 45 -89h87v-53h-84v-17q0 -133 -122 -164q87 -26 106 -149l28 -176h-74l-26 171q-12 78 -47.5 100.5t-105.5 22.5h-168v52h201q134 0 134 125v35h-335v53h331q-20 89 -130 89h-201v52h493v-52z" />
<glyph d="M88 272h-41v59h41v205q0 82 61.5 128t156.5 46t156.5 -51.5t61.5 -142.5v-66h-70v66q0 64 -42 99.5t-106 35.5q-63 0 -104 -31t-41 -84v-205h157v-59h-157v-213h366v-59h-479v59h40v213z" />
<glyph d="M251 0v236h-142v55h130l-215 409h79l185 -363l187 363h79l-218 -409h130v-55h-142v-236h-73z" />
<glyph horiz-adv-x="313" d="M199 821l-58 -84h33l63 84h-38zM42 707v-212q0 -38 24 -66t71 -28q25 0 50.5 13.5t39.5 42.5l5 -50h37v300h-44v-197q0 -31 -20.5 -53t-51.5 -22q-32 0 -49.5 19t-17.5 47v206h-44z" />
<glyph horiz-adv-x="302" d="M90 451v-536q0 -37 -14.5 -54t-52.5 -17q-24 0 -56 8l-5 -52q44 -10 84 -10q56 0 85 26t29 92v543h121v49h-121v105q0 36 15 53.5t52 17.5q25 0 57 -8l5 52q-44 10 -84 10q-56 0 -85.5 -26t-29.5 -92v-112h-67v-49h67z" />
<glyph horiz-adv-x="293" d="M45 656l-9 32q50 25 106 25q110 0 110 -96v-210h-38l-5 53q-26 -59 -95 -59q-45 0 -67.5 24.5t-22.5 55.5v7q0 96 183 97v30q0 63 -70 63q-39 0 -92 -22zM207 521v39q-138 -1 -138 -66v-5q0 -23 15.5 -38.5t46.5 -15.5q33 0 54.5 21t21.5 65z" />
<glyph horiz-adv-x="304" d="M81 407l5 50q14 -29 39.5 -42.5t50.5 -13.5q47 0 71 28t24 66v124q0 38 -24 66t-71 28q-24 0 -49 -13t-39 -41v180h-45v-432h38zM88 510v94q0 31 20.5 53t52.5 22q31 0 48 -19t17 -47v-112q0 -28 -17 -47t-48 -19q-32 0 -52.5 22t-20.5 53z" />
<glyph horiz-adv-x="266" d="M32 613v-112q0 -100 110 -100q50 0 99 18l-6 34q-47 -18 -84 -18q-74 0 -74 71v102q0 71 74 71q37 0 84 -18l6 34q-49 18 -99 18q-110 0 -110 -100z" />
<glyph horiz-adv-x="304" d="M223 407l-5 50q-14 -29 -39.5 -42.5t-50.5 -13.5q-47 0 -71 28t-24 66v124q0 38 24 66t71 28q24 0 49 -13t39 -41v180h44v-432h-37zM216 510v94q0 31 -20.5 53t-51.5 22q-32 0 -49.5 -19t-17.5 -47v-112q0 -28 17.5 -47t49.5 -19q31 0 51.5 22t20.5 53z" />
<glyph horiz-adv-x="287" d="M249 453l7 -34q-49 -18 -109 -18q-47 0 -81 24t-34 80v105q0 53 32.5 78t81.5 25q46 0 77.5 -24.5t31.5 -77.5v-63h-179v-42q0 -71 78 -71q50 0 95 18zM215 578v36q0 33 -19.5 49.5t-49.5 16.5q-31 0 -50.5 -17t-19.5 -50v-35h139z" />
<glyph horiz-adv-x="287" d="M65 821h38l58 -84h-33zM249 453l7 -34q-49 -18 -109 -18q-47 0 -81 24t-34 80v105q0 53 32.5 78t81.5 25q46 0 77.5 -24.5t31.5 -77.5v-63h-179v-42q0 -71 78 -71q50 0 95 18zM215 578v36q0 33 -19.5 49.5t-49.5 16.5q-31 0 -50.5 -17t-19.5 -50v-35h139z" />
<glyph horiz-adv-x="181" d="M99 707v62q0 21 9 31.5t31 10.5q15 0 33 -5l4 33q-30 6 -51 6q-34 0 -52 -16t-18 -56v-66h-40v-31h40v-269h44v269h72v31h-72z" />
<glyph horiz-adv-x="304" d="M225 707l-5 -50q-14 29 -39.5 42.5t-50.5 13.5q-47 0 -71 -28t-24 -66v-112q0 -38 24 -66t71 -28q24 0 49 13t39 41v-84q0 -68 -79 -68q-45 0 -92 18l-6 -34q49 -18 103 -18q118 0 118 102v324h-37zM218 604v-82q0 -31 -20.5 -53t-51.5 -22q-32 0 -49.5 19t-17.5 47v100 q0 28 17.5 47t49.5 19q31 0 51.5 -22t20.5 -53z" />
<glyph horiz-adv-x="313" d="M271 407v212q0 38 -24 66t-71 28q-24 0 -49 -13t-39 -41v180h-45v-432h45v197q0 31 20.5 53t52.5 22q31 0 48 -19t17 -47v-206h45z" />
<glyph horiz-adv-x="132" d="M43 829v-78h45v78h-45zM43 707v-300h45v300h-45z" />
<glyph horiz-adv-x="132" d="M43 829v-78h45v78h-45zM43 707v-350q0 -22 -8.5 -32t-30.5 -10q-15 0 -33 5l-4 -33q29 -6 51 -6q34 0 52 16t18 56v354h-45z" />
<glyph horiz-adv-x="284" d="M88 839v-272l143 140h53l-151 -145l155 -155h-55l-145 146v-146h-45v432h45z" />
<glyph horiz-adv-x="132" d="M43 839v-432h45v432h-45z" />
<glyph horiz-adv-x="495" d="M81 707l5 -50q14 29 39.5 42.5t50.5 13.5q70 0 90 -60q14 32 41 46t52 14q47 0 71 -28t24 -66v-212h-45v206q0 28 -17.5 47t-48.5 19t-51.5 -22t-20.5 -53v-197h-45v206q0 28 -17 47t-48 19q-32 0 -52.5 -22t-20.5 -53v-197h-45v300h38z" />
<glyph horiz-adv-x="313" d="M271 407v212q0 38 -24 66t-71 28q-25 0 -50.5 -13.5t-39.5 -42.5l-5 50h-38v-300h45v197q0 31 20.5 53t52.5 22q31 0 48 -19t17 -47v-206h45z" />
<glyph horiz-adv-x="291" d="M259 610v-106q0 -53 -32 -78t-81 -25t-81.5 25t-32.5 78v106q0 53 32.5 78t81.5 25t81 -25t32 -78zM76 613v-112q0 -33 19.5 -50t50.5 -17q30 0 49.5 17t19.5 50v112q0 33 -19.5 50t-49.5 17q-31 0 -50.5 -17t-19.5 -50z" />
<glyph horiz-adv-x="304" d="M81 707l5 -50q14 29 39.5 42.5t50.5 13.5q47 0 71 -28t24 -66v-124q0 -38 -24 -66t-71 -28q-24 0 -49 13t-39 41v-168h-45v420h38zM88 604v-94q0 -31 20.5 -53t52.5 -22q31 0 48 19t17 47v112q0 28 -17 47t-48 19q-32 0 -52.5 -22t-20.5 -53z" />
<glyph horiz-adv-x="304" d="M223 707l-5 -50q-14 29 -39.5 42.5t-50.5 13.5q-47 0 -71 -28t-24 -66v-124q0 -38 24 -66t71 -28q24 0 49 13t39 41v-168h44v420h-37zM216 604v-94q0 -31 -20.5 -53t-51.5 -22q-32 0 -49.5 19t-17.5 47v112q0 28 17.5 47t49.5 19q31 0 51.5 -22t20.5 -53z" />
<glyph horiz-adv-x="187" d="M176 669v44q-25 0 -51.5 -16t-38.5 -49l-5 59h-38v-300h45v191q0 31 24 51t64 20z" />
<glyph horiz-adv-x="274" d="M204 489v-4q0 -22 -18 -36.5t-51 -14.5q-52 0 -101 19l-7 -34q49 -18 110 -18q49 0 80.5 22.5t31.5 61.5v7q0 36 -27 56t-60 26t-60 19.5t-27 37.5v4q0 22 18 33.5t48 11.5q45 0 92 -19l7 34q-49 18 -101 18q-54 0 -81.5 -21.5t-27.5 -55.5v-7q0 -29 18 -47.5t43.5 -27 t51 -15t43.5 -18.5t18 -32z" />
<glyph horiz-adv-x="181" d="M97 676v-199q0 -21 9 -31.5t31 -10.5q15 0 33 5l4 -33q-28 -6 -51 -6q-34 0 -52 16t-18 56v203h-40v31h40v60h44v-60h71v-31h-71z" />
<glyph horiz-adv-x="313" d="M42 707v-212q0 -38 24 -66t71 -28q25 0 50.5 13.5t39.5 42.5l5 -50h37v300h-44v-197q0 -31 -20.5 -53t-51.5 -22q-32 0 -49.5 19t-17.5 47v206h-44z" />
<glyph horiz-adv-x="263" d="M132 456l81 251h44l-105 -303h-42l-104 303h45z" />
<glyph horiz-adv-x="401" d="M92 404l-81 303h43l62 -252l62 252h44l62 -254l62 254h44l-81 -303h-48l-61 251l-60 -251h-48z" />
<glyph horiz-adv-x="276" d="M13 407l103 150l-103 150h45l81 -117l81 117h44l-104 -150l104 -150h-44l-81 117l-81 -117h-45z" />
<glyph horiz-adv-x="263" d="M257 707l-118 -342q-17 -50 -38.5 -67t-56.5 -17q-16 0 -46 6l3 34q21 -6 40 -6q24 0 36 10t21 36l16 43h-6l-102 303h44l84 -251l79 251h44z" />
<glyph horiz-adv-x="268" d="M29 676v31h210v-31l-168 -238h174v-31h-223v31l168 238h-161z" />
<glyph horiz-adv-x="302" d="M90 451v-536q0 -37 -14.5 -54t-52.5 -17q-24 0 -56 8l-5 -52q44 -10 84 -10q56 0 85 26t29 92v543h121v49h-121v105q0 36 15 53.5t52 17.5q25 0 57 -8l5 52q-44 10 -84 10q-56 0 -85.5 -26t-29.5 -92v-112h-67v-49h67z" />
<glyph horiz-adv-x="302" d="M90 451v-536q0 -37 -14.5 -54t-52.5 -17q-24 0 -56 8l-5 -52q44 -10 84 -10q56 0 85 26t29 92v543h121v49h-121v105q0 36 15 53.5t52 17.5q25 0 57 -8l5 52q-44 10 -84 10q-56 0 -85.5 -26t-29.5 -92v-112h-67v-49h67z" />
<glyph horiz-adv-x="620" d="M447 0h-39v227h-194v-227h-40v227h-130v40h130v176h-130v40h130v217h40v-217h194v217h39v-217h129v-40h-129v-176h129v-40h-129v-227zM214 443v-176h194v176h-194z" />
<glyph d="M426 0h-39v227h-194v-227h-40v227h-130v40h130v176h-130v40h130v217h40v-217h194v217h39v-217h129v-40h-129v-176h129v-40h-129v-227zM193 443v-176h194v176h-194z" />
<glyph d="M426 0h-39v227h-194v-227h-40v227h-130v40h130v176h-130v40h130v217h40v-217h194v217h39v-217h129v-40h-129v-176h129v-40h-129v-227zM193 443v-176h194v176h-194z" />
<glyph horiz-adv-x="658" d="M61 215v270q0 100 70 162.5t201 62.5q132 0 202 -62.5t70 -162.5v-299h-197l-7 46q-27 -51 -88 -51q-47 0 -71 28t-24 66v124q0 38 24 66t71 28q62 0 90 -53l5 47h37v-266h111v264q0 82 -58 131t-165 49t-164.5 -49t-57.5 -131v-270q0 -82 57.5 -131t164.5 -49v-45 q-131 0 -201 62.5t-70 162.5zM400 290v94q0 31 -20.5 53t-51.5 22q-32 0 -49.5 -19t-17.5 -47v-112q0 -28 17.5 -47t49.5 -19q31 0 51.5 22t20.5 53z" />
<glyph horiz-adv-x="648" d="M507 299v-125q0 -17 -3 -32l102 -89v-53h-45l-84 74q-29 -41 -82 -62.5t-117 -21.5q-96 0 -161.5 51.5t-65.5 142.5v36q0 95 87 154q-68 71 -68 152v10q0 82 61.5 128t156.5 46t156.5 -51.5t61.5 -142.5v-66h-72v66q0 64 -41 99.5t-105 35.5t-104.5 -31t-40.5 -84v-8 q0 -34 19 -68.5t48 -59.5l224 -196v154h172v-59h-99zM125 220v-36q0 -66 44 -100.5t110 -34.5q112 0 145 72l-242 212q-57 -41 -57 -113z" />
<glyph horiz-adv-x="290" d="M74 349v2q42 11 62.5 36.5t20.5 81.5q0 31 -5 115.5t-5 114.5q0 35 9 58t27 32.5t34.5 12.5t41.5 3v45q-81 0 -123 -29t-42 -117q0 -31 5 -105.5t5 -103.5q0 -31 -1 -45.5t-7.5 -33t-21.5 -27.5t-40 -13v-52q25 -4 40 -13t21.5 -27.5t7.5 -33t1 -45.5q0 -29 -5 -103.5 t-5 -105.5q0 -88 42 -117t123 -29v45q-25 0 -41.5 3t-34.5 12.5t-27 32.5t-9 58q0 30 5 114.5t5 115.5q0 56 -20.5 81.5t-62.5 36.5z" />
<glyph horiz-adv-x="290" d="M216 349v2q-42 11 -62.5 36.5t-20.5 81.5q0 31 5 115.5t5 114.5q0 35 -9 58t-27 32.5t-34.5 12.5t-41.5 3v45q81 0 123 -29t42 -117q0 -31 -5 -105.5t-5 -103.5q0 -31 1 -45.5t7.5 -33t21.5 -27.5t40 -13v-52q-25 -4 -40 -13t-21.5 -27.5t-7.5 -33t-1 -45.5 q0 -29 5 -103.5t5 -105.5q0 -88 -42 -117t-123 -29v45q25 0 41.5 3t34.5 12.5t27 32.5t9 58q0 30 -5 114.5t-5 115.5q0 56 20.5 81.5t62.5 36.5z" />
<glyph horiz-adv-x="300" d="M75 850h195v-45h-143v-910h143v-45h-195v1000z" />
<glyph horiz-adv-x="300" d="M173 805h-143v45h195v-1000h-195v45h143v910z" />
<glyph horiz-adv-x="699" d="M55 383h590v-56h-590v56z" />
<glyph horiz-adv-x="599" d="M55 383h490v-56h-490v56z" />
<glyph horiz-adv-x="230" d="M152 602v98h-74v-98h74zM78 0v300l11 222h52l11 -222v-300h-74z" />
<glyph horiz-adv-x="596" d="M97 355v-2l185 -158v-61l-251 194v53l251 195v-61zM355 355v-2l184 -158v-61l-250 194v53l250 195v-61z" />
<glyph horiz-adv-x="596" d="M241 355v-2l-184 -158v-61l250 194v53l-250 195v-61zM498 355v-2l-184 -158v-61l251 194v53l-251 195v-61z" />
<glyph horiz-adv-x="338" d="M97 355v-2l185 -158v-61l-251 194v53l251 195v-61z" />
<glyph horiz-adv-x="338" d="M241 355v-2l-184 -158v-61l250 194v53l-250 195v-61z" />
<glyph horiz-adv-x="449" d="M55 383h340v-56h-340v56z" />
<glyph horiz-adv-x="281" d="M261 850h-46q-78 -104 -123.5 -239.5t-45.5 -260.5t45.5 -260.5t123.5 -239.5h46q-149 242 -149 500t149 500z" />
<glyph horiz-adv-x="281" d="M20 850h47q78 -104 123.5 -240t45.5 -260t-45.5 -260t-123.5 -240h-47q149 240 149 500t-149 500z" />
<glyph horiz-adv-x="197" d="M67 404v-98h63v98h-63z" />
<glyph horiz-adv-x="523" d="M233 602v98h74v-98h-74zM488 218v-34q0 -91 -61.5 -142.5t-156.5 -51.5q-96 0 -162 51.5t-66 142.5v42q0 82 53.5 132.5t137.5 60.5l9 110h56v-168h-28q-65 0 -109.5 -35.5t-44.5 -99.5v-42q0 -63 44.5 -99t109.5 -36q64 0 106 35.5t42 99.5v34h70z" />
</font>
</defs>
</svg>
